<?xml version="1.0" encoding="utf-8" standalone="no"?>
<!DOCTYPE svg PUBLIC "-//W3C//DTD SVG 1.1//EN"
  "http://www.w3.org/Graphics/SVG/1.1/DTD/svg11.dtd">
<svg height="302.4pt" version="1.1" viewBox="0 0 446.4 302.4" width="446.4pt" xmlns="http://www.w3.org/2000/svg" xmlns:xlink="http://www.w3.org/1999/xlink">
 <metadata>
  <rdf:RDF xmlns:cc="http://creativecommons.org/ns#" xmlns:dc="http://purl.org/dc/elements/1.1/" xmlns:rdf="http://www.w3.org/1999/02/22-rdf-syntax-ns#">
   <cc:Work>
    <dc:type rdf:resource="http://purl.org/dc/dcmitype/StillImage"/>
    <dc:date>2023-07-24T12:26:32.789725</dc:date>
    <dc:format>image/svg+xml</dc:format>
    <dc:creator>
     <cc:Agent>
      <dc:title>Matplotlib v3.4.3, https://matplotlib.org/</dc:title>
     </cc:Agent>
    </dc:creator>
   </cc:Work>
  </rdf:RDF>
 </metadata>
 <defs>
  <style type="text/css">*{stroke-linecap:butt;stroke-linejoin:round;}</style>
 </defs>
 <g id="figure_1">
  <g id="patch_1">
   <path d="M 0 302.4 
L 446.4 302.4 
L 446.4 0 
L 0 0 
z
" style="fill:#ffffff;"/>
  </g>
  <g id="axes_1">
   <g id="patch_2">
    <path clip-path="url(#pa38cd91fc9)" d="M 231.082787 57.216053 
Q 258.433893 65.255732 285.141407 73.106231 
" style="fill:none;stroke:#89a4cb;stroke-linecap:round;stroke-opacity:0.533333;stroke-width:0.6;"/>
    <path clip-path="url(#pa38cd91fc9)" d="M 281.86779 70.059359 
L 285.141407 73.106231 
L 280.73974 73.897002 
L 281.86779 70.059359 
z
" style="fill:#89a4cb;fill-opacity:0.533333;stroke:#89a4cb;stroke-linecap:round;stroke-opacity:0.533333;stroke-width:0.6;"/>
   </g>
   <g id="patch_3">
    <path clip-path="url(#pa38cd91fc9)" d="M 299.8708 76.072637 
Q 318.614887 78.01836 336.51343 79.876313 
" style="fill:none;stroke:#89a4cb;stroke-linecap:round;stroke-opacity:0.533333;stroke-width:0.760342;"/>
    <path clip-path="url(#pa38cd91fc9)" d="M 332.741308 77.474002 
L 336.51343 79.876313 
L 332.328309 81.452624 
L 332.741308 77.474002 
z
" style="fill:#89a4cb;fill-opacity:0.533333;stroke:#89a4cb;stroke-linecap:round;stroke-opacity:0.533333;stroke-width:0.760342;"/>
   </g>
   <g id="patch_4">
    <path clip-path="url(#pa38cd91fc9)" d="M 115.745306 140.115921 
Q 123.925015 152.475006 131.583427 164.046441 
" style="fill:none;stroke:#89a4cb;stroke-linecap:round;stroke-opacity:0.533333;stroke-width:0.844816;"/>
    <path clip-path="url(#pa38cd91fc9)" d="M 131.043599 159.607006 
L 131.583427 164.046441 
L 127.707982 161.814643 
L 131.043599 159.607006 
z
" style="fill:#89a4cb;fill-opacity:0.533333;stroke:#89a4cb;stroke-linecap:round;stroke-opacity:0.533333;stroke-width:0.844816;"/>
   </g>
   <g id="patch_5">
    <path clip-path="url(#pa38cd91fc9)" d="M 143.447899 176.009661 
Q 152.335948 181.702001 160.659099 187.032553 
" style="fill:none;stroke:#89a4cb;stroke-linecap:round;stroke-opacity:0.533333;stroke-width:0.6;"/>
    <path clip-path="url(#pa38cd91fc9)" d="M 158.369343 183.191066 
L 160.659099 187.032553 
L 156.212056 186.559465 
L 158.369343 183.191066 
z
" style="fill:#89a4cb;fill-opacity:0.533333;stroke:#89a4cb;stroke-linecap:round;stroke-opacity:0.533333;stroke-width:0.6;"/>
   </g>
   <g id="patch_6">
    <path clip-path="url(#pa38cd91fc9)" d="M 49.056617 146.961206 
Q 65.665335 162.279488 81.780941 177.142972 
" style="fill:none;stroke:#89a4cb;stroke-linecap:round;stroke-opacity:0.533333;stroke-width:0.6;"/>
    <path clip-path="url(#pa38cd91fc9)" d="M 80.196541 172.960906 
L 81.780941 177.142972 
L 77.484648 175.901253 
L 80.196541 172.960906 
z
" style="fill:#89a4cb;fill-opacity:0.533333;stroke:#89a4cb;stroke-linecap:round;stroke-opacity:0.533333;stroke-width:0.6;"/>
   </g>
   <g id="patch_7">
    <path clip-path="url(#pa38cd91fc9)" d="M 92.997079 180.577151 
Q 110.81216 176.918185 127.970137 173.394178 
" style="fill:none;stroke:#89a4cb;stroke-linecap:round;stroke-opacity:0.533333;stroke-width:0.6;"/>
    <path clip-path="url(#pa38cd91fc9)" d="M 123.649553 172.239817 
L 127.970137 173.394178 
L 124.454298 176.158029 
L 123.649553 172.239817 
z
" style="fill:#89a4cb;fill-opacity:0.533333;stroke:#89a4cb;stroke-linecap:round;stroke-opacity:0.533333;stroke-width:0.6;"/>
   </g>
   <g id="patch_8">
    <path clip-path="url(#pa38cd91fc9)" d="M 378.032384 69.991425 
Q 377.699377 72.225418 377.521814 73.416607 
" style="fill:none;stroke:#89a4cb;stroke-linecap:round;stroke-opacity:0.533333;stroke-width:0.943018;"/>
    <path clip-path="url(#pa38cd91fc9)" d="M 380.089696 69.755189 
L 377.521814 73.416607 
L 376.133408 69.165451 
L 380.089696 69.755189 
z
" style="fill:#89a4cb;fill-opacity:0.533333;stroke:#89a4cb;stroke-linecap:round;stroke-opacity:0.533333;stroke-width:0.943018;"/>
   </g>
   <g id="patch_9">
    <path clip-path="url(#pa38cd91fc9)" d="M 383.960592 79.464662 
Q 389.696557 76.900714 394.8201 74.610515 
" style="fill:none;stroke:#89a4cb;stroke-linecap:round;stroke-opacity:0.533333;stroke-width:0.6;"/>
    <path clip-path="url(#pa38cd91fc9)" d="M 390.352155 74.416953 
L 394.8201 74.610515 
L 391.984483 78.068734 
L 390.352155 74.416953 
z
" style="fill:#89a4cb;fill-opacity:0.533333;stroke:#89a4cb;stroke-linecap:round;stroke-opacity:0.533333;stroke-width:0.6;"/>
   </g>
   <g id="patch_10">
    <path clip-path="url(#pa38cd91fc9)" d="M 170.867746 198.268235 
Q 176.942527 210.852923 182.725692 222.833491 
" style="fill:none;stroke:#89a4cb;stroke-linecap:round;stroke-opacity:0.533333;stroke-width:0.6;"/>
    <path clip-path="url(#pa38cd91fc9)" d="M 182.787968 218.361789 
L 182.725692 222.833491 
L 179.185696 220.100649 
L 182.787968 218.361789 
z
" style="fill:#89a4cb;fill-opacity:0.533333;stroke:#89a4cb;stroke-linecap:round;stroke-opacity:0.533333;stroke-width:0.6;"/>
   </g>
   <g id="patch_11">
    <path clip-path="url(#pa38cd91fc9)" d="M 184.878283 238.164235 
Q 183.007463 247.466823 181.268902 256.111757 
" style="fill:none;stroke:#89a4cb;stroke-linecap:round;stroke-opacity:0.533333;stroke-width:0.6;"/>
    <path clip-path="url(#pa38cd91fc9)" d="M 184.018285 252.584592 
L 181.268902 256.111757 
L 180.0968 251.795952 
L 184.018285 252.584592 
z
" style="fill:#89a4cb;fill-opacity:0.533333;stroke:#89a4cb;stroke-linecap:round;stroke-opacity:0.533333;stroke-width:0.6;"/>
   </g>
   <g id="patch_12">
    <path clip-path="url(#pa38cd91fc9)" d="M 358.150313 95.079879 
Q 363.553595 91.436763 367.579989 88.722002 
" style="fill:none;stroke:#89a4cb;stroke-linecap:round;stroke-opacity:0.533333;stroke-width:1.485305;"/>
    <path clip-path="url(#pa38cd91fc9)" d="M 363.145347 89.299884 
L 367.579989 88.722002 
L 365.381509 92.616445 
L 363.145347 89.299884 
z
" style="fill:#89a4cb;fill-opacity:0.533333;stroke:#89a4cb;stroke-linecap:round;stroke-opacity:0.533333;stroke-width:1.485305;"/>
   </g>
   <g id="patch_13">
    <path clip-path="url(#pa38cd91fc9)" d="M 107.266145 170.506051 
Q 117.866139 170.909437 127.536604 171.27745 
" style="fill:none;stroke:#89a4cb;stroke-linecap:round;stroke-opacity:0.533333;stroke-width:0.831999;"/>
    <path clip-path="url(#pa38cd91fc9)" d="M 123.615553 169.126785 
L 127.536604 171.27745 
L 123.463442 173.123892 
L 123.615553 169.126785 
z
" style="fill:#89a4cb;fill-opacity:0.533333;stroke:#89a4cb;stroke-linecap:round;stroke-opacity:0.533333;stroke-width:0.831999;"/>
   </g>
   <g id="patch_14">
    <path clip-path="url(#pa38cd91fc9)" d="M 103.80446 147.75767 
Q 116.912425 157.296806 128.773308 165.928395 
" style="fill:none;stroke:#89a4cb;stroke-linecap:round;stroke-opacity:0.533333;stroke-width:1.379524;"/>
    <path clip-path="url(#pa38cd91fc9)" d="M 126.715909 161.957613 
L 128.773308 165.928395 
L 124.362243 165.191845 
L 126.715909 161.957613 
z
" style="fill:#89a4cb;fill-opacity:0.533333;stroke:#89a4cb;stroke-linecap:round;stroke-opacity:0.533333;stroke-width:1.379524;"/>
   </g>
   <g id="patch_15">
    <path clip-path="url(#pa38cd91fc9)" d="M 179.498891 183.470367 
Q 182.390049 203.107349 185.124817 221.682113 
" style="fill:none;stroke:#89a4cb;stroke-linecap:round;stroke-opacity:0.533333;stroke-width:0.96032;"/>
    <path clip-path="url(#pa38cd91fc9)" d="M 186.520847 217.433454 
L 185.124817 221.682113 
L 182.563508 218.016094 
L 186.520847 217.433454 
z
" style="fill:#89a4cb;fill-opacity:0.533333;stroke:#89a4cb;stroke-linecap:round;stroke-opacity:0.533333;stroke-width:0.96032;"/>
   </g>
   <g id="patch_16">
    <path clip-path="url(#pa38cd91fc9)" d="M 344.854986 105.68614 
Q 356.991872 96.865051 368.507188 88.495718 
" style="fill:none;stroke:#89a4cb;stroke-linecap:round;stroke-opacity:0.533333;stroke-width:0.687274;"/>
    <path clip-path="url(#pa38cd91fc9)" d="M 364.095673 89.229569 
L 368.507188 88.495718 
L 366.44736 92.46524 
L 364.095673 89.229569 
z
" style="fill:#89a4cb;fill-opacity:0.533333;stroke:#89a4cb;stroke-linecap:round;stroke-opacity:0.533333;stroke-width:0.687274;"/>
   </g>
   <g id="patch_17">
    <path clip-path="url(#pa38cd91fc9)" d="M 357.782344 35.526416 
Q 357.488135 40.269897 357.347731 42.533623 
" style="fill:none;stroke:#89a4cb;stroke-linecap:round;stroke-opacity:0.533333;stroke-width:2.222222;"/>
    <path clip-path="url(#pa38cd91fc9)" d="M 359.591514 38.665104 
L 357.347731 42.533623 
L 355.599186 38.417485 
L 359.591514 38.665104 
z
" style="fill:#89a4cb;fill-opacity:0.533333;stroke:#89a4cb;stroke-linecap:round;stroke-opacity:0.533333;stroke-width:2.222222;"/>
   </g>
   <g id="patch_18">
    <path clip-path="url(#pa38cd91fc9)" d="M 354.593233 56.417066 
Q 351.037285 65.154619 347.734204 73.270836 
" style="fill:none;stroke:#89a4cb;stroke-linecap:round;stroke-opacity:0.533333;stroke-width:0.6;"/>
    <path clip-path="url(#pa38cd91fc9)" d="M 351.094477 70.319808 
L 347.734204 73.270836 
L 347.389545 68.812001 
L 351.094477 70.319808 
z
" style="fill:#89a4cb;fill-opacity:0.533333;stroke:#89a4cb;stroke-linecap:round;stroke-opacity:0.533333;stroke-width:0.6;"/>
   </g>
   <g id="patch_19">
    <path clip-path="url(#pa38cd91fc9)" d="M 156.85103 211.033882 
Q 157.037932 236.715001 157.219105 261.608878 
" style="fill:none;stroke:#89a4cb;stroke-linecap:round;stroke-opacity:0.533333;stroke-width:0.704148;"/>
    <path clip-path="url(#pa38cd91fc9)" d="M 159.189942 257.594429 
L 157.219105 261.608878 
L 155.190048 257.623539 
L 159.189942 257.594429 
z
" style="fill:#89a4cb;fill-opacity:0.533333;stroke:#89a4cb;stroke-linecap:round;stroke-opacity:0.533333;stroke-width:0.704148;"/>
   </g>
   <g id="patch_20">
    <path clip-path="url(#pa38cd91fc9)" d="M 164.779826 268.013691 
Q 168.909855 266.804904 172.396072 265.784549 
" style="fill:none;stroke:#89a4cb;stroke-linecap:round;stroke-opacity:0.533333;stroke-width:0.6;"/>
    <path clip-path="url(#pa38cd91fc9)" d="M 167.995325 264.988668 
L 172.396072 265.784549 
L 169.118919 268.827618 
L 167.995325 264.988668 
z
" style="fill:#89a4cb;fill-opacity:0.533333;stroke:#89a4cb;stroke-linecap:round;stroke-opacity:0.533333;stroke-width:0.6;"/>
   </g>
   <g id="patch_21">
    <path clip-path="url(#pa38cd91fc9)" d="M 204.906252 242.94616 
Q 195.034699 251.064986 185.681248 258.7577 
" style="fill:none;stroke:#89a4cb;stroke-linecap:round;stroke-opacity:0.533333;stroke-width:0.6;"/>
    <path clip-path="url(#pa38cd91fc9)" d="M 190.041027 257.761546 
L 185.681248 258.7577 
L 187.500192 254.672184 
L 190.041027 257.761546 
z
" style="fill:#89a4cb;fill-opacity:0.533333;stroke:#89a4cb;stroke-linecap:round;stroke-opacity:0.533333;stroke-width:0.6;"/>
   </g>
   <g id="patch_22">
    <path clip-path="url(#pa38cd91fc9)" d="M 173.037927 265.596689 
Q 168.908454 266.805314 165.422793 267.825506 
" style="fill:none;stroke:#89a4cb;stroke-linecap:round;stroke-opacity:0.533333;stroke-width:0.6;"/>
    <path clip-path="url(#pa38cd91fc9)" d="M 169.82354 268.621387 
L 165.422793 267.825506 
L 168.699946 264.782437 
L 169.82354 268.621387 
z
" style="fill:#89a4cb;fill-opacity:0.533333;stroke:#89a4cb;stroke-linecap:round;stroke-opacity:0.533333;stroke-width:0.6;"/>
   </g>
   <g id="patch_23">
    <path clip-path="url(#pa38cd91fc9)" d="M 395.430315 74.337752 
Q 389.694059 76.90183 384.570225 79.192159 
" style="fill:none;stroke:#89a4cb;stroke-linecap:round;stroke-opacity:0.533333;stroke-width:0.6;"/>
    <path clip-path="url(#pa38cd91fc9)" d="M 389.03817 79.385721 
L 384.570225 79.192159 
L 387.405842 75.73394 
L 389.03817 79.385721 
z
" style="fill:#89a4cb;fill-opacity:0.533333;stroke:#89a4cb;stroke-linecap:round;stroke-opacity:0.533333;stroke-width:0.6;"/>
   </g>
   <g id="patch_24">
    <path clip-path="url(#pa38cd91fc9)" d="M 386.694501 96.100551 
Q 384.100572 92.889278 382.322731 90.688318 
" style="fill:none;stroke:#89a4cb;stroke-linecap:round;stroke-opacity:0.533333;stroke-width:1.16163;"/>
    <path clip-path="url(#pa38cd91fc9)" d="M 383.280368 95.056719 
L 382.322731 90.688318 
L 386.392034 92.543249 
L 383.280368 95.056719 
z
" style="fill:#89a4cb;fill-opacity:0.533333;stroke:#89a4cb;stroke-linecap:round;stroke-opacity:0.533333;stroke-width:1.16163;"/>
   </g>
   <g id="patch_25">
    <path clip-path="url(#pa38cd91fc9)" d="M 164.800436 233.584352 
Q 171.735208 232.591893 177.962859 231.700632 
" style="fill:none;stroke:#89a4cb;stroke-linecap:round;stroke-opacity:0.533333;stroke-width:0.638912;"/>
    <path clip-path="url(#pa38cd91fc9)" d="M 173.719863 230.287484 
L 177.962859 231.700632 
L 174.286543 234.24714 
L 173.719863 230.287484 
z
" style="fill:#89a4cb;fill-opacity:0.533333;stroke:#89a4cb;stroke-linecap:round;stroke-opacity:0.533333;stroke-width:0.638912;"/>
   </g>
   <g id="patch_26">
    <path clip-path="url(#pa38cd91fc9)" d="M 111.700994 158.154943 
Q 120.570639 162.95284 128.179122 167.06853 
" style="fill:none;stroke:#89a4cb;stroke-linecap:round;stroke-opacity:0.533333;stroke-width:1.282478;"/>
    <path clip-path="url(#pa38cd91fc9)" d="M 125.612446 163.406266 
L 128.179122 167.06853 
L 123.709305 166.924512 
L 125.612446 163.406266 
z
" style="fill:#89a4cb;fill-opacity:0.533333;stroke:#89a4cb;stroke-linecap:round;stroke-opacity:0.533333;stroke-width:1.282478;"/>
   </g>
   <g id="patch_27">
    <path clip-path="url(#pa38cd91fc9)" d="M 328.939514 79.508908 
Q 333.139387 79.833272 334.663946 79.951017 
" style="fill:none;stroke:#89a4cb;stroke-linecap:round;stroke-opacity:0.533333;stroke-width:2.4;"/>
    <path clip-path="url(#pa38cd91fc9)" d="M 330.829828 77.648945 
L 334.663946 79.951017 
L 330.521817 81.637069 
L 330.829828 77.648945 
z
" style="fill:#89a4cb;fill-opacity:0.533333;stroke:#89a4cb;stroke-linecap:round;stroke-opacity:0.533333;stroke-width:2.4;"/>
   </g>
   <g id="patch_28">
    <path clip-path="url(#pa38cd91fc9)" d="M 352.06241 81.254649 
Q 359.782757 81.808873 366.665128 82.30294 
" style="fill:none;stroke:#89a4cb;stroke-linecap:round;stroke-opacity:0.533333;stroke-width:0.751438;"/>
    <path clip-path="url(#pa38cd91fc9)" d="M 362.818602 80.021661 
L 366.665128 82.30294 
L 362.532189 84.011394 
L 362.818602 80.021661 
z
" style="fill:#89a4cb;fill-opacity:0.533333;stroke:#89a4cb;stroke-linecap:round;stroke-opacity:0.533333;stroke-width:0.751438;"/>
   </g>
   <g id="patch_29">
    <path clip-path="url(#pa38cd91fc9)" d="M 321.720825 63.417946 
Q 330.263719 69.852524 338.014001 75.690101 
" style="fill:none;stroke:#89a4cb;stroke-linecap:round;stroke-opacity:0.533333;stroke-width:0.887534;"/>
    <path clip-path="url(#pa38cd91fc9)" d="M 336.022206 71.686009 
L 338.014001 75.690101 
L 333.61565 74.881082 
L 336.022206 71.686009 
z
" style="fill:#89a4cb;fill-opacity:0.533333;stroke:#89a4cb;stroke-linecap:round;stroke-opacity:0.533333;stroke-width:0.887534;"/>
   </g>
   <g id="patch_30">
    <path clip-path="url(#pa38cd91fc9)" d="M 88.634106 163.986472 
Q 108.597828 167.164711 127.899073 170.237483 
" style="fill:none;stroke:#89a4cb;stroke-linecap:round;stroke-opacity:0.533333;stroke-width:0.6;"/>
    <path clip-path="url(#pa38cd91fc9)" d="M 124.26326 167.633473 
L 127.899073 170.237483 
L 123.634377 171.583726 
L 124.26326 167.633473 
z
" style="fill:#89a4cb;fill-opacity:0.533333;stroke:#89a4cb;stroke-linecap:round;stroke-opacity:0.533333;stroke-width:0.6;"/>
   </g>
   <g id="patch_31">
    <path clip-path="url(#pa38cd91fc9)" d="M 148.499122 148.845798 
Q 156.499323 166.711493 164.225366 183.964948 
" style="fill:none;stroke:#89a4cb;stroke-linecap:round;stroke-opacity:0.533333;stroke-width:0.6;"/>
    <path clip-path="url(#pa38cd91fc9)" d="M 164.415943 179.496875 
L 164.225366 183.964948 
L 160.765254 181.131642 
L 164.415943 179.496875 
z
" style="fill:#89a4cb;fill-opacity:0.533333;stroke:#89a4cb;stroke-linecap:round;stroke-opacity:0.533333;stroke-width:0.6;"/>
   </g>
   <g id="patch_32">
    <path clip-path="url(#pa38cd91fc9)" d="M 230.697214 205.855641 
Q 221.534332 220.192266 212.815475 233.834151 
" style="fill:none;stroke:#89a4cb;stroke-linecap:round;stroke-opacity:0.533333;stroke-width:0.737467;"/>
    <path clip-path="url(#pa38cd91fc9)" d="M 216.654807 231.540786 
L 212.815475 233.834151 
L 213.284382 229.386666 
L 216.654807 231.540786 
z
" style="fill:#89a4cb;fill-opacity:0.533333;stroke:#89a4cb;stroke-linecap:round;stroke-opacity:0.533333;stroke-width:0.737467;"/>
   </g>
   <g id="patch_33">
    <path clip-path="url(#pa38cd91fc9)" d="M 256.079152 156.158637 
Q 246.106493 176.20586 236.432613 195.652474 
" style="fill:none;stroke:#89a4cb;stroke-linecap:round;stroke-opacity:0.533333;stroke-width:0.6;"/>
    <path clip-path="url(#pa38cd91fc9)" d="M 240.004853 192.961916 
L 236.432613 195.652474 
L 236.42351 191.180347 
L 240.004853 192.961916 
z
" style="fill:#89a4cb;fill-opacity:0.533333;stroke:#89a4cb;stroke-linecap:round;stroke-opacity:0.533333;stroke-width:0.6;"/>
   </g>
   <g id="patch_34">
    <path clip-path="url(#pa38cd91fc9)" d="M 167.228285 134.464744 
Q 172.301345 153.769911 177.161291 172.264086 
" style="fill:none;stroke:#89a4cb;stroke-linecap:round;stroke-opacity:0.533333;stroke-width:0.75;"/>
    <path clip-path="url(#pa38cd91fc9)" d="M 178.079004 167.887123 
L 177.161291 172.264086 
L 174.210349 168.903738 
L 178.079004 167.887123 
z
" style="fill:#89a4cb;fill-opacity:0.533333;stroke:#89a4cb;stroke-linecap:round;stroke-opacity:0.533333;stroke-width:0.75;"/>
   </g>
   <g id="PathCollection_1">
    <path clip-path="url(#pa38cd91fc9)" d="M 226.313603 60.787855 
C 227.632636 60.787855 228.897823 60.263797 229.83052 59.3311 
C 230.763217 58.398403 231.287275 57.133216 231.287275 55.814183 
C 231.287275 54.49515 230.763217 53.229964 229.83052 52.297266 
C 228.897823 51.364569 227.632636 50.840512 226.313603 50.840512 
C 224.99457 50.840512 223.729384 51.364569 222.796687 52.297266 
C 221.863989 53.229964 221.339932 54.49515 221.339932 55.814183 
C 221.339932 57.133216 221.863989 58.398403 222.796687 59.3311 
C 223.729384 60.263797 224.99457 60.787855 226.313603 60.787855 
z
" style="fill:#0d6efd;stroke:#0d6efd;"/>
    <path clip-path="url(#pa38cd91fc9)" d="M 292.701285 82.534719 
C 294.612421 82.534719 296.445539 81.775416 297.796917 80.424039 
C 299.148294 79.072662 299.907596 77.239543 299.907596 75.328407 
C 299.907596 73.417271 299.148294 71.584153 297.796917 70.232776 
C 296.445539 68.881399 294.612421 68.122096 292.701285 68.122096 
C 290.790149 68.122096 288.957031 68.881399 287.605653 70.232776 
C 286.254276 71.584153 285.494974 73.417271 285.494974 75.328407 
C 285.494974 77.239543 286.254276 79.072662 287.605653 80.424039 
C 288.957031 81.775416 290.790149 82.534719 292.701285 82.534719 
z
" style="fill:#0d6efd;stroke:#0d6efd;"/>
    <path clip-path="url(#pa38cd91fc9)" d="M 113.703833 140.728699 
C 114.684376 140.728699 115.624891 140.339125 116.318239 139.645776 
C 117.011588 138.952428 117.401162 138.011913 117.401162 137.03137 
C 117.401162 136.050827 117.011588 135.110312 116.318239 134.416963 
C 115.624891 133.723614 114.684376 133.33404 113.703833 133.33404 
C 112.72329 133.33404 111.782775 133.723614 111.089426 134.416963 
C 110.396078 135.110312 110.006504 136.050827 110.006504 137.03137 
C 110.006504 138.011913 110.396078 138.952428 111.089426 139.645776 
C 111.782775 140.339125 112.72329 140.728699 113.703833 140.728699 
z
" style="fill:#0d6efd;stroke:#0d6efd;"/>
    <path clip-path="url(#pa38cd91fc9)" d="M 136.597391 179.761214 
C 138.755867 179.761214 140.826227 178.903643 142.3525 177.37737 
C 143.878773 175.851097 144.736344 173.780737 144.736344 171.622261 
C 144.736344 169.463786 143.878773 167.393425 142.3525 165.867153 
C 140.826227 164.34088 138.755867 163.483308 136.597391 163.483308 
C 134.438916 163.483308 132.368555 164.34088 130.842283 165.867153 
C 129.31601 167.393425 128.458439 169.463786 128.458439 171.622261 
C 128.458439 173.780737 129.31601 175.851097 130.842283 177.37737 
C 132.368555 178.903643 134.438916 179.761214 136.597391 179.761214 
z
" style="fill:#0d6efd;stroke:#0d6efd;"/>
    <path clip-path="url(#pa38cd91fc9)" d="M 44.687603 148.877911 
C 46.264571 148.877911 47.777162 148.251375 48.892246 147.136291 
C 50.007331 146.021207 50.633866 144.508615 50.633866 142.931648 
C 50.633866 141.354681 50.007331 139.84209 48.892246 138.727005 
C 47.777162 137.611921 46.264571 136.985385 44.687603 136.985385 
C 43.110636 136.985385 41.598045 137.611921 40.48296 138.727005 
C 39.367876 139.84209 38.74134 141.354681 38.74134 142.931648 
C 38.74134 144.508615 39.367876 146.021207 40.48296 147.136291 
C 41.598045 148.251375 43.110636 148.877911 44.687603 148.877911 
z
" style="fill:#0d6efd;stroke:#0d6efd;"/>
    <path clip-path="url(#pa38cd91fc9)" d="M 86.869058 188.088703 
C 88.527358 188.088703 90.117961 187.429854 91.290556 186.257259 
C 92.463151 185.084664 93.122 183.49406 93.122 181.835761 
C 93.122 180.177461 92.463151 178.586858 91.290556 177.414263 
C 90.117961 176.241668 88.527358 175.582818 86.869058 175.582818 
C 85.210758 175.582818 83.620155 176.241668 82.44756 177.414263 
C 81.274965 178.586858 80.616115 180.177461 80.616115 181.835761 
C 80.616115 183.49406 81.274965 185.084664 82.44756 186.257259 
C 83.620155 187.429854 85.210758 188.088703 86.869058 188.088703 
z
" style="fill:#0d6efd;stroke:#0d6efd;"/>
    <path clip-path="url(#pa38cd91fc9)" d="M 378.949933 70.060955 
C 380.60081 70.060955 382.184294 69.405055 383.35164 68.237708 
C 384.518987 67.070362 385.174887 65.486878 385.174887 63.836001 
C 385.174887 62.185124 384.518987 60.60164 383.35164 59.434293 
C 382.184294 58.266947 380.60081 57.611046 378.949933 57.611046 
C 377.299056 57.611046 375.715572 58.266947 374.548225 59.434293 
C 373.380879 60.60164 372.724978 62.185124 372.724978 63.836001 
C 372.724978 65.486878 373.380879 67.070362 374.548225 68.237708 
C 375.715572 69.405055 377.299056 70.060955 378.949933 70.060955 
z
" style="fill:#0d6efd;stroke:#0d6efd;"/>
    <path clip-path="url(#pa38cd91fc9)" d="M 376.096264 91.592967 
C 378.380455 91.592967 380.5714 90.685448 382.186567 89.07028 
C 383.801734 87.455113 384.709253 85.264169 384.709253 82.979977 
C 384.709253 80.695786 383.801734 78.504842 382.186567 76.889674 
C 380.5714 75.274507 378.380455 74.366988 376.096264 74.366988 
C 373.812073 74.366988 371.621128 75.274507 370.005961 76.889674 
C 368.390794 78.504842 367.483275 80.695786 367.483275 82.979977 
C 367.483275 85.264169 368.390794 87.455113 370.005961 89.07028 
C 371.621128 90.685448 373.812073 91.592967 376.096264 91.592967 
z
" style="fill:#0d6efd;stroke:#0d6efd;"/>
    <path clip-path="url(#pa38cd91fc9)" d="M 167.585441 199.020647 
C 169.588289 199.020647 171.509374 198.224907 172.925601 196.80868 
C 174.341828 195.392453 175.137568 193.471367 175.137568 191.46852 
C 175.137568 189.465673 174.341828 187.544587 172.925601 186.12836 
C 171.509374 184.712133 169.588289 183.916394 167.585441 183.916394 
C 165.582594 183.916394 163.661508 184.712133 162.245281 186.12836 
C 160.829054 187.544587 160.033315 189.465673 160.033315 191.46852 
C 160.033315 193.471367 160.829054 195.392453 162.245281 196.80868 
C 163.661508 198.224907 165.582594 199.020647 167.585441 199.020647 
z
" style="fill:#0d6efd;stroke:#0d6efd;"/>
    <path clip-path="url(#pa38cd91fc9)" d="M 186.421616 238.319637 
C 188.498041 238.319637 190.489701 237.494664 191.957955 236.02641 
C 193.426209 234.558156 194.251182 232.566496 194.251182 230.49007 
C 194.251182 228.413645 193.426209 226.421985 191.957955 224.953731 
C 190.489701 223.485476 188.498041 222.660504 186.421616 222.660504 
C 184.34519 222.660504 182.35353 223.485476 180.885276 224.953731 
C 179.417022 226.421985 178.592049 228.413645 178.592049 230.49007 
C 178.592049 232.566496 179.417022 234.558156 180.885276 236.02641 
C 182.35353 237.494664 184.34519 238.319637 186.421616 238.319637 
z
" style="fill:#0d6efd;stroke:#0d6efd;"/>
    <path clip-path="url(#pa38cd91fc9)" d="M 353.60686 103.619827 
C 355.059262 103.619827 356.452373 103.042781 357.479376 102.015778 
C 358.506379 100.988775 359.083424 99.595665 359.083424 98.143263 
C 359.083424 96.690861 358.506379 95.29775 357.479376 94.270747 
C 356.452373 93.243744 355.059262 92.666699 353.60686 92.666699 
C 352.154459 92.666699 350.761348 93.243744 349.734345 94.270747 
C 348.707342 95.29775 348.130296 96.690861 348.130296 98.143263 
C 348.130296 99.595665 348.707342 100.988775 349.734345 102.015778 
C 350.761348 103.042781 352.154459 103.619827 353.60686 103.619827 
z
" style="fill:#0d6efd;stroke:#0d6efd;"/>
    <path clip-path="url(#pa38cd91fc9)" d="M 102.721518 174.885014 
C 103.928699 174.885014 105.086599 174.405396 105.940205 173.551791 
C 106.79381 172.698185 107.273428 171.540285 107.273428 170.333104 
C 107.273428 169.125923 106.79381 167.968023 105.940205 167.114417 
C 105.086599 166.260811 103.928699 165.781193 102.721518 165.781193 
C 101.514337 165.781193 100.356437 166.260811 99.502831 167.114417 
C 98.649225 167.968023 98.169607 169.125923 98.169607 170.333104 
C 98.169607 171.540285 98.649225 172.698185 99.502831 173.551791 
C 100.356437 174.405396 101.514337 174.885014 102.721518 174.885014 
z
" style="fill:#0d6efd;stroke:#0d6efd;"/>
    <path clip-path="url(#pa38cd91fc9)" d="M 100.838364 149.268639 
C 101.811527 149.268639 102.744964 148.881997 103.433094 148.193867 
C 104.121225 147.505736 104.507867 146.5723 104.507867 145.599136 
C 104.507867 144.625972 104.121225 143.692536 103.433094 143.004405 
C 102.744964 142.316275 101.811527 141.929633 100.838364 141.929633 
C 99.8652 141.929633 98.931764 142.316275 98.243633 143.004405 
C 97.555503 143.692536 97.168861 144.625972 97.168861 145.599136 
C 97.168861 146.5723 97.555503 147.505736 98.243633 148.193867 
C 98.931764 148.881997 99.8652 149.268639 100.838364 149.268639 
z
" style="fill:#0d6efd;stroke:#0d6efd;"/>
    <path clip-path="url(#pa38cd91fc9)" d="M 178.72521 183.528774 
C 180.134316 183.528774 181.485898 182.968931 182.482286 181.972543 
C 183.478674 180.976155 184.038517 179.624573 184.038517 178.215467 
C 184.038517 176.806362 183.478674 175.45478 182.482286 174.458392 
C 181.485898 173.462004 180.134316 172.90216 178.72521 172.90216 
C 177.316105 172.90216 175.964523 173.462004 174.968135 174.458392 
C 173.971747 175.45478 173.411903 176.806362 173.411903 178.215467 
C 173.411903 179.624573 173.971747 180.976155 174.968135 181.972543 
C 175.964523 182.968931 177.316105 183.528774 178.72521 183.528774 
z
" style="fill:#0d6efd;stroke:#0d6efd;"/>
    <path clip-path="url(#pa38cd91fc9)" d="M 341.092701 113.069403 
C 342.325586 113.069403 343.508142 112.579572 344.379923 111.707791 
C 345.251705 110.836009 345.741535 109.653454 345.741535 108.420568 
C 345.741535 107.187683 345.251705 106.005128 344.379923 105.133346 
C 343.508142 104.261564 342.325586 103.771734 341.092701 103.771734 
C 339.859816 103.771734 338.67726 104.261564 337.805479 105.133346 
C 336.933697 106.005128 336.443867 107.187683 336.443867 108.420568 
C 336.443867 109.653454 336.933697 110.836009 337.805479 111.707791 
C 338.67726 112.579572 339.859816 113.069403 341.092701 113.069403 
z
" style="fill:#0d6efd;stroke:#0d6efd;"/>
    <path clip-path="url(#pa38cd91fc9)" d="M 357.989173 35.535437 
C 358.875933 35.535437 359.726493 35.183124 360.353527 34.55609 
C 360.980561 33.929056 361.332875 33.078496 361.332875 32.191736 
C 361.332875 31.304976 360.980561 30.454416 360.353527 29.827382 
C 359.726493 29.200347 358.875933 28.848034 357.989173 28.848034 
C 357.102413 28.848034 356.251853 29.200347 355.624819 29.827382 
C 354.997785 30.454416 354.645472 31.304976 354.645472 32.191736 
C 354.645472 33.078496 354.997785 33.929056 355.624819 34.55609 
C 356.251853 35.183124 357.102413 35.535437 357.989173 35.535437 
z
" style="fill:#0d6efd;stroke:#0d6efd;"/>
    <path clip-path="url(#pa38cd91fc9)" d="M 356.82707 56.852074 
C 358.398111 56.852074 359.905018 56.227893 361.015912 55.116999 
C 362.126805 54.006106 362.750987 52.499199 362.750987 50.928158 
C 362.750987 49.357117 362.126805 47.85021 361.015912 46.739316 
C 359.905018 45.628423 358.398111 45.004241 356.82707 45.004241 
C 355.256029 45.004241 353.749122 45.628423 352.638229 46.739316 
C 351.527335 47.85021 350.903154 49.357117 350.903154 50.928158 
C 350.903154 52.499199 351.527335 54.006106 352.638229 55.116999 
C 353.749122 56.227893 355.256029 56.852074 356.82707 56.852074 
z
" style="fill:#0d6efd;stroke:#0d6efd;"/>
    <path clip-path="url(#pa38cd91fc9)" d="M 156.826673 211.03097 
C 157.713434 211.03097 158.563994 210.678657 159.191028 210.051623 
C 159.818062 209.424589 160.170375 208.574029 160.170375 207.687269 
C 160.170375 206.800509 159.818062 205.949949 159.191028 205.322915 
C 158.563994 204.695881 157.713434 204.343567 156.826673 204.343567 
C 155.939913 204.343567 155.089353 204.695881 154.462319 205.322915 
C 153.835285 205.949949 153.482972 206.800509 153.482972 207.687269 
C 153.482972 208.574029 153.835285 209.424589 154.462319 210.051623 
C 155.089353 210.678657 155.939913 211.03097 156.826673 211.03097 
z
" style="fill:#0d6efd;stroke:#0d6efd;"/>
    <path clip-path="url(#pa38cd91fc9)" d="M 157.28169 278.02088 
C 159.35362 278.02088 161.340968 277.197694 162.806044 275.732618 
C 164.271119 274.267542 165.094306 272.280194 165.094306 270.208264 
C 165.094306 268.136335 164.271119 266.148987 162.806044 264.683911 
C 161.340968 263.218835 159.35362 262.395649 157.28169 262.395649 
C 155.20976 262.395649 153.222412 263.218835 151.757337 264.683911 
C 150.292261 266.148987 149.469074 268.136335 149.469074 270.208264 
C 149.469074 272.280194 150.292261 274.267542 151.757337 275.732618 
C 153.222412 277.197694 155.20976 278.02088 157.28169 278.02088 
z
" style="fill:#0d6efd;stroke:#0d6efd;"/>
    <path clip-path="url(#pa38cd91fc9)" d="M 209.302791 245.023687 
C 210.812711 245.023687 212.260991 244.423789 213.328665 243.356115 
C 214.39634 242.288441 214.996237 240.840161 214.996237 239.330241 
C 214.996237 237.820322 214.39634 236.372041 213.328665 235.304367 
C 212.260991 234.236693 210.812711 233.636795 209.302791 233.636795 
C 207.792872 233.636795 206.344592 234.236693 205.276917 235.304367 
C 204.209243 236.372041 203.609346 237.820322 203.609346 239.330241 
C 203.609346 240.840161 204.209243 242.288441 205.276917 243.356115 
C 206.344592 244.423789 207.792872 245.023687 209.302791 245.023687 
z
" style="fill:#0d6efd;stroke:#0d6efd;"/>
    <path clip-path="url(#pa38cd91fc9)" d="M 179.756894 270.628302 
C 181.612821 270.628302 183.392985 269.890934 184.705324 268.578595 
C 186.017663 267.266256 186.75503 265.486093 186.75503 263.630165 
C 186.75503 261.774238 186.017663 259.994074 184.705324 258.681736 
C 183.392985 257.369397 181.612821 256.632029 179.756894 256.632029 
C 177.900966 256.632029 176.120803 257.369397 174.808464 258.681736 
C 173.496125 259.994074 172.758757 261.774238 172.758757 263.630165 
C 172.758757 265.486093 173.496125 267.266256 174.808464 268.578595 
C 176.120803 269.890934 177.900966 270.628302 179.756894 270.628302 
z
" style="fill:#0d6efd;stroke:#0d6efd;"/>
    <path clip-path="url(#pa38cd91fc9)" d="M 401.712397 78.407983 
C 403.536541 78.407983 405.286218 77.683243 406.576082 76.393379 
C 407.865947 75.103514 408.590687 73.353837 408.590687 71.529693 
C 408.590687 69.705549 407.865947 67.955872 406.576082 66.666007 
C 405.286218 65.376143 403.536541 64.651402 401.712397 64.651402 
C 399.888253 64.651402 398.138575 65.376143 396.848711 66.666007 
C 395.558846 67.955872 394.834106 69.705549 394.834106 71.529693 
C 394.834106 73.353837 395.558846 75.103514 396.848711 76.393379 
C 398.138575 77.683243 399.888253 78.407983 401.712397 78.407983 
z
" style="fill:#0d6efd;stroke:#0d6efd;"/>
    <path clip-path="url(#pa38cd91fc9)" d="M 390.492012 106.845436 
C 392.094788 106.845436 393.632135 106.208646 394.765469 105.075312 
C 395.898803 103.941977 396.535593 102.404631 396.535593 100.801854 
C 396.535593 99.199078 395.898803 97.661731 394.765469 96.528397 
C 393.632135 95.395063 392.094788 94.758273 390.492012 94.758273 
C 388.889235 94.758273 387.351888 95.395063 386.218554 96.528397 
C 385.08522 97.661731 384.44843 99.199078 384.44843 100.801854 
C 384.44843 102.404631 385.08522 103.941977 386.218554 105.075312 
C 387.351888 106.208646 388.889235 106.845436 390.492012 106.845436 
z
" style="fill:#0d6efd;stroke:#0d6efd;"/>
    <path clip-path="url(#pa38cd91fc9)" d="M 158.032338 241.388209 
C 159.845068 241.388209 161.583796 240.668003 162.86559 239.38621 
C 164.147383 238.104417 164.867588 236.365688 164.867588 234.552958 
C 164.867588 232.740228 164.147383 231.0015 162.86559 229.719706 
C 161.583796 228.437913 159.845068 227.717708 158.032338 227.717708 
C 156.219608 227.717708 154.480879 228.437913 153.199086 229.719706 
C 151.917293 231.0015 151.197087 232.740228 151.197087 234.552958 
C 151.197087 236.365688 151.917293 238.104417 153.199086 239.38621 
C 154.480879 240.668003 156.219608 241.388209 158.032338 241.388209 
z
" style="fill:#0d6efd;stroke:#0d6efd;"/>
    <path clip-path="url(#pa38cd91fc9)" d="M 107.498905 160.660635 
C 108.766243 160.660635 109.981845 160.157116 110.877989 159.260973 
C 111.774132 158.364829 112.277651 157.149227 112.277651 155.881889 
C 112.277651 154.614551 111.774132 153.398949 110.877989 152.502806 
C 109.981845 151.606662 108.766243 151.103144 107.498905 151.103144 
C 106.231567 151.103144 105.015965 151.606662 104.119822 152.502806 
C 103.223678 153.398949 102.72016 154.614551 102.72016 155.881889 
C 102.72016 157.149227 103.223678 158.364829 104.119822 159.260973 
C 105.015965 160.157116 106.231567 160.660635 107.498905 160.660635 
z
" style="fill:#0d6efd;stroke:#0d6efd;"/>
    <path clip-path="url(#pa38cd91fc9)" d="M 325.606529 82.595197 
C 326.493289 82.595197 327.343849 82.242884 327.970883 81.61585 
C 328.597917 80.988816 328.950231 80.138256 328.950231 79.251496 
C 328.950231 78.364736 328.597917 77.514176 327.970883 76.887142 
C 327.343849 76.260108 326.493289 75.907794 325.606529 75.907794 
C 324.719769 75.907794 323.869209 76.260108 323.242175 76.887142 
C 322.615141 77.514176 322.262827 78.364736 322.262827 79.251496 
C 322.262827 80.138256 322.615141 80.988816 323.242175 81.61585 
C 323.869209 82.242884 324.719769 82.595197 325.606529 82.595197 
z
" style="fill:#0d6efd;stroke:#0d6efd;"/>
    <path clip-path="url(#pa38cd91fc9)" d="M 344.700102 88.106408 
C 346.657375 88.106408 348.534747 87.328775 349.918748 85.944774 
C 351.302749 84.560773 352.080382 82.683401 352.080382 80.726128 
C 352.080382 78.768855 351.302749 76.891483 349.918748 75.507482 
C 348.534747 74.12348 346.657375 73.345848 344.700102 73.345848 
C 342.742829 73.345848 340.865457 74.12348 339.481456 75.507482 
C 338.097455 76.891483 337.319822 78.768855 337.319822 80.726128 
C 337.319822 82.683401 338.097455 84.560773 339.481456 85.944774 
C 340.865457 87.328775 342.742829 88.106408 344.700102 88.106408 
z
" style="fill:#0d6efd;stroke:#0d6efd;"/>
    <path clip-path="url(#pa38cd91fc9)" d="M 317.625999 65.462388 
C 318.986146 65.462388 320.290768 64.921996 321.252537 63.960227 
C 322.214306 62.998458 322.754698 61.693836 322.754698 60.333689 
C 322.754698 58.973542 322.214306 57.66892 321.252537 56.707151 
C 320.290768 55.745382 318.986146 55.20499 317.625999 55.20499 
C 316.265852 55.20499 314.96123 55.745382 313.999461 56.707151 
C 313.037692 57.66892 312.4973 58.973542 312.4973 60.333689 
C 312.4973 61.693836 313.037692 62.998458 313.999461 63.960227 
C 314.96123 64.921996 316.265852 65.462388 317.625999 65.462388 
z
" style="fill:#0d6efd;stroke:#0d6efd;"/>
    <path clip-path="url(#pa38cd91fc9)" d="M 82.150605 169.518156 
C 83.891361 169.518156 85.561055 168.826546 86.791956 167.595646 
C 88.022857 166.364745 88.714467 164.695051 88.714467 162.954294 
C 88.714467 161.213538 88.022857 159.543844 86.791956 158.312943 
C 85.561055 157.082042 83.891361 156.390432 82.150605 156.390432 
C 80.409848 156.390432 78.740154 157.082042 77.509253 158.312943 
C 76.278353 159.543844 75.586743 161.213538 75.586743 162.954294 
C 75.586743 164.695051 76.278353 166.364745 77.509253 167.595646 
C 78.740154 168.826546 80.409848 169.518156 82.150605 169.518156 
z
" style="fill:#0d6efd;stroke:#0d6efd;"/>
    <path clip-path="url(#pa38cd91fc9)" d="M 146.218154 149.333429 
C 147.698356 149.333429 149.118131 148.745339 150.164791 147.698678 
C 151.211452 146.652018 151.799542 145.232242 151.799542 143.752041 
C 151.799542 142.271839 151.211452 140.852064 150.164791 139.805403 
C 149.118131 138.758743 147.698356 138.170653 146.218154 138.170653 
C 144.737953 138.170653 143.318177 138.758743 142.271517 139.805403 
C 141.224856 140.852064 140.636766 142.271839 140.636766 143.752041 
C 140.636766 145.232242 141.224856 146.652018 142.271517 147.698678 
C 143.318177 148.745339 144.737953 149.333429 146.218154 149.333429 
z
" style="fill:#0d6efd;stroke:#0d6efd;"/>
    <path clip-path="url(#pa38cd91fc9)" d="M 233.673661 206.72283 
C 235.138712 206.72283 236.543956 206.140759 237.579904 205.104811 
C 238.615851 204.068863 239.197922 202.66362 239.197922 201.198569 
C 239.197922 199.733517 238.615851 198.328274 237.579904 197.292326 
C 236.543956 196.256379 235.138712 195.674308 233.673661 195.674308 
C 232.20861 195.674308 230.803367 196.256379 229.767419 197.292326 
C 228.731471 198.328274 228.1494 199.733517 228.1494 201.198569 
C 228.1494 202.66362 228.731471 204.068863 229.767419 205.104811 
C 230.803367 206.140759 232.20861 206.72283 233.673661 206.72283 
z
" style="fill:#0d6efd;stroke:#0d6efd;"/>
    <path clip-path="url(#pa38cd91fc9)" d="M 258.011762 156.614347 
C 259.162922 156.614347 260.26709 156.156986 261.081083 155.342993 
C 261.895077 154.528999 262.352438 153.424832 262.352438 152.273671 
C 262.352438 151.12251 261.895077 150.018343 261.081083 149.204349 
C 260.26709 148.390356 259.162922 147.932995 258.011762 147.932995 
C 256.860601 147.932995 255.756433 148.390356 254.94244 149.204349 
C 254.128446 150.018343 253.671085 151.12251 253.671085 152.273671 
C 253.671085 153.424832 254.128446 154.528999 254.94244 155.342993 
C 255.756433 156.156986 256.860601 156.614347 258.011762 156.614347 
z
" style="fill:#0d6efd;stroke:#0d6efd;"/>
    <path clip-path="url(#pa38cd91fc9)" d="M 166.379033 134.576679 
C 167.265793 134.576679 168.116353 134.224365 168.743387 133.597331 
C 169.370421 132.970297 169.722734 132.119737 169.722734 131.232977 
C 169.722734 130.346217 169.370421 129.495657 168.743387 128.868623 
C 168.116353 128.241589 167.265793 127.889276 166.379033 127.889276 
C 165.492273 127.889276 164.641713 128.241589 164.014679 128.868623 
C 163.387645 129.495657 163.035331 130.346217 163.035331 131.232977 
C 163.035331 132.119737 163.387645 132.970297 164.014679 133.597331 
C 164.641713 134.224365 165.492273 134.576679 166.379033 134.576679 
z
" style="fill:#0d6efd;stroke:#0d6efd;"/>
   </g>
   <g id="text_1">
    <g clip-path="url(#pa38cd91fc9)">
     <!-- й -->
     <g style="fill:#ffffff;" transform="translate(224.358525 57.623792)scale(0.07 -0.07)">
      <defs>
       <path d="M 422 3319 
L 984 3319 
L 984 788 
L 2544 3319 
L 3150 3319 
L 3150 0 
L 2588 0 
L 2588 2516 
L 1028 0 
L 422 0 
L 422 3319 
z
M 2374 4575 
L 2759 4575 
Q 2712 4184 2473 3975 
Q 2234 3766 1837 3766 
Q 1437 3766 1198 3973 
Q 959 4181 912 4575 
L 1296 4575 
Q 1340 4363 1469 4258 
Q 1599 4153 1818 4153 
Q 2071 4153 2201 4254 
Q 2331 4356 2374 4575 
z
" id="ArialMT-439" transform="scale(0.015625)"/>
      </defs>
      <use xlink:href="#ArialMT-439"/>
     </g>
    </g>
   </g>
   <g id="text_2">
    <g clip-path="url(#pa38cd91fc9)">
     <!-- с -->
     <g style="fill:#ffffff;" transform="translate(290.951285 77.138017)scale(0.07 -0.07)">
      <defs>
       <path d="M 2588 1216 
L 3141 1144 
Q 3050 572 2676 248 
Q 2303 -75 1759 -75 
Q 1078 -75 664 370 
Q 250 816 250 1647 
Q 250 2184 428 2587 
Q 606 2991 970 3192 
Q 1334 3394 1763 3394 
Q 2303 3394 2647 3120 
Q 2991 2847 3088 2344 
L 2541 2259 
Q 2463 2594 2264 2762 
Q 2066 2931 1784 2931 
Q 1359 2931 1093 2626 
Q 828 2322 828 1663 
Q 828 994 1084 691 
Q 1341 388 1753 388 
Q 2084 388 2306 591 
Q 2528 794 2588 1216 
z
" id="ArialMT-441" transform="scale(0.015625)"/>
      </defs>
      <use xlink:href="#ArialMT-441"/>
     </g>
    </g>
   </g>
   <g id="text_3">
    <g clip-path="url(#pa38cd91fc9)">
     <!-- ц -->
     <g style="fill:#ffffff;" transform="translate(111.698989 138.840979)scale(0.07 -0.07)">
      <defs>
       <path d="M 431 3319 
L 994 3319 
L 994 463 
L 2550 463 
L 2550 3319 
L 3113 3319 
L 3113 463 
L 3475 463 
L 3475 -941 
L 3013 -941 
L 3013 0 
L 431 0 
L 431 3319 
z
" id="ArialMT-446" transform="scale(0.015625)"/>
      </defs>
      <use xlink:href="#ArialMT-446"/>
     </g>
    </g>
   </g>
   <g id="text_4">
    <g clip-path="url(#pa38cd91fc9)">
     <!-- е -->
     <g style="fill:#ffffff;" transform="translate(134.651063 173.431871)scale(0.07 -0.07)">
      <defs>
       <path d="M 2694 1069 
L 3275 997 
Q 3138 488 2766 206 
Q 2394 -75 1816 -75 
Q 1088 -75 661 373 
Q 234 822 234 1631 
Q 234 2469 665 2931 
Q 1097 3394 1784 3394 
Q 2450 3394 2872 2941 
Q 3294 2488 3294 1666 
Q 3294 1616 3291 1516 
L 816 1516 
Q 847 969 1125 678 
Q 1403 388 1819 388 
Q 2128 388 2347 550 
Q 2566 713 2694 1069 
z
M 847 1978 
L 2700 1978 
Q 2663 2397 2488 2606 
Q 2219 2931 1791 2931 
Q 1403 2931 1139 2672 
Q 875 2413 847 1978 
z
" id="ArialMT-435" transform="scale(0.015625)"/>
      </defs>
      <use xlink:href="#ArialMT-435"/>
     </g>
    </g>
   </g>
   <g id="text_5">
    <g clip-path="url(#pa38cd91fc9)">
     <!-- у -->
     <g style="fill:#ffffff;" transform="translate(42.937603 144.659226)scale(0.07 -0.07)">
      <defs>
       <path d="M 397 -1278 
L 334 -750 
Q 519 -800 656 -800 
Q 844 -800 956 -737 
Q 1069 -675 1141 -563 
Q 1194 -478 1313 -144 
Q 1328 -97 1363 -6 
L 103 3319 
L 709 3319 
L 1400 1397 
Q 1534 1031 1641 628 
Q 1738 1016 1872 1384 
L 2581 3319 
L 3144 3319 
L 1881 -56 
Q 1678 -603 1566 -809 
Q 1416 -1088 1222 -1217 
Q 1028 -1347 759 -1347 
Q 597 -1347 397 -1278 
z
" id="ArialMT-443" transform="scale(0.015625)"/>
      </defs>
      <use xlink:href="#ArialMT-443"/>
     </g>
    </g>
   </g>
   <g id="text_6">
    <g clip-path="url(#pa38cd91fc9)">
     <!-- д -->
     <g style="fill:#ffffff;" transform="translate(84.827027 183.64537)scale(0.07 -0.07)">
      <defs>
       <path d="M 866 3319 
L 3178 3319 
L 3178 463 
L 3538 463 
L 3538 -941 
L 3075 -941 
L 3075 0 
L 463 0 
L 463 -941 
L 0 -941 
L 0 463 
L 297 463 
Q 891 1269 866 3319 
z
M 1334 2853 
Q 1272 1238 834 463 
L 2619 463 
L 2619 2853 
L 1334 2853 
z
" id="ArialMT-434" transform="scale(0.015625)"/>
      </defs>
      <use xlink:href="#ArialMT-434"/>
     </g>
    </g>
   </g>
   <g id="text_7">
    <g clip-path="url(#pa38cd91fc9)">
     <!-- к -->
     <g style="fill:#ffffff;" transform="translate(377.418683 65.64561)scale(0.07 -0.07)">
      <defs>
       <path d="M 419 3319 
L 981 3319 
L 981 1884 
Q 1250 1884 1358 1987 
Q 1466 2091 1675 2588 
Q 1841 2981 1944 3106 
Q 2047 3231 2181 3275 
Q 2316 3319 2613 3319 
L 2725 3319 
L 2725 2853 
L 2569 2856 
Q 2347 2856 2284 2791 
Q 2219 2722 2084 2381 
Q 1956 2056 1850 1931 
Q 1744 1806 1522 1703 
Q 1884 1606 2234 1028 
L 2850 0 
L 2231 0 
L 1631 1028 
Q 1447 1338 1309 1436 
Q 1172 1534 981 1534 
L 981 0 
L 419 0 
L 419 3319 
z
" id="ArialMT-43a" transform="scale(0.015625)"/>
      </defs>
      <use xlink:href="#ArialMT-43a"/>
     </g>
    </g>
   </g>
   <g id="text_8">
    <g clip-path="url(#pa38cd91fc9)">
     <!-- о -->
     <g style="fill:#ffffff;" transform="translate(374.149936 84.789587)scale(0.07 -0.07)">
      <defs>
       <path d="M 213 1659 
Q 213 2581 725 3025 
Q 1153 3394 1769 3394 
Q 2453 3394 2887 2945 
Q 3322 2497 3322 1706 
Q 3322 1066 3130 698 
Q 2938 331 2570 128 
Q 2203 -75 1769 -75 
Q 1072 -75 642 372 
Q 213 819 213 1659 
z
M 791 1659 
Q 791 1022 1069 705 
Q 1347 388 1769 388 
Q 2188 388 2466 706 
Q 2744 1025 2744 1678 
Q 2744 2294 2464 2611 
Q 2184 2928 1769 2928 
Q 1347 2928 1069 2612 
Q 791 2297 791 1659 
z
" id="ArialMT-43e" transform="scale(0.015625)"/>
      </defs>
      <use xlink:href="#ArialMT-43e"/>
     </g>
    </g>
   </g>
   <g id="text_9">
    <g clip-path="url(#pa38cd91fc9)">
     <!-- н -->
     <g style="fill:#ffffff;" transform="translate(165.652785 193.27813)scale(0.07 -0.07)">
      <defs>
       <path d="M 425 3319 
L 988 3319 
L 988 1938 
L 2547 1938 
L 2547 3319 
L 3109 3319 
L 3109 0 
L 2547 0 
L 2547 1472 
L 988 1472 
L 988 0 
L 425 0 
L 425 3319 
z
" id="ArialMT-43d" transform="scale(0.015625)"/>
      </defs>
      <use xlink:href="#ArialMT-43d"/>
     </g>
    </g>
   </g>
   <g id="text_10">
    <g clip-path="url(#pa38cd91fc9)">
     <!-- а -->
     <g style="fill:#ffffff;" transform="translate(184.475287 232.29968)scale(0.07 -0.07)">
      <defs>
       <path d="M 2588 409 
Q 2275 144 1986 34 
Q 1697 -75 1366 -75 
Q 819 -75 525 192 
Q 231 459 231 875 
Q 231 1119 342 1320 
Q 453 1522 633 1644 
Q 813 1766 1038 1828 
Q 1203 1872 1538 1913 
Q 2219 1994 2541 2106 
Q 2544 2222 2544 2253 
Q 2544 2597 2384 2738 
Q 2169 2928 1744 2928 
Q 1347 2928 1158 2789 
Q 969 2650 878 2297 
L 328 2372 
Q 403 2725 575 2942 
Q 747 3159 1072 3276 
Q 1397 3394 1825 3394 
Q 2250 3394 2515 3294 
Q 2781 3194 2906 3042 
Q 3031 2891 3081 2659 
Q 3109 2516 3109 2141 
L 3109 1391 
Q 3109 606 3145 398 
Q 3181 191 3288 0 
L 2700 0 
Q 2613 175 2588 409 
z
M 2541 1666 
Q 2234 1541 1622 1453 
Q 1275 1403 1131 1340 
Q 988 1278 909 1158 
Q 831 1038 831 891 
Q 831 666 1001 516 
Q 1172 366 1500 366 
Q 1825 366 2078 508 
Q 2331 650 2450 897 
Q 2541 1088 2541 1459 
L 2541 1666 
z
" id="ArialMT-430" transform="scale(0.015625)"/>
      </defs>
      <use xlink:href="#ArialMT-430"/>
     </g>
    </g>
   </g>
   <g id="text_11">
    <g clip-path="url(#pa38cd91fc9)">
     <!-- г -->
     <g style="fill:#ffffff;" transform="translate(352.330454 99.952872)scale(0.07 -0.07)">
      <defs>
       <path d="M 425 3319 
L 2334 3319 
L 2334 2853 
L 988 2853 
L 988 0 
L 425 0 
L 425 3319 
z
" id="ArialMT-433" transform="scale(0.015625)"/>
      </defs>
      <use xlink:href="#ArialMT-433"/>
     </g>
    </g>
   </g>
   <g id="text_12">
    <g clip-path="url(#pa38cd91fc9)">
     <!-- ш -->
     <g style="fill:#ffffff;" transform="translate(99.913862 172.142713)scale(0.07 -0.07)">
      <defs>
       <path d="M 441 3319 
L 1003 3319 
L 1003 466 
L 2284 466 
L 2284 3319 
L 2847 3319 
L 2847 466 
L 4131 466 
L 4131 3319 
L 4691 3319 
L 4691 0 
L 441 0 
L 441 3319 
z
" id="ArialMT-448" transform="scale(0.015625)"/>
      </defs>
      <use xlink:href="#ArialMT-448"/>
     </g>
    </g>
   </g>
   <g id="text_13">
    <g clip-path="url(#pa38cd91fc9)">
     <!-- щ -->
     <g style="fill:#ffffff;" transform="translate(97.95852 147.408745)scale(0.07 -0.07)">
      <defs>
       <path d="M 441 3319 
L 1003 3319 
L 1003 463 
L 2284 463 
L 2284 3319 
L 2847 3319 
L 2847 463 
L 4131 463 
L 4131 3319 
L 4691 3319 
L 4691 463 
L 5063 463 
L 5063 -941 
L 4597 -941 
L 4597 0 
L 441 0 
L 441 3319 
z
" id="ArialMT-449" transform="scale(0.015625)"/>
      </defs>
      <use xlink:href="#ArialMT-449"/>
     </g>
    </g>
   </g>
   <g id="text_14">
    <g clip-path="url(#pa38cd91fc9)">
     <!-- з -->
     <g style="fill:#ffffff;" transform="translate(177.120679 180.025077)scale(0.07 -0.07)">
      <defs>
       <path d="M 1156 1500 
L 1156 1941 
Q 1513 1944 1642 1969 
Q 1772 1994 1887 2119 
Q 2003 2244 2003 2431 
Q 2003 2659 1851 2795 
Q 1700 2931 1459 2931 
Q 984 2931 794 2372 
L 259 2459 
Q 509 3394 1466 3394 
Q 1997 3394 2298 3103 
Q 2600 2813 2600 2409 
Q 2600 2003 2206 1763 
Q 2456 1628 2581 1420 
Q 2706 1213 2706 928 
Q 2706 481 2381 203 
Q 2056 -75 1472 -75 
Q 338 -75 156 934 
L 684 1047 
Q 756 728 976 553 
Q 1197 378 1481 378 
Q 1766 378 1955 539 
Q 2144 700 2144 950 
Q 2144 1144 2025 1287 
Q 1906 1431 1772 1467 
Q 1638 1503 1284 1503 
Q 1256 1503 1156 1500 
z
" id="ArialMT-437" transform="scale(0.015625)"/>
      </defs>
      <use xlink:href="#ArialMT-437"/>
     </g>
    </g>
   </g>
   <g id="text_15">
    <g clip-path="url(#pa38cd91fc9)">
     <!-- х -->
     <g style="fill:#ffffff;" transform="translate(339.342701 110.230178)scale(0.07 -0.07)">
      <defs>
       <path d="M 47 0 
L 1259 1725 
L 138 3319 
L 841 3319 
L 1350 2541 
Q 1494 2319 1581 2169 
Q 1719 2375 1834 2534 
L 2394 3319 
L 3066 3319 
L 1919 1756 
L 3153 0 
L 2463 0 
L 1781 1031 
L 1600 1309 
L 728 0 
L 47 0 
z
" id="ArialMT-445" transform="scale(0.015625)"/>
      </defs>
      <use xlink:href="#ArialMT-445"/>
     </g>
    </g>
   </g>
   <g id="text_16">
    <g clip-path="url(#pa38cd91fc9)">
     <!-- ъ -->
     <g style="fill:#ffffff;" transform="translate(355.801673 34.001345)scale(0.07 -0.07)">
      <defs>
       <path d="M 125 3319 
L 1609 3319 
L 1609 2022 
L 2325 2022 
Q 3084 2022 3428 1726 
Q 3772 1431 3772 1003 
Q 3772 559 3439 279 
Q 3106 0 2456 0 
L 1047 0 
L 1047 2853 
L 125 2853 
L 125 3319 
z
M 1609 456 
L 2200 456 
Q 2738 456 2963 586 
Q 3188 716 3188 1003 
Q 3188 1266 2995 1409 
Q 2803 1553 2275 1553 
L 1609 1553 
L 1609 456 
z
" id="ArialMT-44a" transform="scale(0.015625)"/>
      </defs>
      <use xlink:href="#ArialMT-44a"/>
     </g>
    </g>
   </g>
   <g id="text_17">
    <g clip-path="url(#pa38cd91fc9)">
     <!-- я -->
     <g style="fill:#ffffff;" transform="translate(354.931601 52.737767)scale(0.07 -0.07)">
      <defs>
       <path d="M 3034 3319 
L 3034 0 
L 2475 0 
L 2475 1294 
L 2150 1294 
Q 1853 1294 1708 1217 
Q 1563 1141 1284 725 
L 794 0 
L 97 0 
L 703 894 
Q 981 1303 1256 1356 
Q 775 1422 542 1703 
Q 309 1984 309 2350 
Q 309 2781 614 3050 
Q 919 3319 1497 3319 
L 3034 3319 
z
M 2475 2853 
L 1675 2853 
Q 1172 2853 1026 2697 
Q 881 2541 881 2331 
Q 881 2034 1095 1895 
Q 1309 1756 1853 1756 
L 2475 1756 
L 2475 2853 
z
" id="ArialMT-44f" transform="scale(0.015625)"/>
      </defs>
      <use xlink:href="#ArialMT-44f"/>
     </g>
    </g>
   </g>
   <g id="text_18">
    <g clip-path="url(#pa38cd91fc9)">
     <!-- ф -->
     <g style="fill:#ffffff;" transform="translate(153.94683 209.496878)scale(0.07 -0.07)">
      <defs>
       <path d="M 2353 4581 
L 2916 4581 
L 2916 2997 
Q 3091 3197 3300 3295 
Q 3509 3394 3750 3394 
Q 4341 3394 4686 2901 
Q 5031 2409 5031 1663 
Q 5031 884 4659 404 
Q 4288 -75 3734 -75 
Q 3553 -75 3365 -18 
Q 3178 38 2916 288 
L 2916 -1272 
L 2353 -1272 
L 2353 288 
Q 2184 106 1979 15 
Q 1775 -75 1538 -75 
Q 1016 -75 625 383 
Q 234 841 234 1694 
Q 234 2416 587 2905 
Q 941 3394 1538 3394 
Q 1788 3394 1991 3295 
Q 2194 3197 2353 2997 
L 2353 4581 
z
M 2913 1647 
Q 2913 897 3119 639 
Q 3325 381 3634 381 
Q 3978 381 4220 698 
Q 4463 1016 4463 1684 
Q 4463 2316 4239 2625 
Q 4016 2934 3666 2934 
Q 3291 2934 3102 2612 
Q 2913 2291 2913 1647 
z
M 806 1709 
Q 806 1006 1042 697 
Q 1278 388 1628 388 
Q 1994 388 2175 695 
Q 2356 1003 2356 1619 
Q 2356 2275 2165 2603 
Q 1975 2931 1591 2931 
Q 1244 2931 1025 2611 
Q 806 2291 806 1709 
z
" id="ArialMT-444" transform="scale(0.015625)"/>
      </defs>
      <use xlink:href="#ArialMT-444"/>
     </g>
    </g>
   </g>
   <g id="text_19">
    <g clip-path="url(#pa38cd91fc9)">
     <!-- и -->
     <g style="fill:#ffffff;" transform="translate(155.326612 272.017874)scale(0.07 -0.07)">
      <defs>
       <path d="M 422 3319 
L 984 3319 
L 984 788 
L 2544 3319 
L 3150 3319 
L 3150 0 
L 2588 0 
L 2588 2516 
L 1028 0 
L 422 0 
L 422 3319 
z
" id="ArialMT-438" transform="scale(0.015625)"/>
      </defs>
      <use xlink:href="#ArialMT-438"/>
     </g>
    </g>
   </g>
   <g id="text_20">
    <g clip-path="url(#pa38cd91fc9)">
     <!-- ы -->
     <g style="fill:#ffffff;" transform="translate(206.787166 241.13985)scale(0.07 -0.07)">
      <defs>
       <path d="M 3581 3319 
L 4144 3319 
L 4144 0 
L 3581 0 
L 3581 3319 
z
M 434 3319 
L 997 3319 
L 997 2022 
L 1709 2022 
Q 2406 2022 2782 1751 
Q 3159 1481 3159 1006 
Q 3159 591 2845 295 
Q 2531 0 1841 0 
L 434 0 
L 434 3319 
z
M 997 463 
L 1588 463 
Q 2122 463 2350 594 
Q 2578 725 2578 1003 
Q 2578 1219 2409 1387 
Q 2241 1556 1663 1556 
L 997 1556 
L 997 463 
z
" id="ArialMT-44b" transform="scale(0.015625)"/>
      </defs>
      <use xlink:href="#ArialMT-44b"/>
     </g>
    </g>
   </g>
   <g id="text_21">
    <g clip-path="url(#pa38cd91fc9)">
     <!-- л -->
     <g style="fill:#ffffff;" transform="translate(177.714862 265.439775)scale(0.07 -0.07)">
      <defs>
       <path d="M 697 3319 
L 3309 3319 
L 3309 0 
L 2750 0 
L 2750 2853 
L 1259 2853 
L 1259 1200 
Q 1259 622 1221 437 
Q 1184 253 1015 115 
Q 847 -22 528 -22 
Q 331 -22 75 3 
L 75 472 
L 322 472 
Q 497 472 572 508 
Q 647 544 672 622 
Q 697 700 697 1131 
L 697 3319 
z
" id="ArialMT-43b" transform="scale(0.015625)"/>
      </defs>
      <use xlink:href="#ArialMT-43b"/>
     </g>
    </g>
   </g>
   <g id="text_22">
    <g clip-path="url(#pa38cd91fc9)">
     <!-- в -->
     <g style="fill:#ffffff;" transform="translate(399.853022 73.339302)scale(0.07 -0.07)">
      <defs>
       <path d="M 425 3319 
L 1722 3319 
Q 2200 3319 2433 3239 
Q 2666 3159 2833 2946 
Q 3000 2734 3000 2438 
Q 3000 2200 2901 2023 
Q 2803 1847 2606 1728 
Q 2841 1650 2995 1436 
Q 3150 1222 3150 928 
Q 3119 456 2812 228 
Q 2506 0 1922 0 
L 425 0 
L 425 3319 
z
M 988 1922 
L 1588 1922 
Q 1947 1922 2081 1959 
Q 2216 1997 2322 2111 
Q 2428 2225 2428 2384 
Q 2428 2647 2242 2750 
Q 2056 2853 1606 2853 
L 988 2853 
L 988 1922 
z
M 988 463 
L 1728 463 
Q 2206 463 2384 573 
Q 2563 684 2572 956 
Q 2572 1116 2469 1252 
Q 2366 1388 2200 1423 
Q 2034 1459 1669 1459 
L 988 1459 
L 988 463 
z
" id="ArialMT-432" transform="scale(0.015625)"/>
      </defs>
      <use xlink:href="#ArialMT-432"/>
     </g>
    </g>
   </g>
   <g id="text_23">
    <g clip-path="url(#pa38cd91fc9)">
     <!-- п -->
     <g style="fill:#ffffff;" transform="translate(388.596543 102.611464)scale(0.07 -0.07)">
      <defs>
       <path d="M 425 3319 
L 3044 3319 
L 3044 0 
L 2481 0 
L 2481 2853 
L 988 2853 
L 988 0 
L 425 0 
L 425 3319 
z
" id="ArialMT-43f" transform="scale(0.015625)"/>
      </defs>
      <use xlink:href="#ArialMT-43f"/>
     </g>
    </g>
   </g>
   <g id="text_24">
    <g clip-path="url(#pa38cd91fc9)">
     <!-- р -->
     <g style="fill:#ffffff;" transform="translate(156.08601 236.362567)scale(0.07 -0.07)">
      <defs>
       <path d="M 422 -1272 
L 422 3319 
L 934 3319 
L 934 2888 
Q 1116 3141 1344 3267 
Q 1572 3394 1897 3394 
Q 2322 3394 2647 3175 
Q 2972 2956 3137 2557 
Q 3303 2159 3303 1684 
Q 3303 1175 3120 767 
Q 2938 359 2589 142 
Q 2241 -75 1856 -75 
Q 1575 -75 1351 44 
Q 1128 163 984 344 
L 984 -1272 
L 422 -1272 
z
M 931 1641 
Q 931 1000 1190 694 
Q 1450 388 1819 388 
Q 2194 388 2461 705 
Q 2728 1022 2728 1688 
Q 2728 2322 2467 2637 
Q 2206 2953 1844 2953 
Q 1484 2953 1207 2617 
Q 931 2281 931 1641 
z
" id="ArialMT-440" transform="scale(0.015625)"/>
      </defs>
      <use xlink:href="#ArialMT-440"/>
     </g>
    </g>
   </g>
   <g id="text_25">
    <g clip-path="url(#pa38cd91fc9)">
     <!-- ж -->
     <g style="fill:#ffffff;" transform="translate(105.157733 157.691499)scale(0.07 -0.07)">
      <defs>
       <path d="M 2428 3319 
L 2428 1884 
Q 2697 1884 2806 1987 
Q 2916 2091 3125 2588 
Q 3322 3059 3478 3191 
Q 3631 3319 3966 3319 
L 4172 3319 
L 4172 2853 
L 4019 2856 
Q 3794 2856 3731 2791 
Q 3666 2722 3531 2381 
Q 3406 2056 3300 1931 
Q 3194 1806 2969 1703 
Q 3334 1606 3681 1028 
L 4300 0 
L 3681 0 
L 3078 1028 
Q 2894 1341 2756 1437 
Q 2619 1534 2428 1534 
L 2428 0 
L 1853 0 
L 1853 1534 
Q 1666 1534 1528 1439 
Q 1391 1344 1206 1028 
L 603 0 
L -16 0 
L 600 1028 
Q 950 1606 1316 1703 
Q 1066 1819 966 1955 
Q 866 2091 666 2603 
Q 597 2775 519 2816 
Q 438 2856 278 2856 
Q 238 2856 113 2853 
L 113 3319 
L 191 3319 
Q 516 3319 648 3280 
Q 781 3241 886 3114 
Q 991 2988 1159 2588 
Q 1366 2097 1473 1990 
Q 1581 1884 1853 1884 
L 1853 3319 
L 2428 3319 
z
" id="ArialMT-436" transform="scale(0.015625)"/>
      </defs>
      <use xlink:href="#ArialMT-436"/>
     </g>
    </g>
   </g>
   <g id="text_26">
    <g clip-path="url(#pa38cd91fc9)">
     <!-- э -->
     <g style="fill:#ffffff;" transform="translate(323.820435 81.061105)scale(0.07 -0.07)">
      <defs>
       <path d="M 1263 1931 
L 1263 1469 
L 2434 1469 
Q 2381 928 2154 658 
Q 1928 388 1525 388 
Q 813 388 684 1213 
L 134 1141 
Q 222 594 589 259 
Q 956 -75 1550 -75 
Q 2256 -116 2643 373 
Q 3031 863 3013 1659 
Q 3013 2469 2609 2931 
Q 2206 3394 1509 3394 
Q 953 3394 609 3098 
Q 266 2803 191 2338 
L 738 2250 
Q 875 2928 1528 2928 
Q 1903 2928 2142 2651 
Q 2381 2375 2434 1931 
L 1263 1931 
z
" id="ArialMT-44d" transform="scale(0.015625)"/>
      </defs>
      <use xlink:href="#ArialMT-44d"/>
     </g>
    </g>
   </g>
   <g id="text_27">
    <g clip-path="url(#pa38cd91fc9)">
     <!-- т -->
     <g style="fill:#ffffff;" transform="translate(343.097211 82.535737)scale(0.07 -0.07)">
      <defs>
       <path d="M 119 3319 
L 2816 3319 
L 2816 2853 
L 1747 2853 
L 1747 0 
L 1188 0 
L 1188 2853 
L 119 2853 
L 119 3319 
z
" id="ArialMT-442" transform="scale(0.015625)"/>
      </defs>
      <use xlink:href="#ArialMT-442"/>
     </g>
    </g>
   </g>
   <g id="text_28">
    <g clip-path="url(#pa38cd91fc9)">
     <!-- ч -->
     <g style="fill:#ffffff;" transform="translate(315.802718 62.143298)scale(0.07 -0.07)">
      <defs>
       <path d="M 216 3319 
L 778 3319 
L 778 2691 
Q 778 2284 826 2101 
Q 875 1919 1059 1783 
Q 1244 1647 1522 1647 
Q 1841 1647 2347 1816 
L 2347 3319 
L 2909 3319 
L 2909 0 
L 2347 0 
L 2347 1338 
Q 1828 1175 1378 1175 
Q 1000 1175 711 1367 
Q 422 1559 319 1837 
Q 216 2116 216 2450 
L 216 3319 
z
" id="ArialMT-447" transform="scale(0.015625)"/>
      </defs>
      <use xlink:href="#ArialMT-447"/>
     </g>
    </g>
   </g>
   <g id="text_29">
    <g clip-path="url(#pa38cd91fc9)">
     <!-- м -->
     <g style="fill:#ffffff;" transform="translate(79.744355 164.763904)scale(0.07 -0.07)">
      <defs>
       <path d="M 438 3319 
L 1313 3319 
L 2184 663 
L 3153 3319 
L 3963 3319 
L 3963 0 
L 3400 0 
L 3400 2672 
L 2419 0 
L 1916 0 
L 988 2800 
L 988 0 
L 438 0 
L 438 3319 
z
" id="ArialMT-43c" transform="scale(0.015625)"/>
      </defs>
      <use xlink:href="#ArialMT-43c"/>
     </g>
    </g>
   </g>
   <g id="text_30">
    <g clip-path="url(#pa38cd91fc9)">
     <!-- ь -->
     <g style="fill:#ffffff;" transform="translate(144.394873 145.56165)scale(0.07 -0.07)">
      <defs>
       <path d="M 413 3319 
L 975 3319 
L 975 2022 
L 1688 2022 
Q 2384 2022 2761 1751 
Q 3138 1481 3138 1006 
Q 3138 591 2823 295 
Q 2509 0 1819 0 
L 413 0 
L 413 3319 
z
M 975 463 
L 1566 463 
Q 2100 463 2328 594 
Q 2556 725 2556 1003 
Q 2556 1219 2387 1387 
Q 2219 1556 1641 1556 
L 975 1556 
L 975 463 
z
" id="ArialMT-44c" transform="scale(0.015625)"/>
      </defs>
      <use xlink:href="#ArialMT-44c"/>
     </g>
    </g>
   </g>
   <g id="text_31">
    <g clip-path="url(#pa38cd91fc9)">
     <!-- б -->
     <g style="fill:#ffffff;" transform="translate(231.668818 203.008178)scale(0.07 -0.07)">
      <defs>
       <path d="M 2853 4691 
L 3350 4684 
Q 3316 4350 3202 4219 
Q 3088 4088 2908 4050 
Q 2728 4013 2203 4013 
Q 1506 4013 1253 3878 
Q 1000 3744 889 3448 
Q 778 3153 766 2688 
Q 978 3003 1262 3161 
Q 1547 3319 1903 3319 
Q 2556 3319 2984 2870 
Q 3413 2422 3413 1656 
Q 3413 1075 3197 703 
Q 2981 331 2686 128 
Q 2391 -75 1881 -75 
Q 1291 -75 962 195 
Q 634 466 459 887 
Q 284 1309 284 2356 
Q 284 3672 729 4128 
Q 1175 4584 2100 4584 
Q 2675 4584 2753 4603 
Q 2831 4622 2853 4691 
z
M 2825 1672 
Q 2825 2191 2579 2522 
Q 2334 2853 1888 2853 
Q 1422 2853 1169 2503 
Q 916 2153 916 1569 
Q 916 991 1195 684 
Q 1475 378 1884 378 
Q 2303 378 2564 733 
Q 2825 1088 2825 1672 
z
" id="ArialMT-431" transform="scale(0.015625)"/>
      </defs>
      <use xlink:href="#ArialMT-431"/>
     </g>
    </g>
   </g>
   <g id="text_32">
    <g clip-path="url(#pa38cd91fc9)">
     <!-- ю -->
     <g style="fill:#ffffff;" transform="translate(255.386762 154.08328)scale(0.07 -0.07)">
      <defs>
       <path d="M 428 3319 
L 991 3319 
L 991 1931 
L 1672 1931 
Q 1747 2644 2117 3019 
Q 2488 3394 3078 3394 
Q 3581 3394 3872 3191 
Q 4163 2988 4352 2631 
Q 4541 2275 4541 1672 
Q 4541 813 4150 369 
Q 3759 -75 3091 -75 
Q 2469 -75 2094 337 
Q 1719 750 1672 1469 
L 991 1469 
L 991 0 
L 428 0 
L 428 3319 
z
M 3109 2916 
Q 2697 2916 2467 2598 
Q 2238 2281 2238 1709 
Q 2238 1025 2469 706 
Q 2700 388 3088 388 
Q 3472 388 3717 683 
Q 3963 978 3963 1634 
Q 3963 2275 3750 2595 
Q 3538 2916 3109 2916 
z
" id="ArialMT-44e" transform="scale(0.015625)"/>
      </defs>
      <use xlink:href="#ArialMT-44e"/>
     </g>
    </g>
   </g>
   <g id="text_33">
    <g clip-path="url(#pa38cd91fc9)">
     <!-- ё -->
     <g style="fill:#ffffff;" transform="translate(164.432705 133.042587)scale(0.07 -0.07)">
      <defs>
       <path d="M 2694 1069 
L 3275 997 
Q 3138 488 2766 206 
Q 2394 -75 1816 -75 
Q 1088 -75 661 373 
Q 234 822 234 1631 
Q 234 2469 665 2931 
Q 1097 3394 1784 3394 
Q 2450 3394 2872 2941 
Q 3294 2488 3294 1666 
Q 3294 1616 3291 1516 
L 816 1516 
Q 847 969 1125 678 
Q 1403 388 1819 388 
Q 2128 388 2347 550 
Q 2566 713 2694 1069 
z
M 847 1978 
L 2700 1978 
Q 2663 2397 2488 2606 
Q 2219 2931 1791 2931 
Q 1403 2931 1139 2672 
Q 875 2413 847 1978 
z
M 887 3969 
L 887 4609 
L 1474 4609 
L 1474 3969 
L 887 3969 
z
M 2052 3969 
L 2052 4609 
L 2640 4609 
L 2640 3969 
L 2052 3969 
z
" id="ArialMT-451" transform="scale(0.015625)"/>
      </defs>
      <use xlink:href="#ArialMT-451"/>
     </g>
    </g>
   </g>
  </g>
 </g>
 <defs>
  <clipPath id="pa38cd91fc9">
   <rect height="288" width="432" x="7.2" y="7.2"/>
  </clipPath>
 </defs>
</svg>
