<?xml version="1.0" encoding="utf-8" standalone="no"?>
<!DOCTYPE svg PUBLIC "-//W3C//DTD SVG 1.1//EN"
  "http://www.w3.org/Graphics/SVG/1.1/DTD/svg11.dtd">
<svg height="302.4pt" version="1.1" viewBox="0 0 446.4 302.4" width="446.4pt" xmlns="http://www.w3.org/2000/svg" xmlns:xlink="http://www.w3.org/1999/xlink">
 <metadata>
  <rdf:RDF xmlns:cc="http://creativecommons.org/ns#" xmlns:dc="http://purl.org/dc/elements/1.1/" xmlns:rdf="http://www.w3.org/1999/02/22-rdf-syntax-ns#">
   <cc:Work>
    <dc:type rdf:resource="http://purl.org/dc/dcmitype/StillImage"/>
    <dc:date>2023-07-24T13:20:17.370868</dc:date>
    <dc:format>image/svg+xml</dc:format>
    <dc:creator>
     <cc:Agent>
      <dc:title>Matplotlib v3.4.3, https://matplotlib.org/</dc:title>
     </cc:Agent>
    </dc:creator>
   </cc:Work>
  </rdf:RDF>
 </metadata>
 <defs>
  <style type="text/css">*{stroke-linecap:butt;stroke-linejoin:round;}</style>
 </defs>
 <g id="figure_1">
  <g id="patch_1">
   <path d="M 0 302.4 
L 446.4 302.4 
L 446.4 0 
L 0 0 
z
" style="fill:#ffffff;"/>
  </g>
  <g id="axes_1">
   <g id="patch_2">
    <path clip-path="url(#p4da92aaa47)" d="M 47.697309 185.680093 
Q 73.280515 172.153627 98.270691 158.94071 
" style="fill:none;stroke:#89a4cb;stroke-linecap:round;stroke-opacity:0.533333;stroke-width:0.6;"/>
    <path clip-path="url(#p4da92aaa47)" d="M 93.799708 159.042284 
L 98.270691 158.94071 
L 95.669361 162.578441 
L 93.799708 159.042284 
z
" style="fill:#89a4cb;fill-opacity:0.533333;stroke:#89a4cb;stroke-linecap:round;stroke-opacity:0.533333;stroke-width:0.6;"/>
   </g>
   <g id="patch_3">
    <path clip-path="url(#p4da92aaa47)" d="M 107.716814 153.796357 
Q 131.250227 140.550789 154.107007 127.686058 
" style="fill:none;stroke:#89a4cb;stroke-linecap:round;stroke-opacity:0.533333;stroke-width:0.694475;"/>
    <path clip-path="url(#p4da92aaa47)" d="M 149.640239 127.905109 
L 154.107007 127.686058 
L 151.602186 131.390903 
L 149.640239 127.905109 
z
" style="fill:#89a4cb;fill-opacity:0.533333;stroke:#89a4cb;stroke-linecap:round;stroke-opacity:0.533333;stroke-width:0.694475;"/>
   </g>
   <g id="patch_4">
    <path clip-path="url(#p4da92aaa47)" d="M 306.495896 143.712661 
Q 313.483057 114.0192 320.243196 85.290525 
" style="fill:none;stroke:#89a4cb;stroke-linecap:round;stroke-opacity:0.533333;stroke-width:0.886498;"/>
    <path clip-path="url(#p4da92aaa47)" d="M 317.380153 88.726072 
L 320.243196 85.290525 
L 321.273808 89.642288 
L 317.380153 88.726072 
z
" style="fill:#89a4cb;fill-opacity:0.533333;stroke:#89a4cb;stroke-linecap:round;stroke-opacity:0.533333;stroke-width:0.886498;"/>
   </g>
   <g id="patch_5">
    <path clip-path="url(#p4da92aaa47)" d="M 303.533883 146.988719 
Q 261.370044 161.490361 219.941448 175.739126 
" style="fill:none;stroke:#89a4cb;stroke-linecap:round;stroke-opacity:0.533333;stroke-width:0.69543;"/>
    <path clip-path="url(#p4da92aaa47)" d="M 224.374452 176.329445 
L 219.941448 175.739126 
L 223.073506 172.546914 
L 224.374452 176.329445 
z
" style="fill:#89a4cb;fill-opacity:0.533333;stroke:#89a4cb;stroke-linecap:round;stroke-opacity:0.533333;stroke-width:0.69543;"/>
   </g>
   <g id="patch_6">
    <path clip-path="url(#p4da92aaa47)" d="M 316.213353 80.074086 
Q 283.737505 87.71836 251.914632 95.208934 
" style="fill:none;stroke:#89a4cb;stroke-linecap:round;stroke-opacity:0.533333;stroke-width:0.6;"/>
    <path clip-path="url(#p4da92aaa47)" d="M 256.266467 96.239243 
L 251.914632 95.208934 
L 255.34998 92.345652 
L 256.266467 96.239243 
z
" style="fill:#89a4cb;fill-opacity:0.533333;stroke:#89a4cb;stroke-linecap:round;stroke-opacity:0.533333;stroke-width:0.6;"/>
   </g>
   <g id="patch_7">
    <path clip-path="url(#p4da92aaa47)" d="M 208.783006 175.530297 
Q 166.118188 156.479856 124.065902 137.70292 
" style="fill:none;stroke:#89a4cb;stroke-linecap:round;stroke-opacity:0.533333;stroke-width:0.6;"/>
    <path clip-path="url(#p4da92aaa47)" d="M 126.902905 141.160001 
L 124.065902 137.70292 
L 128.533769 137.507566 
L 126.902905 141.160001 
z
" style="fill:#89a4cb;fill-opacity:0.533333;stroke:#89a4cb;stroke-linecap:round;stroke-opacity:0.533333;stroke-width:0.6;"/>
   </g>
   <g id="patch_8">
    <path clip-path="url(#p4da92aaa47)" d="M 338.161595 267.466694 
Q 314.158343 247.629813 290.672182 228.22027 
" style="fill:none;stroke:#89a4cb;stroke-linecap:round;stroke-opacity:0.533333;stroke-width:0.6;"/>
    <path clip-path="url(#p4da92aaa47)" d="M 292.481445 232.310082 
L 290.672182 228.22027 
L 295.02959 229.226747 
L 292.481445 232.310082 
z
" style="fill:#89a4cb;fill-opacity:0.533333;stroke:#89a4cb;stroke-linecap:round;stroke-opacity:0.533333;stroke-width:0.6;"/>
   </g>
   <g id="patch_9">
    <path clip-path="url(#p4da92aaa47)" d="M 283.024781 222.566056 
Q 250.816674 201.714506 219.171681 181.227516 
" style="fill:none;stroke:#89a4cb;stroke-linecap:round;stroke-opacity:0.533333;stroke-width:0.6;"/>
    <path clip-path="url(#p4da92aaa47)" d="M 221.44253 185.080208 
L 219.171681 181.227516 
L 223.616345 181.722451 
L 221.44253 185.080208 
z
" style="fill:#89a4cb;fill-opacity:0.533333;stroke:#89a4cb;stroke-linecap:round;stroke-opacity:0.533333;stroke-width:0.6;"/>
   </g>
   <g id="patch_10">
    <path clip-path="url(#p4da92aaa47)" d="M 193.756595 124.991431 
Q 180.778563 84.831522 168.091147 45.570912 
" style="fill:none;stroke:#89a4cb;stroke-linecap:round;stroke-opacity:0.533333;stroke-width:0.845314;"/>
    <path clip-path="url(#p4da92aaa47)" d="M 167.418056 49.992105 
L 168.091147 45.570912 
L 171.224247 48.7621 
L 167.418056 49.992105 
z
" style="fill:#89a4cb;fill-opacity:0.533333;stroke:#89a4cb;stroke-linecap:round;stroke-opacity:0.533333;stroke-width:0.845314;"/>
   </g>
   <g id="patch_11">
    <path clip-path="url(#p4da92aaa47)" d="M 196.743637 133.417538 
Q 204.311857 153.000469 211.574246 171.792053 
" style="fill:none;stroke:#89a4cb;stroke-linecap:round;stroke-opacity:0.533333;stroke-width:0.758822;"/>
    <path clip-path="url(#p4da92aaa47)" d="M 211.997832 167.340022 
L 211.574246 171.792053 
L 208.266773 168.781965 
L 211.997832 167.340022 
z
" style="fill:#89a4cb;fill-opacity:0.533333;stroke:#89a4cb;stroke-linecap:round;stroke-opacity:0.533333;stroke-width:0.758822;"/>
   </g>
   <g id="patch_12">
    <path clip-path="url(#p4da92aaa47)" d="M 171.904378 40.035329 
Q 182.742706 42.126638 192.922363 44.090853 
" style="fill:none;stroke:#89a4cb;stroke-linecap:round;stroke-opacity:0.533333;stroke-width:0.6;"/>
    <path clip-path="url(#p4da92aaa47)" d="M 189.37373 41.369236 
L 192.922363 44.090853 
L 188.615889 45.296789 
L 189.37373 41.369236 
z
" style="fill:#89a4cb;fill-opacity:0.533333;stroke:#89a4cb;stroke-linecap:round;stroke-opacity:0.533333;stroke-width:0.6;"/>
   </g>
   <g id="patch_13">
    <path clip-path="url(#p4da92aaa47)" d="M 251.264542 95.361954 
Q 283.739298 87.717937 315.561079 80.22762 
" style="fill:none;stroke:#89a4cb;stroke-linecap:round;stroke-opacity:0.533333;stroke-width:0.6;"/>
    <path clip-path="url(#p4da92aaa47)" d="M 311.209245 79.197311 
L 315.561079 80.22762 
L 312.125731 83.090902 
L 311.209245 79.197311 
z
" style="fill:#89a4cb;fill-opacity:0.533333;stroke:#89a4cb;stroke-linecap:round;stroke-opacity:0.533333;stroke-width:0.6;"/>
   </g>
   <g id="patch_14">
    <path clip-path="url(#p4da92aaa47)" d="M 244.152662 101.502586 
Q 230.061009 137.05217 216.216553 171.978139 
" style="fill:none;stroke:#89a4cb;stroke-linecap:round;stroke-opacity:0.533333;stroke-width:0.6;"/>
    <path clip-path="url(#p4da92aaa47)" d="M 219.549806 168.996626 
L 216.216553 171.978139 
L 215.831294 167.522629 
L 219.549806 168.996626 
z
" style="fill:#89a4cb;fill-opacity:0.533333;stroke:#89a4cb;stroke-linecap:round;stroke-opacity:0.533333;stroke-width:0.6;"/>
   </g>
   <g id="patch_15">
    <path clip-path="url(#p4da92aaa47)" d="M 241.801538 93.4793 
Q 206.335031 67.957857 171.413023 42.828232 
" style="fill:none;stroke:#89a4cb;stroke-linecap:round;stroke-opacity:0.533333;stroke-width:0.6;"/>
    <path clip-path="url(#p4da92aaa47)" d="M 173.491613 46.787962 
L 171.413023 42.828232 
L 175.827961 43.541198 
L 173.491613 46.787962 
z
" style="fill:#89a4cb;fill-opacity:0.533333;stroke:#89a4cb;stroke-linecap:round;stroke-opacity:0.533333;stroke-width:0.6;"/>
   </g>
   <g id="patch_16">
    <path clip-path="url(#p4da92aaa47)" d="M 135.49497 32.935788 
Q 147.7272 35.325866 158.269024 37.385652 
" style="fill:none;stroke:#89a4cb;stroke-linecap:round;stroke-opacity:0.533333;stroke-width:1.540537;"/>
    <path clip-path="url(#p4da92aaa47)" d="M 154.726792 34.655708 
L 158.269024 37.385652 
L 153.95973 38.581471 
L 154.726792 34.655708 
z
" style="fill:#89a4cb;fill-opacity:0.533333;stroke:#89a4cb;stroke-linecap:round;stroke-opacity:0.533333;stroke-width:1.540537;"/>
   </g>
   <g id="patch_17">
    <path clip-path="url(#p4da92aaa47)" d="M 226.720226 132.182535 
Q 271.756207 106.874446 315.991743 82.016171 
" style="fill:none;stroke:#89a4cb;stroke-linecap:round;stroke-opacity:0.533333;stroke-width:0.821241;"/>
    <path clip-path="url(#p4da92aaa47)" d="M 311.524828 82.232207 
L 315.991743 82.016171 
L 313.484423 85.719324 
L 311.524828 82.232207 
z
" style="fill:#89a4cb;fill-opacity:0.533333;stroke:#89a4cb;stroke-linecap:round;stroke-opacity:0.533333;stroke-width:0.821241;"/>
   </g>
   <g id="patch_18">
    <path clip-path="url(#p4da92aaa47)" d="M 220.633339 133.701165 
Q 145.060699 131.968041 70.171639 130.250593 
" style="fill:none;stroke:#89a4cb;stroke-linecap:round;stroke-opacity:0.533333;stroke-width:0.611573;"/>
    <path clip-path="url(#p4da92aaa47)" d="M 74.124733 132.341776 
L 70.171639 130.250593 
L 74.216442 128.342828 
L 74.124733 132.341776 
z
" style="fill:#89a4cb;fill-opacity:0.533333;stroke:#89a4cb;stroke-linecap:round;stroke-opacity:0.533333;stroke-width:0.611573;"/>
   </g>
   <g id="patch_19">
    <path clip-path="url(#p4da92aaa47)" d="M 69.465471 130.628788 
Q 91.770185 132.790333 113.407206 134.887172 
" style="fill:none;stroke:#89a4cb;stroke-linecap:round;stroke-opacity:0.533333;stroke-width:0.6;"/>
    <path clip-path="url(#p4da92aaa47)" d="M 109.618774 132.510666 
L 113.407206 134.887172 
L 109.232942 136.492014 
L 109.618774 132.510666 
z
" style="fill:#89a4cb;fill-opacity:0.533333;stroke:#89a4cb;stroke-linecap:round;stroke-opacity:0.533333;stroke-width:0.6;"/>
   </g>
   <g id="patch_20">
    <path clip-path="url(#p4da92aaa47)" d="M 228.234886 106.218311 
Q 272.264938 93.295918 314.687691 80.845252 
" style="fill:none;stroke:#89a4cb;stroke-linecap:round;stroke-opacity:0.533333;stroke-width:1.498248;"/>
    <path clip-path="url(#p4da92aaa47)" d="M 310.286354 80.052644 
L 314.687691 80.845252 
L 311.412803 83.890757 
L 310.286354 80.052644 
z
" style="fill:#89a4cb;fill-opacity:0.533333;stroke:#89a4cb;stroke-linecap:round;stroke-opacity:0.533333;stroke-width:1.498248;"/>
   </g>
   <g id="patch_21">
    <path clip-path="url(#p4da92aaa47)" d="M 223.46125 107.25569 
Q 146.44523 118.304111 70.258987 129.233495 
" style="fill:none;stroke:#89a4cb;stroke-linecap:round;stroke-opacity:0.533333;stroke-width:0.749773;"/>
    <path clip-path="url(#p4da92aaa47)" d="M 74.502457 130.645218 
L 70.258987 129.233495 
L 73.934448 126.685753 
L 74.502457 130.645218 
z
" style="fill:#89a4cb;fill-opacity:0.533333;stroke:#89a4cb;stroke-linecap:round;stroke-opacity:0.533333;stroke-width:0.749773;"/>
   </g>
   <g id="patch_22">
    <path clip-path="url(#p4da92aaa47)" d="M 267.793241 203.617748 
Q 243.375594 191.927197 220.001174 180.736117 
" style="fill:none;stroke:#89a4cb;stroke-linecap:round;stroke-opacity:0.533333;stroke-width:1.034523;"/>
    <path clip-path="url(#p4da92aaa47)" d="M 222.745324 184.267355 
L 220.001174 180.736117 
L 224.472655 180.65954 
L 222.745324 184.267355 
z
" style="fill:#89a4cb;fill-opacity:0.533333;stroke:#89a4cb;stroke-linecap:round;stroke-opacity:0.533333;stroke-width:1.034523;"/>
   </g>
   <g id="patch_23">
    <path clip-path="url(#p4da92aaa47)" d="M 141.303676 70.332274 
Q 151.742391 57.001052 161.539263 44.489523 
" style="fill:none;stroke:#89a4cb;stroke-linecap:round;stroke-opacity:0.533333;stroke-width:0.931176;"/>
    <path clip-path="url(#p4da92aaa47)" d="M 157.498522 46.405877 
L 161.539263 44.489523 
L 160.647901 48.871928 
L 157.498522 46.405877 
z
" style="fill:#89a4cb;fill-opacity:0.533333;stroke:#89a4cb;stroke-linecap:round;stroke-opacity:0.533333;stroke-width:0.931176;"/>
   </g>
   <g id="patch_24">
    <path clip-path="url(#p4da92aaa47)" d="M 209.501554 162.613087 
Q 172.729304 177.168493 138.183322 190.842684 
" style="fill:none;stroke:#89a4cb;stroke-linecap:round;stroke-opacity:0.533333;stroke-width:2.141553;"/>
    <path clip-path="url(#p4da92aaa47)" d="M 142.638643 191.230132 
L 138.183322 190.842684 
L 141.166473 187.510896 
L 142.638643 191.230132 
z
" style="fill:#89a4cb;fill-opacity:0.533333;stroke:#89a4cb;stroke-linecap:round;stroke-opacity:0.533333;stroke-width:2.141553;"/>
   </g>
   <g id="patch_25">
    <path clip-path="url(#p4da92aaa47)" d="M 213.58991 160.317747 
Q 265.401323 121.261913 316.462627 82.771517 
" style="fill:none;stroke:#89a4cb;stroke-linecap:round;stroke-opacity:0.533333;stroke-width:0.840183;"/>
    <path clip-path="url(#p4da92aaa47)" d="M 312.064586 83.582217 
L 316.462627 82.771517 
L 314.472363 86.77637 
L 312.064586 83.582217 
z
" style="fill:#89a4cb;fill-opacity:0.533333;stroke:#89a4cb;stroke-linecap:round;stroke-opacity:0.533333;stroke-width:0.840183;"/>
   </g>
   <g id="patch_26">
    <path clip-path="url(#p4da92aaa47)" d="M 133.662615 189.422044 
Q 145.543035 159.516894 157.175787 130.235169 
" style="fill:none;stroke:#89a4cb;stroke-linecap:round;stroke-opacity:0.533333;stroke-width:0.6;"/>
    <path clip-path="url(#p4da92aaa47)" d="M 153.840279 133.21416 
L 157.175787 130.235169 
L 157.557675 134.69097 
L 153.840279 133.21416 
z
" style="fill:#89a4cb;fill-opacity:0.533333;stroke:#89a4cb;stroke-linecap:round;stroke-opacity:0.533333;stroke-width:0.6;"/>
   </g>
   <g id="patch_27">
    <path clip-path="url(#p4da92aaa47)" d="M 199.624858 92.763161 
Q 257.863145 86.088927 315.301314 79.506389 
" style="fill:none;stroke:#89a4cb;stroke-linecap:round;stroke-opacity:0.533333;stroke-width:0.720331;"/>
    <path clip-path="url(#p4da92aaa47)" d="M 311.099611 77.974822 
L 315.301314 79.506389 
L 311.555039 81.948811 
L 311.099611 77.974822 
z
" style="fill:#89a4cb;fill-opacity:0.533333;stroke:#89a4cb;stroke-linecap:round;stroke-opacity:0.533333;stroke-width:0.720331;"/>
   </g>
   <g id="patch_28">
    <path clip-path="url(#p4da92aaa47)" d="M 194.993508 93.667514 
Q 132.14166 111.171899 69.959973 128.489641 
" style="fill:none;stroke:#89a4cb;stroke-linecap:round;stroke-opacity:0.533333;stroke-width:0.622222;"/>
    <path clip-path="url(#p4da92aaa47)" d="M 74.349908 129.34315 
L 69.959973 128.489641 
L 73.276741 125.489799 
L 74.349908 129.34315 
z
" style="fill:#89a4cb;fill-opacity:0.533333;stroke:#89a4cb;stroke-linecap:round;stroke-opacity:0.533333;stroke-width:0.622222;"/>
   </g>
   <g id="patch_29">
    <path clip-path="url(#p4da92aaa47)" d="M 223.651542 137.798784 
Q 173.764115 136.667997 124.547336 135.552412 
" style="fill:none;stroke:#89a4cb;stroke-linecap:round;stroke-opacity:0.533333;stroke-width:0.6;"/>
    <path clip-path="url(#p4da92aaa47)" d="M 128.500987 137.642542 
L 124.547336 135.552412 
L 128.591631 133.643569 
L 128.500987 137.642542 
z
" style="fill:#89a4cb;fill-opacity:0.533333;stroke:#89a4cb;stroke-linecap:round;stroke-opacity:0.533333;stroke-width:0.6;"/>
   </g>
   <g id="patch_30">
    <path clip-path="url(#p4da92aaa47)" d="M 114.07686 134.952068 
Q 91.771228 132.790434 70.133289 130.693506 
" style="fill:none;stroke:#89a4cb;stroke-linecap:round;stroke-opacity:0.533333;stroke-width:0.6;"/>
    <path clip-path="url(#p4da92aaa47)" d="M 73.921721 133.070012 
L 70.133289 130.693506 
L 74.307553 129.088663 
L 73.921721 133.070012 
z
" style="fill:#89a4cb;fill-opacity:0.533333;stroke:#89a4cb;stroke-linecap:round;stroke-opacity:0.533333;stroke-width:0.6;"/>
   </g>
   <g id="patch_31">
    <path clip-path="url(#p4da92aaa47)" d="M 193.577842 44.217331 
Q 182.738983 42.12592 172.558795 40.161602 
" style="fill:none;stroke:#89a4cb;stroke-linecap:round;stroke-opacity:0.533333;stroke-width:0.6;"/>
    <path clip-path="url(#p4da92aaa47)" d="M 176.107428 42.88322 
L 172.558795 40.161602 
L 176.865269 38.955666 
L 176.107428 42.88322 
z
" style="fill:#89a4cb;fill-opacity:0.533333;stroke:#89a4cb;stroke-linecap:round;stroke-opacity:0.533333;stroke-width:0.6;"/>
   </g>
   <g id="patch_32">
    <path clip-path="url(#p4da92aaa47)" d="M 180.87343 99.107698 
Q 174.134442 71.948644 167.710709 46.060104 
" style="fill:none;stroke:#89a4cb;stroke-linecap:round;stroke-opacity:0.533333;stroke-width:1.170844;"/>
    <path clip-path="url(#p4da92aaa47)" d="M 166.732882 50.424031 
L 167.710709 46.060104 
L 170.615154 49.460721 
L 166.732882 50.424031 
z
" style="fill:#89a4cb;fill-opacity:0.533333;stroke:#89a4cb;stroke-linecap:round;stroke-opacity:0.533333;stroke-width:1.170844;"/>
   </g>
   <g id="patch_33">
    <path clip-path="url(#p4da92aaa47)" d="M 184.890508 106.266477 
Q 194.955776 116.459148 204.339536 125.961686 
" style="fill:none;stroke:#89a4cb;stroke-linecap:round;stroke-opacity:0.533333;stroke-width:0.867519;"/>
    <path clip-path="url(#p4da92aaa47)" d="M 202.952032 121.710235 
L 204.339536 125.961686 
L 200.105874 124.520818 
L 202.952032 121.710235 
z
" style="fill:#89a4cb;fill-opacity:0.533333;stroke:#89a4cb;stroke-linecap:round;stroke-opacity:0.533333;stroke-width:0.867519;"/>
   </g>
   <g id="patch_34">
    <path clip-path="url(#p4da92aaa47)" d="M 208.891549 134.717851 
Q 211.07324 153.482614 213.17746 171.581045 
" style="fill:none;stroke:#89a4cb;stroke-linecap:round;stroke-opacity:0.533333;stroke-width:0.6;"/>
    <path clip-path="url(#p4da92aaa47)" d="M 214.702128 167.376835 
L 213.17746 171.581045 
L 210.728893 167.838784 
L 214.702128 167.376835 
z
" style="fill:#89a4cb;fill-opacity:0.533333;stroke:#89a4cb;stroke-linecap:round;stroke-opacity:0.533333;stroke-width:0.6;"/>
   </g>
   <g id="patch_35">
    <path clip-path="url(#p4da92aaa47)" d="M 206.347834 125.726522 
Q 187.422197 85.062112 168.779613 45.00588 
" style="fill:none;stroke:#89a4cb;stroke-linecap:round;stroke-opacity:0.533333;stroke-width:0.6;"/>
    <path clip-path="url(#p4da92aaa47)" d="M 168.654174 49.476256 
L 168.779613 45.00588 
L 172.280651 47.788456 
L 168.654174 49.476256 
z
" style="fill:#89a4cb;fill-opacity:0.533333;stroke:#89a4cb;stroke-linecap:round;stroke-opacity:0.533333;stroke-width:0.6;"/>
   </g>
   <g id="patch_36">
    <path clip-path="url(#p4da92aaa47)" d="M 367.708197 136.618861 
Q 346.522263 109.931982 326.237439 84.380187 
" style="fill:none;stroke:#89a4cb;stroke-linecap:round;stroke-opacity:0.533333;stroke-width:1.296276;"/>
    <path clip-path="url(#p4da92aaa47)" d="M 327.158083 88.756534 
L 326.237439 84.380187 
L 330.290903 86.26948 
L 327.158083 88.756534 
z
" style="fill:#89a4cb;fill-opacity:0.533333;stroke:#89a4cb;stroke-linecap:round;stroke-opacity:0.533333;stroke-width:1.296276;"/>
   </g>
   <g id="patch_37">
    <path clip-path="url(#p4da92aaa47)" d="M 160.595753 171.210404 
Q 160.049419 150.594571 159.574168 132.661078 
" style="fill:none;stroke:#89a4cb;stroke-linecap:round;stroke-opacity:0.533333;stroke-width:2.4;"/>
    <path clip-path="url(#p4da92aaa47)" d="M 157.680836 136.712657 
L 159.574168 132.661078 
L 161.679432 136.606691 
L 157.680836 136.712657 
z
" style="fill:#89a4cb;fill-opacity:0.533333;stroke:#89a4cb;stroke-linecap:round;stroke-opacity:0.533333;stroke-width:2.4;"/>
   </g>
   <g id="patch_38">
    <path clip-path="url(#p4da92aaa47)" d="M 159.764461 119.490326 
Q 162.615105 82.219533 165.40036 45.803677 
" style="fill:none;stroke:#89a4cb;stroke-linecap:round;stroke-opacity:0.533333;stroke-width:0.766911;"/>
    <path clip-path="url(#p4da92aaa47)" d="M 163.101136 49.639505 
L 165.40036 45.803677 
L 167.089487 49.944552 
L 163.101136 49.639505 
z
" style="fill:#89a4cb;fill-opacity:0.533333;stroke:#89a4cb;stroke-linecap:round;stroke-opacity:0.533333;stroke-width:0.766911;"/>
   </g>
   <g id="patch_39">
    <path clip-path="url(#p4da92aaa47)" d="M 256.86364 134.780451 
Q 210.727716 130.023376 165.495501 125.359482 
" style="fill:none;stroke:#89a4cb;stroke-linecap:round;stroke-opacity:0.533333;stroke-width:0.812588;"/>
    <path clip-path="url(#p4da92aaa47)" d="M 169.269273 127.759199 
L 165.495501 125.359482 
L 169.679538 123.780295 
L 169.269273 127.759199 
z
" style="fill:#89a4cb;fill-opacity:0.533333;stroke:#89a4cb;stroke-linecap:round;stroke-opacity:0.533333;stroke-width:0.812588;"/>
   </g>
   <g id="patch_40">
    <path clip-path="url(#p4da92aaa47)" d="M 263.426798 132.596119 
Q 290.503347 107.616969 316.990249 83.18179 
" style="fill:none;stroke:#89a4cb;stroke-linecap:round;stroke-opacity:0.533333;stroke-width:0.717544;"/>
    <path clip-path="url(#p4da92aaa47)" d="M 312.694114 84.424054 
L 316.990249 83.18179 
L 315.406379 87.364057 
L 312.694114 84.424054 
z
" style="fill:#89a4cb;fill-opacity:0.533333;stroke:#89a4cb;stroke-linecap:round;stroke-opacity:0.533333;stroke-width:0.717544;"/>
   </g>
   <g id="patch_41">
    <path clip-path="url(#p4da92aaa47)" d="M 396.124333 96.578709 
Q 361.730968 88.337358 327.989957 80.252324 
" style="fill:none;stroke:#89a4cb;stroke-linecap:round;stroke-opacity:0.533333;stroke-width:0.6;"/>
    <path clip-path="url(#p4da92aaa47)" d="M 331.413793 83.129362 
L 327.989957 80.252324 
L 332.345888 79.239478 
L 331.413793 83.129362 
z
" style="fill:#89a4cb;fill-opacity:0.533333;stroke:#89a4cb;stroke-linecap:round;stroke-opacity:0.533333;stroke-width:0.6;"/>
   </g>
   <g id="patch_42">
    <path clip-path="url(#p4da92aaa47)" d="M 204.920166 195.71497 
Q 200.351825 164.693805 195.881218 134.336302 
" style="fill:none;stroke:#89a4cb;stroke-linecap:round;stroke-opacity:0.533333;stroke-width:0.6;"/>
    <path clip-path="url(#p4da92aaa47)" d="M 194.485335 138.585009 
L 195.881218 134.336302 
L 198.442654 138.002233 
L 194.485335 138.585009 
z
" style="fill:#89a4cb;fill-opacity:0.533333;stroke:#89a4cb;stroke-linecap:round;stroke-opacity:0.533333;stroke-width:0.6;"/>
   </g>
   <g id="patch_43">
    <path clip-path="url(#p4da92aaa47)" d="M 309.135542 138.328183 
Q 270.265125 138.117847 232.200359 137.911871 
" style="fill:none;stroke:#89a4cb;stroke-linecap:round;stroke-opacity:0.533333;stroke-width:0.720607;"/>
    <path clip-path="url(#p4da92aaa47)" d="M 236.189478 139.933486 
L 232.200359 137.911871 
L 236.211122 135.933545 
L 236.189478 139.933486 
z
" style="fill:#89a4cb;fill-opacity:0.533333;stroke:#89a4cb;stroke-linecap:round;stroke-opacity:0.533333;stroke-width:0.720607;"/>
   </g>
   <g id="patch_44">
    <path clip-path="url(#p4da92aaa47)" d="M 399.131996 189.401447 
Q 357.714778 164.855996 316.87465 140.652551 
" style="fill:none;stroke:#89a4cb;stroke-linecap:round;stroke-opacity:0.533333;stroke-width:0.6;"/>
    <path clip-path="url(#p4da92aaa47)" d="M 319.296083 144.412427 
L 316.87465 140.652551 
L 321.33541 140.97133 
L 319.296083 144.412427 
z
" style="fill:#89a4cb;fill-opacity:0.533333;stroke:#89a4cb;stroke-linecap:round;stroke-opacity:0.533333;stroke-width:0.6;"/>
   </g>
   <g id="patch_45">
    <path clip-path="url(#p4da92aaa47)" d="M 299.126801 82.001732 
Q 275.171057 88.586721 251.862142 94.993909 
" style="fill:none;stroke:#89a4cb;stroke-linecap:round;stroke-opacity:0.533333;stroke-width:0.6;"/>
    <path clip-path="url(#p4da92aaa47)" d="M 256.249181 95.862178 
L 251.862142 94.993909 
L 255.18898 92.005239 
L 256.249181 95.862178 
z
" style="fill:#89a4cb;fill-opacity:0.533333;stroke:#89a4cb;stroke-linecap:round;stroke-opacity:0.533333;stroke-width:0.6;"/>
   </g>
   <g id="PathCollection_1">
    <path clip-path="url(#p4da92aaa47)" d="M 44.687603 190.675015 
C 45.590253 190.675015 46.456054 190.316389 47.094324 189.678119 
C 47.732594 189.039849 48.09122 188.174048 48.09122 187.271398 
C 48.09122 186.368748 47.732594 185.502947 47.094324 184.864678 
C 46.456054 184.226408 45.590253 183.867781 44.687603 183.867781 
C 43.784954 183.867781 42.919152 184.226408 42.280883 184.864678 
C 41.642613 185.502947 41.283986 186.368748 41.283986 187.271398 
C 41.283986 188.174048 41.642613 189.039849 42.280883 189.678119 
C 42.919152 190.316389 43.784954 190.675015 44.687603 190.675015 
z
" style="fill:#0d6efd;stroke:#0d6efd;"/>
    <path clip-path="url(#p4da92aaa47)" d="M 103.321389 161.313897 
C 104.658971 161.313897 105.941949 160.78247 106.887763 159.836656 
C 107.833576 158.890843 108.365003 157.607865 108.365003 156.270283 
C 108.365003 154.932701 107.833576 153.649722 106.887763 152.703909 
C 105.941949 151.758096 104.658971 151.226669 103.321389 151.226669 
C 101.983807 151.226669 100.700829 151.758096 99.755016 152.703909 
C 98.809202 153.649722 98.277775 154.932701 98.277775 156.270283 
C 98.277775 157.607865 98.809202 158.890843 99.755016 159.836656 
C 100.700829 160.78247 101.983807 161.313897 103.321389 161.313897 
z
" style="fill:#0d6efd;stroke:#0d6efd;"/>
    <path clip-path="url(#p4da92aaa47)" d="M 305.917953 148.688444 
C 306.586183 148.688444 307.227134 148.422954 307.699644 147.950444 
C 308.172154 147.477934 308.437644 146.836983 308.437644 146.168753 
C 308.437644 145.500523 308.172154 144.859572 307.699644 144.387062 
C 307.227134 143.914552 306.586183 143.649062 305.917953 143.649062 
C 305.249723 143.649062 304.608772 143.914552 304.136262 144.387062 
C 303.663752 144.859572 303.398262 145.500523 303.398262 146.168753 
C 303.398262 146.836983 303.663752 147.477934 304.136262 147.950444 
C 304.608772 148.422954 305.249723 148.688444 305.917953 148.688444 
z
" style="fill:#0d6efd;stroke:#0d6efd;"/>
    <path clip-path="url(#p4da92aaa47)" d="M 321.778942 84.481604 
C 323.295258 84.481604 324.749674 83.879165 325.821871 82.806968 
C 326.894069 81.734771 327.496507 80.280355 327.496507 78.764039 
C 327.496507 77.247723 326.894069 75.793307 325.821871 74.72111 
C 324.749674 73.648912 323.295258 73.046473 321.778942 73.046473 
C 320.262626 73.046473 318.80821 73.648912 317.736013 74.72111 
C 316.663816 75.793307 316.061377 77.247723 316.061377 78.764039 
C 316.061377 80.280355 316.663816 81.734771 317.736013 82.806968 
C 318.80821 83.879165 320.262626 84.481604 321.778942 84.481604 
z
" style="fill:#0d6efd;stroke:#0d6efd;"/>
    <path clip-path="url(#p4da92aaa47)" d="M 213.902389 183.423382 
C 215.389438 183.423382 216.815782 182.832571 217.867285 181.781069 
C 218.918788 180.729566 219.509599 179.303222 219.509599 177.816173 
C 219.509599 176.329124 218.918788 174.90278 217.867285 173.851277 
C 216.815782 172.799774 215.389438 172.208964 213.902389 172.208964 
C 212.41534 172.208964 210.988996 172.799774 209.937493 173.851277 
C 208.885991 174.90278 208.29518 176.329124 208.29518 177.816173 
C 208.29518 179.303222 208.885991 180.729566 209.937493 181.781069 
C 210.988996 182.832571 212.41534 183.423382 213.902389 183.423382 
z
" style="fill:#0d6efd;stroke:#0d6efd;"/>
    <path clip-path="url(#p4da92aaa47)" d="M 341.478982 274.513956 
C 342.620865 274.513956 343.716133 274.060281 344.523566 273.252848 
C 345.330999 272.445415 345.784674 271.350147 345.784674 270.208264 
C 345.784674 269.066382 345.330999 267.971114 344.523566 267.163681 
C 343.716133 266.356248 342.620865 265.902573 341.478982 265.902573 
C 340.3371 265.902573 339.241832 266.356248 338.434399 267.163681 
C 337.626965 267.971114 337.173291 269.066382 337.173291 270.208264 
C 337.173291 271.350147 337.626965 272.445415 338.434399 273.252848 
C 339.241832 274.060281 340.3371 274.513956 341.478982 274.513956 
z
" style="fill:#0d6efd;stroke:#0d6efd;"/>
    <path clip-path="url(#p4da92aaa47)" d="M 286.743764 229.402337 
C 287.918245 229.402337 289.04478 228.935711 289.875263 228.105228 
C 290.705747 227.274744 291.172373 226.148209 291.172373 224.973728 
C 291.172373 223.799247 290.705747 222.672712 289.875263 221.842229 
C 289.04478 221.011745 287.918245 220.545119 286.743764 220.545119 
C 285.569283 220.545119 284.442748 221.011745 283.612264 221.842229 
C 282.781781 222.672712 282.315155 223.799247 282.315155 224.973728 
C 282.315155 226.148209 282.781781 227.274744 283.612264 228.105228 
C 284.442748 228.935711 285.569283 229.402337 286.743764 229.402337 
z
" style="fill:#0d6efd;stroke:#0d6efd;"/>
    <path clip-path="url(#p4da92aaa47)" d="M 195.131675 133.718276 
C 196.31759 133.718276 197.455093 133.247107 198.293662 132.408538 
C 199.132231 131.569969 199.6034 130.432466 199.6034 129.24655 
C 199.6034 128.060635 199.132231 126.923132 198.293662 126.084563 
C 197.455093 125.245994 196.31759 124.774825 195.131675 124.774825 
C 193.945759 124.774825 192.808256 125.245994 191.969687 126.084563 
C 191.131118 126.923132 190.659949 128.060635 190.659949 129.24655 
C 190.659949 130.432466 191.131118 131.569969 191.969687 132.408538 
C 192.808256 133.247107 193.945759 133.718276 195.131675 133.718276 
z
" style="fill:#0d6efd;stroke:#0d6efd;"/>
    <path clip-path="url(#p4da92aaa47)" d="M 165.929724 44.965494 
C 167.542956 44.965494 169.090331 44.324551 170.231058 43.183824 
C 171.371785 42.043097 172.012728 40.495722 172.012728 38.88249 
C 172.012728 37.269258 171.371785 35.721883 170.231058 34.581156 
C 169.090331 33.440429 167.542956 32.799486 165.929724 32.799486 
C 164.316493 32.799486 162.769118 33.440429 161.628391 34.581156 
C 160.487664 35.721883 159.84672 37.269258 159.84672 38.88249 
C 159.84672 40.495722 160.487664 42.043097 161.628391 43.183824 
C 162.769118 44.324551 164.316493 44.965494 165.929724 44.965494 
z
" style="fill:#0d6efd;stroke:#0d6efd;"/>
    <path clip-path="url(#p4da92aaa47)" d="M 246.105402 101.875924 
C 247.510871 101.875924 248.858965 101.317525 249.852781 100.323709 
C 250.846598 99.329892 251.404996 97.981799 251.404996 96.57633 
C 251.404996 95.170861 250.846598 93.822767 249.852781 92.828951 
C 248.858965 91.835134 247.510871 91.276736 246.105402 91.276736 
C 244.699933 91.276736 243.35184 91.835134 242.358023 92.828951 
C 241.364206 93.822767 240.805808 95.170861 240.805808 96.57633 
C 240.805808 97.981799 241.364206 99.329892 242.358023 100.323709 
C 243.35184 101.317525 244.699933 101.875924 246.105402 101.875924 
z
" style="fill:#0d6efd;stroke:#0d6efd;"/>
    <path clip-path="url(#p4da92aaa47)" d="M 131.686968 36.067574 
C 132.714852 36.067574 133.700776 35.659191 134.4276 34.932367 
C 135.154424 34.205543 135.562806 33.21962 135.562806 32.191736 
C 135.562806 31.163851 135.154424 30.177928 134.4276 29.451104 
C 133.700776 28.72428 132.714852 28.315897 131.686968 28.315897 
C 130.659084 28.315897 129.673161 28.72428 128.946337 29.451104 
C 128.219513 30.177928 127.81113 31.163851 127.81113 32.191736 
C 127.81113 33.21962 128.219513 34.205543 128.946337 34.932367 
C 129.673161 35.659191 130.659084 36.067574 131.686968 36.067574 
z
" style="fill:#0d6efd;stroke:#0d6efd;"/>
    <path clip-path="url(#p4da92aaa47)" d="M 223.885105 137.027972 
C 224.747607 137.027972 225.5749 136.685296 226.184781 136.075415 
C 226.794663 135.465534 227.137339 134.638241 227.137339 133.775738 
C 227.137339 132.913236 226.794663 132.085943 226.184781 131.476062 
C 225.5749 130.86618 224.747607 130.523504 223.885105 130.523504 
C 223.022602 130.523504 222.195309 130.86618 221.585428 131.476062 
C 220.975547 132.085943 220.632871 132.913236 220.632871 133.775738 
C 220.632871 134.638241 220.975547 135.465534 221.585428 136.075415 
C 222.195309 136.685296 223.022602 137.027972 223.885105 137.027972 
z
" style="fill:#0d6efd;stroke:#0d6efd;"/>
    <path clip-path="url(#p4da92aaa47)" d="M 64.134192 135.465911 
C 65.55403 135.465911 66.915906 134.901803 67.919883 133.897826 
C 68.92386 132.893849 69.487968 131.531973 69.487968 130.112135 
C 69.487968 128.692297 68.92386 127.330421 67.919883 126.326444 
C 66.915906 125.322467 65.55403 124.758359 64.134192 124.758359 
C 62.714354 124.758359 61.352478 125.322467 60.348501 126.326444 
C 59.344524 127.330421 58.780416 128.692297 58.780416 130.112135 
C 58.780416 131.531973 59.344524 132.893849 60.348501 133.897826 
C 61.352478 134.901803 62.714354 135.465911 64.134192 135.465911 
z
" style="fill:#0d6efd;stroke:#0d6efd;"/>
    <path clip-path="url(#p4da92aaa47)" d="M 225.884945 109.359689 
C 226.535141 109.359689 227.158795 109.101363 227.618553 108.641605 
C 228.078312 108.181846 228.336637 107.558193 228.336637 106.907996 
C 228.336637 106.257799 228.078312 105.634146 227.618553 105.174387 
C 227.158795 104.714629 226.535141 104.456303 225.884945 104.456303 
C 225.234748 104.456303 224.611094 104.714629 224.151336 105.174387 
C 223.691577 105.634146 223.433252 106.257799 223.433252 106.907996 
C 223.433252 107.558193 223.691577 108.181846 224.151336 108.641605 
C 224.611094 109.101363 225.234748 109.359689 225.884945 109.359689 
z
" style="fill:#0d6efd;stroke:#0d6efd;"/>
    <path clip-path="url(#p4da92aaa47)" d="M 271.166007 208.972775 
C 272.157928 208.972775 273.109356 208.57868 273.810751 207.877286 
C 274.512145 207.175892 274.906239 206.224464 274.906239 205.232542 
C 274.906239 204.240621 274.512145 203.289193 273.810751 202.587799 
C 273.109356 201.886404 272.157928 201.49231 271.166007 201.49231 
C 270.174086 201.49231 269.222657 201.886404 268.521263 202.587799 
C 267.819869 203.289193 267.425774 204.240621 267.425774 205.232542 
C 267.425774 206.224464 267.819869 207.175892 268.521263 207.877286 
C 269.222657 208.57868 270.174086 208.972775 271.166007 208.972775 
z
" style="fill:#0d6efd;stroke:#0d6efd;"/>
    <path clip-path="url(#p4da92aaa47)" d="M 139.341706 76.021366 
C 140.185973 76.021366 140.995774 75.685935 141.59276 75.088948 
C 142.189747 74.491962 142.525178 73.682161 142.525178 72.837894 
C 142.525178 71.993628 142.189747 71.183827 141.59276 70.586841 
C 140.995774 69.989854 140.185973 69.654423 139.341706 69.654423 
C 138.49744 69.654423 137.687639 69.989854 137.090653 70.586841 
C 136.493666 71.183827 136.158235 71.993628 136.158235 72.837894 
C 136.158235 73.682161 136.493666 74.491962 137.090653 75.088948 
C 137.687639 75.685935 138.49744 76.021366 139.341706 76.021366 
z
" style="fill:#0d6efd;stroke:#0d6efd;"/>
    <path clip-path="url(#p4da92aaa47)" d="M 211.698576 164.107804 
C 212.32561 164.107804 212.927047 163.85868 213.370427 163.4153 
C 213.813807 162.97192 214.06293 162.370484 214.06293 161.74345 
C 214.06293 161.116416 213.813807 160.514979 213.370427 160.071599 
C 212.927047 159.628219 212.32561 159.379096 211.698576 159.379096 
C 211.071542 159.379096 210.470105 159.628219 210.026725 160.071599 
C 209.583345 160.514979 209.334222 161.116416 209.334222 161.74345 
C 209.334222 162.370484 209.583345 162.97192 210.026725 163.4153 
C 210.470105 163.85868 211.071542 164.107804 211.698576 164.107804 
z
" style="fill:#0d6efd;stroke:#0d6efd;"/>
    <path clip-path="url(#p4da92aaa47)" d="M 132.149406 197.325898 
C 133.235369 197.325898 134.276999 196.894441 135.044891 196.126549 
C 135.812783 195.358657 136.24424 194.317026 136.24424 193.231064 
C 136.24424 192.145101 135.812783 191.10347 135.044891 190.335578 
C 134.276999 189.567687 133.235369 189.136229 132.149406 189.136229 
C 131.063443 189.136229 130.021812 189.567687 129.25392 190.335578 
C 128.486029 191.10347 128.054571 192.145101 128.054571 193.231064 
C 128.054571 194.317026 128.486029 195.358657 129.25392 196.126549 
C 130.021812 196.894441 131.063443 197.325898 132.149406 197.325898 
z
" style="fill:#0d6efd;stroke:#0d6efd;"/>
    <path clip-path="url(#p4da92aaa47)" d="M 197.272891 95.397055 
C 197.899925 95.397055 198.501362 95.147932 198.944742 94.704552 
C 199.388122 94.261172 199.637245 93.659735 199.637245 93.032701 
C 199.637245 92.405667 199.388122 91.80423 198.944742 91.36085 
C 198.501362 90.91747 197.899925 90.668347 197.272891 90.668347 
C 196.645857 90.668347 196.04442 90.91747 195.60104 91.36085 
C 195.15766 91.80423 194.908537 92.405667 194.908537 93.032701 
C 194.908537 93.659735 195.15766 94.261172 195.60104 94.704552 
C 196.04442 95.147932 196.645857 95.397055 197.272891 95.397055 
z
" style="fill:#0d6efd;stroke:#0d6efd;"/>
    <path clip-path="url(#p4da92aaa47)" d="M 227.524353 141.761446 
C 228.551983 141.761446 229.537662 141.353165 230.264306 140.626521 
C 230.99095 139.899877 231.399231 138.914198 231.399231 137.886568 
C 231.399231 136.858938 230.99095 135.873259 230.264306 135.146615 
C 229.537662 134.419971 228.551983 134.01169 227.524353 134.01169 
C 226.496723 134.01169 225.511044 134.419971 224.7844 135.146615 
C 224.057756 135.873259 223.649475 136.858938 223.649475 137.886568 
C 223.649475 138.914198 224.057756 139.899877 224.7844 140.626521 
C 225.511044 141.353165 226.496723 141.761446 227.524353 141.761446 
z
" style="fill:#0d6efd;stroke:#0d6efd;"/>
    <path clip-path="url(#p4da92aaa47)" d="M 118.966376 140.338497 
C 120.269209 140.338497 121.518858 139.820876 122.4401 138.899634 
C 123.361342 137.978391 123.878964 136.728743 123.878964 135.425909 
C 123.878964 134.123076 123.361342 132.873428 122.4401 131.952185 
C 121.518858 131.030943 120.269209 130.513322 118.966376 130.513322 
C 117.663542 130.513322 116.413894 131.030943 115.492652 131.952185 
C 114.571409 132.873428 114.053788 134.123076 114.053788 135.425909 
C 114.053788 136.728743 114.571409 137.978391 115.492652 138.899634 
C 116.413894 139.820876 117.663542 140.338497 118.966376 140.338497 
z
" style="fill:#0d6efd;stroke:#0d6efd;"/>
    <path clip-path="url(#p4da92aaa47)" d="M 198.364692 50.012545 
C 199.656646 50.012545 200.89586 49.499246 201.80941 48.585696 
C 202.72296 47.672146 203.236259 46.432932 203.236259 45.140978 
C 203.236259 43.849023 202.72296 42.609809 201.80941 41.696259 
C 200.89586 40.78271 199.656646 40.26941 198.364692 40.26941 
C 197.072737 40.26941 195.833523 40.78271 194.919973 41.696259 
C 194.006423 42.609809 193.493124 43.849023 193.493124 45.140978 
C 193.493124 46.432932 194.006423 47.672146 194.919973 48.585696 
C 195.833523 49.499246 197.072737 50.012545 198.364692 50.012545 
z
" style="fill:#0d6efd;stroke:#0d6efd;"/>
    <path clip-path="url(#p4da92aaa47)" d="M 181.897746 107.492679 
C 183.026674 107.492679 184.109517 107.044151 184.90779 106.245878 
C 185.706063 105.447604 186.154591 104.364762 186.154591 103.235833 
C 186.154591 102.106904 185.706063 101.024062 184.90779 100.225789 
C 184.109517 99.427516 183.026674 98.978987 181.897746 98.978987 
C 180.768817 98.978987 179.685974 99.427516 178.887701 100.225789 
C 178.089428 101.024062 177.6409 102.106904 177.6409 103.235833 
C 177.6409 104.364762 178.089428 105.447604 178.887701 106.245878 
C 179.685974 107.044151 180.768817 107.492679 181.897746 107.492679 
z
" style="fill:#0d6efd;stroke:#0d6efd;"/>
    <path clip-path="url(#p4da92aaa47)" d="M 208.345116 134.75164 
C 209.600501 134.75164 210.804637 134.25287 211.692328 133.365179 
C 212.580019 132.477488 213.078789 131.273351 213.078789 130.017967 
C 213.078789 128.762582 212.580019 127.558445 211.692328 126.670754 
C 210.804637 125.783063 209.600501 125.284293 208.345116 125.284293 
C 207.089731 125.284293 205.885595 125.783063 204.997904 126.670754 
C 204.110212 127.558445 203.611443 128.762582 203.611443 130.017967 
C 203.611443 131.273351 204.110212 132.477488 204.997904 133.365179 
C 205.885595 134.25287 207.089731 134.75164 208.345116 134.75164 
z
" style="fill:#0d6efd;stroke:#0d6efd;"/>
    <path clip-path="url(#p4da92aaa47)" d="M 369.828551 142.69715 
C 370.7322 142.69715 371.598959 142.338127 372.237936 141.69915 
C 372.876912 141.060174 373.235936 140.193414 373.235936 139.289765 
C 373.235936 138.386116 372.876912 137.519356 372.237936 136.88038 
C 371.598959 136.241403 370.7322 135.88238 369.828551 135.88238 
C 368.924901 135.88238 368.058142 136.241403 367.419165 136.88038 
C 366.780189 137.519356 366.421165 138.386116 366.421165 139.289765 
C 366.421165 140.193414 366.780189 141.060174 367.419165 141.69915 
C 368.058142 142.338127 368.924901 142.69715 369.828551 142.69715 
z
" style="fill:#0d6efd;stroke:#0d6efd;"/>
    <path clip-path="url(#p4da92aaa47)" d="M 160.660237 176.076908 
C 161.305535 176.076908 161.92449 175.820528 162.380785 175.364234 
C 162.837079 174.907939 163.093459 174.288984 163.093459 173.643686 
C 163.093459 172.998388 162.837079 172.379433 162.380785 171.923138 
C 161.92449 171.466844 161.305535 171.210464 160.660237 171.210464 
C 160.014939 171.210464 159.395984 171.466844 158.939689 171.923138 
C 158.483395 172.379433 158.227015 172.998388 158.227015 173.643686 
C 158.227015 174.288984 158.483395 174.907939 158.939689 175.364234 
C 159.395984 175.820528 160.014939 176.076908 160.660237 176.076908 
z
" style="fill:#0d6efd;stroke:#0d6efd;"/>
    <path clip-path="url(#p4da92aaa47)" d="M 159.363916 129.981301 
C 160.757305 129.981301 162.093813 129.427701 163.079088 128.442426 
C 164.064363 127.457151 164.617962 126.120644 164.617962 124.727254 
C 164.617962 123.333865 164.064363 121.997358 163.079088 121.012083 
C 162.093813 120.026808 160.757305 119.473208 159.363916 119.473208 
C 157.970527 119.473208 156.634019 120.026808 155.648744 121.012083 
C 154.663469 121.997358 154.10987 123.333865 154.10987 124.727254 
C 154.10987 126.120644 154.663469 127.457151 155.648744 128.442426 
C 156.634019 129.427701 157.970527 129.981301 159.363916 129.981301 
z
" style="fill:#0d6efd;stroke:#0d6efd;"/>
    <path clip-path="url(#p4da92aaa47)" d="M 260.637285 138.963961 
C 261.643574 138.963961 262.608783 138.564158 263.320337 137.852604 
C 264.031891 137.14105 264.431694 136.175841 264.431694 135.169552 
C 264.431694 134.163263 264.031891 133.198053 263.320337 132.4865 
C 262.608783 131.774946 261.643574 131.375143 260.637285 131.375143 
C 259.630996 131.375143 258.665786 131.774946 257.954233 132.4865 
C 257.242679 133.198053 256.842876 134.163263 256.842876 135.169552 
C 256.842876 136.175841 257.242679 137.14105 257.954233 137.852604 
C 258.665786 138.564158 259.630996 138.963961 260.637285 138.963961 
z
" style="fill:#0d6efd;stroke:#0d6efd;"/>
    <path clip-path="url(#p4da92aaa47)" d="M 400.511725 102.13713 
C 401.707025 102.13713 402.853529 101.662232 403.698734 100.817027 
C 404.543939 99.971823 405.018837 98.825318 405.018837 97.630018 
C 405.018837 96.434718 404.543939 95.288213 403.698734 94.443008 
C 402.853529 93.597803 401.707025 93.122905 400.511725 93.122905 
C 399.316424 93.122905 398.16992 93.597803 397.324715 94.443008 
C 396.47951 95.288213 396.004612 96.434718 396.004612 97.630018 
C 396.004612 98.825318 396.47951 99.971823 397.324715 100.817027 
C 398.16992 101.662232 399.316424 102.13713 400.511725 102.13713 
z
" style="fill:#0d6efd;stroke:#0d6efd;"/>
    <path clip-path="url(#p4da92aaa47)" d="M 205.500501 203.637267 
C 206.556421 203.637267 207.569235 203.217746 208.315882 202.471098 
C 209.06253 201.72445 209.482052 200.711637 209.482052 199.655717 
C 209.482052 198.599798 209.06253 197.586984 208.315882 196.840336 
C 207.569235 196.093688 206.556421 195.674167 205.500501 195.674167 
C 204.444582 195.674167 203.431768 196.093688 202.68512 196.840336 
C 201.938472 197.586984 201.518951 198.599798 201.518951 199.655717 
C 201.518951 200.711637 201.938472 201.72445 202.68512 202.471098 
C 203.431768 203.217746 204.444582 203.637267 205.500501 203.637267 
z
" style="fill:#0d6efd;stroke:#0d6efd;"/>
    <path clip-path="url(#p4da92aaa47)" d="M 312.987759 142.199418 
C 314.008894 142.199418 314.988344 141.793716 315.710395 141.071665 
C 316.432447 140.349613 316.838148 139.370163 316.838148 138.349028 
C 316.838148 137.327893 316.432447 136.348444 315.710395 135.626392 
C 314.988344 134.90434 314.008894 134.498639 312.987759 134.498639 
C 311.966624 134.498639 310.987174 134.90434 310.265123 135.626392 
C 309.543071 136.348444 309.13737 137.327893 309.13737 138.349028 
C 309.13737 139.370163 309.543071 140.349613 310.265123 141.071665 
C 310.987174 141.793716 311.966624 142.199418 312.987759 142.199418 
z
" style="fill:#0d6efd;stroke:#0d6efd;"/>
    <path clip-path="url(#p4da92aaa47)" d="M 401.712397 193.931807 
C 402.508301 193.931807 403.271715 193.61559 403.834504 193.052801 
C 404.397294 192.490011 404.71351 191.726598 404.71351 190.930693 
C 404.71351 190.134788 404.397294 189.371375 403.834504 188.808585 
C 403.271715 188.245796 402.508301 187.929579 401.712397 187.929579 
C 400.916492 187.929579 400.153078 188.245796 399.590289 188.808585 
C 399.027499 189.371375 398.711283 190.134788 398.711283 190.930693 
C 398.711283 191.726598 399.027499 192.490011 399.590289 193.052801 
C 400.153078 193.61559 400.916492 193.931807 401.712397 193.931807 
z
" style="fill:#0d6efd;stroke:#0d6efd;"/>
    <path clip-path="url(#p4da92aaa47)" d="M 301.405077 83.73983 
C 302.032111 83.73983 302.633548 83.490707 303.076928 83.047327 
C 303.520308 82.603947 303.769431 82.00251 303.769431 81.375476 
C 303.769431 80.748442 303.520308 80.147005 303.076928 79.703625 
C 302.633548 79.260245 302.032111 79.011122 301.405077 79.011122 
C 300.778043 79.011122 300.176606 79.260245 299.733226 79.703625 
C 299.289846 80.147005 299.040723 80.748442 299.040723 81.375476 
C 299.040723 82.00251 299.289846 82.603947 299.733226 83.047327 
C 300.176606 83.490707 300.778043 83.73983 301.405077 83.73983 
z
" style="fill:#0d6efd;stroke:#0d6efd;"/>
   </g>
   <g id="text_1">
    <g clip-path="url(#p4da92aaa47)">
     <!-- й -->
     <g style="fill:#ffffff;" transform="translate(42.732525 189.081008)scale(0.07 -0.07)">
      <defs>
       <path d="M 422 3319 
L 984 3319 
L 984 788 
L 2544 3319 
L 3150 3319 
L 3150 0 
L 2588 0 
L 2588 2516 
L 1028 0 
L 422 0 
L 422 3319 
z
M 2374 4575 
L 2759 4575 
Q 2712 4184 2473 3975 
Q 2234 3766 1837 3766 
Q 1437 3766 1198 3973 
Q 959 4181 912 4575 
L 1296 4575 
Q 1340 4363 1469 4258 
Q 1599 4153 1818 4153 
Q 2071 4153 2201 4254 
Q 2331 4356 2374 4575 
z
" id="ArialMT-439" transform="scale(0.015625)"/>
      </defs>
      <use xlink:href="#ArialMT-439"/>
     </g>
    </g>
   </g>
   <g id="text_2">
    <g clip-path="url(#p4da92aaa47)">
     <!-- с -->
     <g style="fill:#ffffff;" transform="translate(101.571389 158.079892)scale(0.07 -0.07)">
      <defs>
       <path d="M 2588 1216 
L 3141 1144 
Q 3050 572 2676 248 
Q 2303 -75 1759 -75 
Q 1078 -75 664 370 
Q 250 816 250 1647 
Q 250 2184 428 2587 
Q 606 2991 970 3192 
Q 1334 3394 1763 3394 
Q 2303 3394 2647 3120 
Q 2991 2847 3088 2344 
L 2541 2259 
Q 2463 2594 2264 2762 
Q 2066 2931 1784 2931 
Q 1359 2931 1093 2626 
Q 828 2322 828 1663 
Q 828 994 1084 691 
Q 1341 388 1753 388 
Q 2084 388 2306 591 
Q 2528 794 2588 1216 
z
" id="ArialMT-441" transform="scale(0.015625)"/>
      </defs>
      <use xlink:href="#ArialMT-441"/>
     </g>
    </g>
   </g>
   <g id="text_3">
    <g clip-path="url(#p4da92aaa47)">
     <!-- ц -->
     <g style="fill:#ffffff;" transform="translate(303.913109 147.978362)scale(0.07 -0.07)">
      <defs>
       <path d="M 431 3319 
L 994 3319 
L 994 463 
L 2550 463 
L 2550 3319 
L 3113 3319 
L 3113 463 
L 3475 463 
L 3475 -941 
L 3013 -941 
L 3013 0 
L 431 0 
L 431 3319 
z
" id="ArialMT-446" transform="scale(0.015625)"/>
      </defs>
      <use xlink:href="#ArialMT-446"/>
     </g>
    </g>
   </g>
   <g id="text_4">
    <g clip-path="url(#p4da92aaa47)">
     <!-- е -->
     <g style="fill:#ffffff;" transform="translate(319.832614 80.573648)scale(0.07 -0.07)">
      <defs>
       <path d="M 2694 1069 
L 3275 997 
Q 3138 488 2766 206 
Q 2394 -75 1816 -75 
Q 1088 -75 661 373 
Q 234 822 234 1631 
Q 234 2469 665 2931 
Q 1097 3394 1784 3394 
Q 2450 3394 2872 2941 
Q 3294 2488 3294 1666 
Q 3294 1616 3291 1516 
L 816 1516 
Q 847 969 1125 678 
Q 1403 388 1819 388 
Q 2128 388 2347 550 
Q 2566 713 2694 1069 
z
M 847 1978 
L 2700 1978 
Q 2663 2397 2488 2606 
Q 2219 2931 1791 2931 
Q 1403 2931 1139 2672 
Q 875 2413 847 1978 
z
" id="ArialMT-435" transform="scale(0.015625)"/>
      </defs>
      <use xlink:href="#ArialMT-435"/>
     </g>
    </g>
   </g>
   <g id="text_5">
    <g clip-path="url(#p4da92aaa47)">
     <!-- а -->
     <g style="fill:#ffffff;" transform="translate(211.956061 179.625782)scale(0.07 -0.07)">
      <defs>
       <path d="M 2588 409 
Q 2275 144 1986 34 
Q 1697 -75 1366 -75 
Q 819 -75 525 192 
Q 231 459 231 875 
Q 231 1119 342 1320 
Q 453 1522 633 1644 
Q 813 1766 1038 1828 
Q 1203 1872 1538 1913 
Q 2219 1994 2541 2106 
Q 2544 2222 2544 2253 
Q 2544 2597 2384 2738 
Q 2169 2928 1744 2928 
Q 1347 2928 1158 2789 
Q 969 2650 878 2297 
L 328 2372 
Q 403 2725 575 2942 
Q 747 3159 1072 3276 
Q 1397 3394 1825 3394 
Q 2250 3394 2515 3294 
Q 2781 3194 2906 3042 
Q 3031 2891 3081 2659 
Q 3109 2516 3109 2141 
L 3109 1391 
Q 3109 606 3145 398 
Q 3181 191 3288 0 
L 2700 0 
Q 2613 175 2588 409 
z
M 2541 1666 
Q 2234 1541 1622 1453 
Q 1275 1403 1131 1340 
Q 988 1278 909 1158 
Q 831 1038 831 891 
Q 831 666 1001 516 
Q 1172 366 1500 366 
Q 1825 366 2078 508 
Q 2331 650 2450 897 
Q 2541 1088 2541 1459 
L 2541 1666 
z
" id="ArialMT-430" transform="scale(0.015625)"/>
      </defs>
      <use xlink:href="#ArialMT-430"/>
     </g>
    </g>
   </g>
   <g id="text_6">
    <g clip-path="url(#p4da92aaa47)">
     <!-- у -->
     <g style="fill:#ffffff;" transform="translate(339.728982 271.935843)scale(0.07 -0.07)">
      <defs>
       <path d="M 397 -1278 
L 334 -750 
Q 519 -800 656 -800 
Q 844 -800 956 -737 
Q 1069 -675 1141 -563 
Q 1194 -478 1313 -144 
Q 1328 -97 1363 -6 
L 103 3319 
L 709 3319 
L 1400 1397 
Q 1534 1031 1641 628 
Q 1738 1016 1872 1384 
L 2581 3319 
L 3144 3319 
L 1881 -56 
Q 1678 -603 1566 -809 
Q 1416 -1088 1222 -1217 
Q 1028 -1347 759 -1347 
Q 597 -1347 397 -1278 
z
" id="ArialMT-443" transform="scale(0.015625)"/>
      </defs>
      <use xlink:href="#ArialMT-443"/>
     </g>
    </g>
   </g>
   <g id="text_7">
    <g clip-path="url(#p4da92aaa47)">
     <!-- д -->
     <g style="fill:#ffffff;" transform="translate(284.701733 226.783338)scale(0.07 -0.07)">
      <defs>
       <path d="M 866 3319 
L 3178 3319 
L 3178 463 
L 3538 463 
L 3538 -941 
L 3075 -941 
L 3075 0 
L 463 0 
L 463 -941 
L 0 -941 
L 0 463 
L 297 463 
Q 891 1269 866 3319 
z
M 1334 2853 
Q 1272 1238 834 463 
L 2619 463 
L 2619 2853 
L 1334 2853 
z
" id="ArialMT-434" transform="scale(0.015625)"/>
      </defs>
      <use xlink:href="#ArialMT-434"/>
     </g>
    </g>
   </g>
   <g id="text_8">
    <g clip-path="url(#p4da92aaa47)">
     <!-- к -->
     <g style="fill:#ffffff;" transform="translate(193.600425 131.05616)scale(0.07 -0.07)">
      <defs>
       <path d="M 419 3319 
L 981 3319 
L 981 1884 
Q 1250 1884 1358 1987 
Q 1466 2091 1675 2588 
Q 1841 2981 1944 3106 
Q 2047 3231 2181 3275 
Q 2316 3319 2613 3319 
L 2725 3319 
L 2725 2853 
L 2569 2856 
Q 2347 2856 2284 2791 
Q 2219 2722 2084 2381 
Q 1956 2056 1850 1931 
Q 1744 1806 1522 1703 
Q 1884 1606 2234 1028 
L 2850 0 
L 2231 0 
L 1631 1028 
Q 1447 1338 1309 1436 
Q 1172 1534 981 1534 
L 981 0 
L 419 0 
L 419 3319 
z
" id="ArialMT-43a" transform="scale(0.015625)"/>
      </defs>
      <use xlink:href="#ArialMT-43a"/>
     </g>
    </g>
   </g>
   <g id="text_9">
    <g clip-path="url(#p4da92aaa47)">
     <!-- о -->
     <g style="fill:#ffffff;" transform="translate(163.983396 40.692099)scale(0.07 -0.07)">
      <defs>
       <path d="M 213 1659 
Q 213 2581 725 3025 
Q 1153 3394 1769 3394 
Q 2453 3394 2887 2945 
Q 3322 2497 3322 1706 
Q 3322 1066 3130 698 
Q 2938 331 2570 128 
Q 2203 -75 1769 -75 
Q 1072 -75 642 372 
Q 213 819 213 1659 
z
M 791 1659 
Q 791 1022 1069 705 
Q 1347 388 1769 388 
Q 2188 388 2466 706 
Q 2744 1025 2744 1678 
Q 2744 2294 2464 2611 
Q 2184 2928 1769 2928 
Q 1347 2928 1069 2612 
Q 791 2297 791 1659 
z
" id="ArialMT-43e" transform="scale(0.015625)"/>
      </defs>
      <use xlink:href="#ArialMT-43e"/>
     </g>
    </g>
   </g>
   <g id="text_10">
    <g clip-path="url(#p4da92aaa47)">
     <!-- н -->
     <g style="fill:#ffffff;" transform="translate(244.172746 98.385939)scale(0.07 -0.07)">
      <defs>
       <path d="M 425 3319 
L 988 3319 
L 988 1938 
L 2547 1938 
L 2547 3319 
L 3109 3319 
L 3109 0 
L 2547 0 
L 2547 1472 
L 988 1472 
L 988 0 
L 425 0 
L 425 3319 
z
" id="ArialMT-43d" transform="scale(0.015625)"/>
      </defs>
      <use xlink:href="#ArialMT-43d"/>
     </g>
    </g>
   </g>
   <g id="text_11">
    <g clip-path="url(#p4da92aaa47)">
     <!-- г -->
     <g style="fill:#ffffff;" transform="translate(130.410562 34.001345)scale(0.07 -0.07)">
      <defs>
       <path d="M 425 3319 
L 2334 3319 
L 2334 2853 
L 988 2853 
L 988 0 
L 425 0 
L 425 3319 
z
" id="ArialMT-433" transform="scale(0.015625)"/>
      </defs>
      <use xlink:href="#ArialMT-433"/>
     </g>
    </g>
   </g>
   <g id="text_12">
    <g clip-path="url(#p4da92aaa47)">
     <!-- ш -->
     <g style="fill:#ffffff;" transform="translate(221.077448 135.585348)scale(0.07 -0.07)">
      <defs>
       <path d="M 441 3319 
L 1003 3319 
L 1003 466 
L 2284 466 
L 2284 3319 
L 2847 3319 
L 2847 466 
L 4131 466 
L 4131 3319 
L 4691 3319 
L 4691 0 
L 441 0 
L 441 3319 
z
" id="ArialMT-448" transform="scale(0.015625)"/>
      </defs>
      <use xlink:href="#ArialMT-448"/>
     </g>
    </g>
   </g>
   <g id="text_13">
    <g clip-path="url(#p4da92aaa47)">
     <!-- и -->
     <g style="fill:#ffffff;" transform="translate(62.179114 131.921744)scale(0.07 -0.07)">
      <defs>
       <path d="M 422 3319 
L 984 3319 
L 984 788 
L 2544 3319 
L 3150 3319 
L 3150 0 
L 2588 0 
L 2588 2516 
L 1028 0 
L 422 0 
L 422 3319 
z
" id="ArialMT-438" transform="scale(0.015625)"/>
      </defs>
      <use xlink:href="#ArialMT-438"/>
     </g>
    </g>
   </g>
   <g id="text_14">
    <g clip-path="url(#p4da92aaa47)">
     <!-- щ -->
     <g style="fill:#ffffff;" transform="translate(223.005101 108.717605)scale(0.07 -0.07)">
      <defs>
       <path d="M 441 3319 
L 1003 3319 
L 1003 463 
L 2284 463 
L 2284 3319 
L 2847 3319 
L 2847 463 
L 4131 463 
L 4131 3319 
L 4691 3319 
L 4691 463 
L 5063 463 
L 5063 -941 
L 4597 -941 
L 4597 0 
L 441 0 
L 441 3319 
z
" id="ArialMT-449" transform="scale(0.015625)"/>
      </defs>
      <use xlink:href="#ArialMT-449"/>
     </g>
    </g>
   </g>
   <g id="text_15">
    <g clip-path="url(#p4da92aaa47)">
     <!-- з -->
     <g style="fill:#ffffff;" transform="translate(269.561476 207.042152)scale(0.07 -0.07)">
      <defs>
       <path d="M 1156 1500 
L 1156 1941 
Q 1513 1944 1642 1969 
Q 1772 1994 1887 2119 
Q 2003 2244 2003 2431 
Q 2003 2659 1851 2795 
Q 1700 2931 1459 2931 
Q 984 2931 794 2372 
L 259 2459 
Q 509 3394 1466 3394 
Q 1997 3394 2298 3103 
Q 2600 2813 2600 2409 
Q 2600 2003 2206 1763 
Q 2456 1628 2581 1420 
Q 2706 1213 2706 928 
Q 2706 481 2381 203 
Q 2056 -75 1472 -75 
Q 338 -75 156 934 
L 684 1047 
Q 756 728 976 553 
Q 1197 378 1481 378 
Q 1766 378 1955 539 
Q 2144 700 2144 950 
Q 2144 1144 2025 1287 
Q 1906 1431 1772 1467 
Q 1638 1503 1284 1503 
Q 1256 1503 1156 1500 
z
" id="ArialMT-437" transform="scale(0.015625)"/>
      </defs>
      <use xlink:href="#ArialMT-437"/>
     </g>
    </g>
   </g>
   <g id="text_16">
    <g clip-path="url(#p4da92aaa47)">
     <!-- х -->
     <g style="fill:#ffffff;" transform="translate(137.591706 74.647504)scale(0.07 -0.07)">
      <defs>
       <path d="M 47 0 
L 1259 1725 
L 138 3319 
L 841 3319 
L 1350 2541 
Q 1494 2319 1581 2169 
Q 1719 2375 1834 2534 
L 2394 3319 
L 3066 3319 
L 1919 1756 
L 3153 0 
L 2463 0 
L 1781 1031 
L 1600 1309 
L 728 0 
L 47 0 
z
" id="ArialMT-445" transform="scale(0.015625)"/>
      </defs>
      <use xlink:href="#ArialMT-445"/>
     </g>
    </g>
   </g>
   <g id="text_17">
    <g clip-path="url(#p4da92aaa47)">
     <!-- ъ -->
     <g style="fill:#ffffff;" transform="translate(209.511076 163.553059)scale(0.07 -0.07)">
      <defs>
       <path d="M 125 3319 
L 1609 3319 
L 1609 2022 
L 2325 2022 
Q 3084 2022 3428 1726 
Q 3772 1431 3772 1003 
Q 3772 559 3439 279 
Q 3106 0 2456 0 
L 1047 0 
L 1047 2853 
L 125 2853 
L 125 3319 
z
M 1609 456 
L 2200 456 
Q 2738 456 2963 586 
Q 3188 716 3188 1003 
Q 3188 1266 2995 1409 
Q 2803 1553 2275 1553 
L 1609 1553 
L 1609 456 
z
" id="ArialMT-44a" transform="scale(0.015625)"/>
      </defs>
      <use xlink:href="#ArialMT-44a"/>
     </g>
    </g>
   </g>
   <g id="text_18">
    <g clip-path="url(#p4da92aaa47)">
     <!-- я -->
     <g style="fill:#ffffff;" transform="translate(130.253937 195.040673)scale(0.07 -0.07)">
      <defs>
       <path d="M 3034 3319 
L 3034 0 
L 2475 0 
L 2475 1294 
L 2150 1294 
Q 1853 1294 1708 1217 
Q 1563 1141 1284 725 
L 794 0 
L 97 0 
L 703 894 
Q 981 1303 1256 1356 
Q 775 1422 542 1703 
Q 309 1984 309 2350 
Q 309 2781 614 3050 
Q 919 3319 1497 3319 
L 3034 3319 
z
M 2475 2853 
L 1675 2853 
Q 1172 2853 1026 2697 
Q 881 2541 881 2331 
Q 881 2034 1095 1895 
Q 1309 1756 1853 1756 
L 2475 1756 
L 2475 2853 
z
" id="ArialMT-44f" transform="scale(0.015625)"/>
      </defs>
      <use xlink:href="#ArialMT-44f"/>
     </g>
    </g>
   </g>
   <g id="text_19">
    <g clip-path="url(#p4da92aaa47)">
     <!-- ф -->
     <g style="fill:#ffffff;" transform="translate(194.393047 94.84231)scale(0.07 -0.07)">
      <defs>
       <path d="M 2353 4581 
L 2916 4581 
L 2916 2997 
Q 3091 3197 3300 3295 
Q 3509 3394 3750 3394 
Q 4341 3394 4686 2901 
Q 5031 2409 5031 1663 
Q 5031 884 4659 404 
Q 4288 -75 3734 -75 
Q 3553 -75 3365 -18 
Q 3178 38 2916 288 
L 2916 -1272 
L 2353 -1272 
L 2353 288 
Q 2184 106 1979 15 
Q 1775 -75 1538 -75 
Q 1016 -75 625 383 
Q 234 841 234 1694 
Q 234 2416 587 2905 
Q 941 3394 1538 3394 
Q 1788 3394 1991 3295 
Q 2194 3197 2353 2997 
L 2353 4581 
z
M 2913 1647 
Q 2913 897 3119 639 
Q 3325 381 3634 381 
Q 3978 381 4220 698 
Q 4463 1016 4463 1684 
Q 4463 2316 4239 2625 
Q 4016 2934 3666 2934 
Q 3291 2934 3102 2612 
Q 2913 2291 2913 1647 
z
M 806 1709 
Q 806 1006 1042 697 
Q 1278 388 1628 388 
Q 1994 388 2175 695 
Q 2356 1003 2356 1619 
Q 2356 2275 2165 2603 
Q 1975 2931 1591 2931 
Q 1244 2931 1025 2611 
Q 806 2291 806 1709 
z
" id="ArialMT-444" transform="scale(0.015625)"/>
      </defs>
      <use xlink:href="#ArialMT-444"/>
     </g>
    </g>
   </g>
   <g id="text_20">
    <g clip-path="url(#p4da92aaa47)">
     <!-- ы -->
     <g style="fill:#ffffff;" transform="translate(225.008728 139.696177)scale(0.07 -0.07)">
      <defs>
       <path d="M 3581 3319 
L 4144 3319 
L 4144 0 
L 3581 0 
L 3581 3319 
z
M 434 3319 
L 997 3319 
L 997 2022 
L 1709 2022 
Q 2406 2022 2782 1751 
Q 3159 1481 3159 1006 
Q 3159 591 2845 295 
Q 2531 0 1841 0 
L 434 0 
L 434 3319 
z
M 997 463 
L 1588 463 
Q 2122 463 2350 594 
Q 2578 725 2578 1003 
Q 2578 1219 2409 1387 
Q 2241 1556 1663 1556 
L 997 1556 
L 997 463 
z
" id="ArialMT-44b" transform="scale(0.015625)"/>
      </defs>
      <use xlink:href="#ArialMT-44b"/>
     </g>
    </g>
   </g>
   <g id="text_21">
    <g clip-path="url(#p4da92aaa47)">
     <!-- л -->
     <g style="fill:#ffffff;" transform="translate(116.924345 137.235519)scale(0.07 -0.07)">
      <defs>
       <path d="M 697 3319 
L 3309 3319 
L 3309 0 
L 2750 0 
L 2750 2853 
L 1259 2853 
L 1259 1200 
Q 1259 622 1221 437 
Q 1184 253 1015 115 
Q 847 -22 528 -22 
Q 331 -22 75 3 
L 75 472 
L 322 472 
Q 497 472 572 508 
Q 647 544 672 622 
Q 697 700 697 1131 
L 697 3319 
z
" id="ArialMT-43b" transform="scale(0.015625)"/>
      </defs>
      <use xlink:href="#ArialMT-43b"/>
     </g>
    </g>
   </g>
   <g id="text_22">
    <g clip-path="url(#p4da92aaa47)">
     <!-- в -->
     <g style="fill:#ffffff;" transform="translate(196.505317 46.950587)scale(0.07 -0.07)">
      <defs>
       <path d="M 425 3319 
L 1722 3319 
Q 2200 3319 2433 3239 
Q 2666 3159 2833 2946 
Q 3000 2734 3000 2438 
Q 3000 2200 2901 2023 
Q 2803 1847 2606 1728 
Q 2841 1650 2995 1436 
Q 3150 1222 3150 928 
Q 3119 456 2812 228 
Q 2506 0 1922 0 
L 425 0 
L 425 3319 
z
M 988 1922 
L 1588 1922 
Q 1947 1922 2081 1959 
Q 2216 1997 2322 2111 
Q 2428 2225 2428 2384 
Q 2428 2647 2242 2750 
Q 2056 2853 1606 2853 
L 988 2853 
L 988 1922 
z
M 988 463 
L 1728 463 
Q 2206 463 2384 573 
Q 2563 684 2572 956 
Q 2572 1116 2469 1252 
Q 2366 1388 2200 1423 
Q 2034 1459 1669 1459 
L 988 1459 
L 988 463 
z
" id="ArialMT-432" transform="scale(0.015625)"/>
      </defs>
      <use xlink:href="#ArialMT-432"/>
     </g>
    </g>
   </g>
   <g id="text_23">
    <g clip-path="url(#p4da92aaa47)">
     <!-- п -->
     <g style="fill:#ffffff;" transform="translate(180.002277 105.045442)scale(0.07 -0.07)">
      <defs>
       <path d="M 425 3319 
L 3044 3319 
L 3044 0 
L 2481 0 
L 2481 2853 
L 988 2853 
L 988 0 
L 425 0 
L 425 3319 
z
" id="ArialMT-43f" transform="scale(0.015625)"/>
      </defs>
      <use xlink:href="#ArialMT-43f"/>
     </g>
    </g>
   </g>
   <g id="text_24">
    <g clip-path="url(#p4da92aaa47)">
     <!-- р -->
     <g style="fill:#ffffff;" transform="translate(206.398788 131.827576)scale(0.07 -0.07)">
      <defs>
       <path d="M 422 -1272 
L 422 3319 
L 934 3319 
L 934 2888 
Q 1116 3141 1344 3267 
Q 1572 3394 1897 3394 
Q 2322 3394 2647 3175 
Q 2972 2956 3137 2557 
Q 3303 2159 3303 1684 
Q 3303 1175 3120 767 
Q 2938 359 2589 142 
Q 2241 -75 1856 -75 
Q 1575 -75 1351 44 
Q 1128 163 984 344 
L 984 -1272 
L 422 -1272 
z
M 931 1641 
Q 931 1000 1190 694 
Q 1450 388 1819 388 
Q 2194 388 2461 705 
Q 2728 1022 2728 1688 
Q 2728 2322 2467 2637 
Q 2206 2953 1844 2953 
Q 1484 2953 1207 2617 
Q 931 2281 931 1641 
z
" id="ArialMT-440" transform="scale(0.015625)"/>
      </defs>
      <use xlink:href="#ArialMT-440"/>
     </g>
    </g>
   </g>
   <g id="text_25">
    <g clip-path="url(#p4da92aaa47)">
     <!-- ж -->
     <g style="fill:#ffffff;" transform="translate(367.487379 141.099374)scale(0.07 -0.07)">
      <defs>
       <path d="M 2428 3319 
L 2428 1884 
Q 2697 1884 2806 1987 
Q 2916 2091 3125 2588 
Q 3322 3059 3478 3191 
Q 3631 3319 3966 3319 
L 4172 3319 
L 4172 2853 
L 4019 2856 
Q 3794 2856 3731 2791 
Q 3666 2722 3531 2381 
Q 3406 2056 3300 1931 
Q 3194 1806 2969 1703 
Q 3334 1606 3681 1028 
L 4300 0 
L 3681 0 
L 3078 1028 
Q 2894 1341 2756 1437 
Q 2619 1534 2428 1534 
L 2428 0 
L 1853 0 
L 1853 1534 
Q 1666 1534 1528 1439 
Q 1391 1344 1206 1028 
L 603 0 
L -16 0 
L 600 1028 
Q 950 1606 1316 1703 
Q 1066 1819 966 1955 
Q 866 2091 666 2603 
Q 597 2775 519 2816 
Q 438 2856 278 2856 
Q 238 2856 113 2853 
L 113 3319 
L 191 3319 
Q 516 3319 648 3280 
Q 781 3241 886 3114 
Q 991 2988 1159 2588 
Q 1366 2097 1473 1990 
Q 1581 1884 1853 1884 
L 1853 3319 
L 2428 3319 
z
" id="ArialMT-436" transform="scale(0.015625)"/>
      </defs>
      <use xlink:href="#ArialMT-436"/>
     </g>
    </g>
   </g>
   <g id="text_26">
    <g clip-path="url(#p4da92aaa47)">
     <!-- э -->
     <g style="fill:#ffffff;" transform="translate(158.874143 175.453296)scale(0.07 -0.07)">
      <defs>
       <path d="M 1263 1931 
L 1263 1469 
L 2434 1469 
Q 2381 928 2154 658 
Q 1928 388 1525 388 
Q 813 388 684 1213 
L 134 1141 
Q 222 594 589 259 
Q 956 -75 1550 -75 
Q 2256 -116 2643 373 
Q 3031 863 3013 1659 
Q 3013 2469 2609 2931 
Q 2206 3394 1509 3394 
Q 953 3394 609 3098 
Q 266 2803 191 2338 
L 738 2250 
Q 875 2928 1528 2928 
Q 1903 2928 2142 2651 
Q 2381 2375 2434 1931 
L 1263 1931 
z
" id="ArialMT-44d" transform="scale(0.015625)"/>
      </defs>
      <use xlink:href="#ArialMT-44d"/>
     </g>
    </g>
   </g>
   <g id="text_27">
    <g clip-path="url(#p4da92aaa47)">
     <!-- т -->
     <g style="fill:#ffffff;" transform="translate(157.761025 126.536864)scale(0.07 -0.07)">
      <defs>
       <path d="M 119 3319 
L 2816 3319 
L 2816 2853 
L 1747 2853 
L 1747 0 
L 1188 0 
L 1188 2853 
L 119 2853 
L 119 3319 
z
" id="ArialMT-442" transform="scale(0.015625)"/>
      </defs>
      <use xlink:href="#ArialMT-442"/>
     </g>
    </g>
   </g>
   <g id="text_28">
    <g clip-path="url(#p4da92aaa47)">
     <!-- ч -->
     <g style="fill:#ffffff;" transform="translate(258.814004 136.979161)scale(0.07 -0.07)">
      <defs>
       <path d="M 216 3319 
L 778 3319 
L 778 2691 
Q 778 2284 826 2101 
Q 875 1919 1059 1783 
Q 1244 1647 1522 1647 
Q 1841 1647 2347 1816 
L 2347 3319 
L 2909 3319 
L 2909 0 
L 2347 0 
L 2347 1338 
Q 1828 1175 1378 1175 
Q 1000 1175 711 1367 
Q 422 1559 319 1837 
Q 216 2116 216 2450 
L 216 3319 
z
" id="ArialMT-447" transform="scale(0.015625)"/>
      </defs>
      <use xlink:href="#ArialMT-447"/>
     </g>
    </g>
   </g>
   <g id="text_29">
    <g clip-path="url(#p4da92aaa47)">
     <!-- м -->
     <g style="fill:#ffffff;" transform="translate(398.105475 99.439627)scale(0.07 -0.07)">
      <defs>
       <path d="M 438 3319 
L 1313 3319 
L 2184 663 
L 3153 3319 
L 3963 3319 
L 3963 0 
L 3400 0 
L 3400 2672 
L 2419 0 
L 1916 0 
L 988 2800 
L 988 0 
L 438 0 
L 438 3319 
z
" id="ArialMT-43c" transform="scale(0.015625)"/>
      </defs>
      <use xlink:href="#ArialMT-43c"/>
     </g>
    </g>
   </g>
   <g id="text_30">
    <g clip-path="url(#p4da92aaa47)">
     <!-- ь -->
     <g style="fill:#ffffff;" transform="translate(203.67722 201.465326)scale(0.07 -0.07)">
      <defs>
       <path d="M 413 3319 
L 975 3319 
L 975 2022 
L 1688 2022 
Q 2384 2022 2761 1751 
Q 3138 1481 3138 1006 
Q 3138 591 2823 295 
Q 2509 0 1819 0 
L 413 0 
L 413 3319 
z
M 975 463 
L 1566 463 
Q 2100 463 2328 594 
Q 2556 725 2556 1003 
Q 2556 1219 2387 1387 
Q 2219 1556 1641 1556 
L 975 1556 
L 975 463 
z
" id="ArialMT-44c" transform="scale(0.015625)"/>
      </defs>
      <use xlink:href="#ArialMT-44c"/>
     </g>
    </g>
   </g>
   <g id="text_31">
    <g clip-path="url(#p4da92aaa47)">
     <!-- б -->
     <g style="fill:#ffffff;" transform="translate(310.982915 140.158638)scale(0.07 -0.07)">
      <defs>
       <path d="M 2853 4691 
L 3350 4684 
Q 3316 4350 3202 4219 
Q 3088 4088 2908 4050 
Q 2728 4013 2203 4013 
Q 1506 4013 1253 3878 
Q 1000 3744 889 3448 
Q 778 3153 766 2688 
Q 978 3003 1262 3161 
Q 1547 3319 1903 3319 
Q 2556 3319 2984 2870 
Q 3413 2422 3413 1656 
Q 3413 1075 3197 703 
Q 2981 331 2686 128 
Q 2391 -75 1881 -75 
Q 1291 -75 962 195 
Q 634 466 459 887 
Q 284 1309 284 2356 
Q 284 3672 729 4128 
Q 1175 4584 2100 4584 
Q 2675 4584 2753 4603 
Q 2831 4622 2853 4691 
z
M 2825 1672 
Q 2825 2191 2579 2522 
Q 2334 2853 1888 2853 
Q 1422 2853 1169 2503 
Q 916 2153 916 1569 
Q 916 991 1195 684 
Q 1475 378 1884 378 
Q 2303 378 2564 733 
Q 2825 1088 2825 1672 
z
" id="ArialMT-431" transform="scale(0.015625)"/>
      </defs>
      <use xlink:href="#ArialMT-431"/>
     </g>
    </g>
   </g>
   <g id="text_32">
    <g clip-path="url(#p4da92aaa47)">
     <!-- ю -->
     <g style="fill:#ffffff;" transform="translate(399.087397 192.740302)scale(0.07 -0.07)">
      <defs>
       <path d="M 428 3319 
L 991 3319 
L 991 1931 
L 1672 1931 
Q 1747 2644 2117 3019 
Q 2488 3394 3078 3394 
Q 3581 3394 3872 3191 
Q 4163 2988 4352 2631 
Q 4541 2275 4541 1672 
Q 4541 813 4150 369 
Q 3759 -75 3091 -75 
Q 2469 -75 2094 337 
Q 1719 750 1672 1469 
L 991 1469 
L 991 0 
L 428 0 
L 428 3319 
z
M 3109 2916 
Q 2697 2916 2467 2598 
Q 2238 2281 2238 1709 
Q 2238 1025 2469 706 
Q 2700 388 3088 388 
Q 3472 388 3717 683 
Q 3963 978 3963 1634 
Q 3963 2275 3750 2595 
Q 3538 2916 3109 2916 
z
" id="ArialMT-44e" transform="scale(0.015625)"/>
      </defs>
      <use xlink:href="#ArialMT-44e"/>
     </g>
    </g>
   </g>
   <g id="text_33">
    <g clip-path="url(#p4da92aaa47)">
     <!-- ё -->
     <g style="fill:#ffffff;" transform="translate(299.458749 83.185085)scale(0.07 -0.07)">
      <defs>
       <path d="M 2694 1069 
L 3275 997 
Q 3138 488 2766 206 
Q 2394 -75 1816 -75 
Q 1088 -75 661 373 
Q 234 822 234 1631 
Q 234 2469 665 2931 
Q 1097 3394 1784 3394 
Q 2450 3394 2872 2941 
Q 3294 2488 3294 1666 
Q 3294 1616 3291 1516 
L 816 1516 
Q 847 969 1125 678 
Q 1403 388 1819 388 
Q 2128 388 2347 550 
Q 2566 713 2694 1069 
z
M 847 1978 
L 2700 1978 
Q 2663 2397 2488 2606 
Q 2219 2931 1791 2931 
Q 1403 2931 1139 2672 
Q 875 2413 847 1978 
z
M 887 3969 
L 887 4609 
L 1474 4609 
L 1474 3969 
L 887 3969 
z
M 2052 3969 
L 2052 4609 
L 2640 4609 
L 2640 3969 
L 2052 3969 
z
" id="ArialMT-451" transform="scale(0.015625)"/>
      </defs>
      <use xlink:href="#ArialMT-451"/>
     </g>
    </g>
   </g>
  </g>
 </g>
 <defs>
  <clipPath id="p4da92aaa47">
   <rect height="288" width="432" x="7.2" y="7.2"/>
  </clipPath>
 </defs>
</svg>
