<?xml version="1.0" encoding="utf-8" standalone="no"?>
<!DOCTYPE svg PUBLIC "-//W3C//DTD SVG 1.1//EN"
  "http://www.w3.org/Graphics/SVG/1.1/DTD/svg11.dtd">
<svg height="302.4pt" version="1.1" viewBox="0 0 446.4 302.4" width="446.4pt" xmlns="http://www.w3.org/2000/svg" xmlns:xlink="http://www.w3.org/1999/xlink">
 <metadata>
  <rdf:RDF xmlns:cc="http://creativecommons.org/ns#" xmlns:dc="http://purl.org/dc/elements/1.1/" xmlns:rdf="http://www.w3.org/1999/02/22-rdf-syntax-ns#">
   <cc:Work>
    <dc:type rdf:resource="http://purl.org/dc/dcmitype/StillImage"/>
    <dc:date>2023-07-24T13:17:50.002653</dc:date>
    <dc:format>image/svg+xml</dc:format>
    <dc:creator>
     <cc:Agent>
      <dc:title>Matplotlib v3.4.3, https://matplotlib.org/</dc:title>
     </cc:Agent>
    </dc:creator>
   </cc:Work>
  </rdf:RDF>
 </metadata>
 <defs>
  <style type="text/css">*{stroke-linecap:butt;stroke-linejoin:round;}</style>
 </defs>
 <g id="figure_1">
  <g id="patch_1">
   <path d="M 0 302.4 
L 446.4 302.4 
L 446.4 0 
L 0 0 
z
" style="fill:#ffffff;"/>
  </g>
  <g id="axes_1">
   <g id="patch_2">
    <path clip-path="url(#p4aa72c305f)" d="M 135.232044 34.794099 
Q 113.248157 48.937752 91.828419 62.718451 
" style="fill:none;stroke:#89a4cb;stroke-linecap:round;stroke-opacity:0.533333;stroke-width:0.6;"/>
    <path clip-path="url(#p4aa72c305f)" d="M 96.274475 62.236182 
L 91.828419 62.718451 
L 94.110237 58.872245 
L 96.274475 62.236182 
z
" style="fill:#89a4cb;fill-opacity:0.533333;stroke:#89a4cb;stroke-linecap:round;stroke-opacity:0.533333;stroke-width:0.6;"/>
   </g>
   <g id="patch_3">
    <path clip-path="url(#p4aa72c305f)" d="M 80.80197 72.50384 
Q 70.877703 84.872803 61.439347 96.636159 
" style="fill:none;stroke:#89a4cb;stroke-linecap:round;stroke-opacity:0.533333;stroke-width:0.694475;"/>
    <path clip-path="url(#p4aa72c305f)" d="M 65.502545 94.767893 
L 61.439347 96.636159 
L 62.382654 92.264641 
L 65.502545 94.767893 
z
" style="fill:#89a4cb;fill-opacity:0.533333;stroke:#89a4cb;stroke-linecap:round;stroke-opacity:0.533333;stroke-width:0.694475;"/>
   </g>
   <g id="patch_4">
    <path clip-path="url(#p4aa72c305f)" d="M 364.680382 212.100754 
Q 353.568843 230.494103 342.969799 248.039101 
" style="fill:none;stroke:#89a4cb;stroke-linecap:round;stroke-opacity:0.533333;stroke-width:0.886498;"/>
    <path clip-path="url(#p4aa72c305f)" d="M 346.749987 245.649503 
L 342.969799 248.039101 
L 343.326233 243.581192 
L 346.749987 245.649503 
z
" style="fill:#89a4cb;fill-opacity:0.533333;stroke:#89a4cb;stroke-linecap:round;stroke-opacity:0.533333;stroke-width:0.886498;"/>
   </g>
   <g id="patch_5">
    <path clip-path="url(#p4aa72c305f)" d="M 332.767644 261.72636 
Q 331.372882 263.224568 330.435208 264.231786 
" style="fill:none;stroke:#89a4cb;stroke-linecap:round;stroke-opacity:0.533333;stroke-width:0.6;"/>
    <path clip-path="url(#p4aa72c305f)" d="M 334.624603 262.666867 
L 330.435208 264.231786 
L 331.696909 259.941319 
L 334.624603 262.666867 
z
" style="fill:#89a4cb;fill-opacity:0.533333;stroke:#89a4cb;stroke-linecap:round;stroke-opacity:0.533333;stroke-width:0.6;"/>
   </g>
   <g id="patch_6">
    <path clip-path="url(#p4aa72c305f)" d="M 363.687761 88.148602 
Q 343.165071 97.742213 323.250082 107.051746 
" style="fill:none;stroke:#89a4cb;stroke-linecap:round;stroke-opacity:0.533333;stroke-width:0.6;"/>
    <path clip-path="url(#p4aa72c305f)" d="M 327.720664 107.169645 
L 323.250082 107.051746 
L 326.026751 103.54602 
L 327.720664 107.169645 
z
" style="fill:#89a4cb;fill-opacity:0.533333;stroke:#89a4cb;stroke-linecap:round;stroke-opacity:0.533333;stroke-width:0.6;"/>
   </g>
   <g id="patch_7">
    <path clip-path="url(#p4aa72c305f)" d="M 311.967027 113.756785 
Q 297.066483 124.982253 282.701729 135.804078 
" style="fill:none;stroke:#89a4cb;stroke-linecap:round;stroke-opacity:0.533333;stroke-width:0.6;"/>
    <path clip-path="url(#p4aa72c305f)" d="M 287.100002 134.994634 
L 282.701729 135.804078 
L 284.693138 131.799794 
L 287.100002 134.994634 
z
" style="fill:#89a4cb;fill-opacity:0.533333;stroke:#89a4cb;stroke-linecap:round;stroke-opacity:0.533333;stroke-width:0.6;"/>
   </g>
   <g id="patch_8">
    <path clip-path="url(#p4aa72c305f)" d="M 165.468804 100.313538 
Q 133.505947 109.565143 102.450915 118.553979 
" style="fill:none;stroke:#89a4cb;stroke-linecap:round;stroke-opacity:0.533333;stroke-width:0.845314;"/>
    <path clip-path="url(#p4aa72c305f)" d="M 106.84927 119.362977 
L 102.450915 118.553979 
L 105.737127 115.520694 
L 106.84927 119.362977 
z
" style="fill:#89a4cb;fill-opacity:0.533333;stroke:#89a4cb;stroke-linecap:round;stroke-opacity:0.533333;stroke-width:0.845314;"/>
   </g>
   <g id="patch_9">
    <path clip-path="url(#p4aa72c305f)" d="M 84.938704 123.316814 
Q 68.153081 127.559654 52.017824 131.638102 
" style="fill:none;stroke:#89a4cb;stroke-linecap:round;stroke-opacity:0.533333;stroke-width:0.6;"/>
    <path clip-path="url(#p4aa72c305f)" d="M 56.385975 132.596883 
L 52.017824 131.638102 
L 55.405739 128.71885 
L 56.385975 132.596883 
z
" style="fill:#89a4cb;fill-opacity:0.533333;stroke:#89a4cb;stroke-linecap:round;stroke-opacity:0.533333;stroke-width:0.6;"/>
   </g>
   <g id="patch_10">
    <path clip-path="url(#p4aa72c305f)" d="M 329.979573 264.721214 
Q 331.371944 263.225575 332.307227 262.220925 
" style="fill:none;stroke:#89a4cb;stroke-linecap:round;stroke-opacity:0.533333;stroke-width:0.6;"/>
    <path clip-path="url(#p4aa72c305f)" d="M 328.117832 263.785845 
L 332.307227 262.220925 
L 331.045526 266.511393 
L 328.117832 263.785845 
z
" style="fill:#89a4cb;fill-opacity:0.533333;stroke:#89a4cb;stroke-linecap:round;stroke-opacity:0.533333;stroke-width:0.6;"/>
   </g>
   <g id="patch_11">
    <path clip-path="url(#p4aa72c305f)" d="M 143.800002 106.979877 
Q 122.680415 112.928057 103.2187 118.409309 
" style="fill:none;stroke:#89a4cb;stroke-linecap:round;stroke-opacity:0.533333;stroke-width:1.540537;"/>
    <path clip-path="url(#p4aa72c305f)" d="M 107.611102 119.25003 
L 103.2187 118.409309 
L 106.526718 115.399821 
L 107.611102 119.25003 
z
" style="fill:#89a4cb;fill-opacity:0.533333;stroke:#89a4cb;stroke-linecap:round;stroke-opacity:0.533333;stroke-width:1.540537;"/>
   </g>
   <g id="patch_12">
    <path clip-path="url(#p4aa72c305f)" d="M 397.441683 232.30808 
Q 371.615874 242.566706 346.643383 252.486375 
" style="fill:none;stroke:#89a4cb;stroke-linecap:round;stroke-opacity:0.533333;stroke-width:0.821241;"/>
    <path clip-path="url(#p4aa72c305f)" d="M 351.099169 252.86844 
L 346.643383 252.486375 
L 349.622507 249.150986 
L 351.099169 252.86844 
z
" style="fill:#89a4cb;fill-opacity:0.533333;stroke:#89a4cb;stroke-linecap:round;stroke-opacity:0.533333;stroke-width:0.821241;"/>
   </g>
   <g id="patch_13">
    <path clip-path="url(#p4aa72c305f)" d="M 357.26729 239.716109 
Q 350.855792 245.149331 345.722239 249.499598 
" style="fill:none;stroke:#89a4cb;stroke-linecap:round;stroke-opacity:0.533333;stroke-width:1.498248;"/>
    <path clip-path="url(#p4aa72c305f)" d="M 350.066889 248.439402 
L 345.722239 249.499598 
L 347.480872 245.38776 
L 350.066889 248.439402 
z
" style="fill:#89a4cb;fill-opacity:0.533333;stroke:#89a4cb;stroke-linecap:round;stroke-opacity:0.533333;stroke-width:1.498248;"/>
   </g>
   <g id="patch_14">
    <path clip-path="url(#p4aa72c305f)" d="M 316.287646 125.551026 
Q 299.765837 131.851535 284.324746 137.739919 
" style="fill:none;stroke:#89a4cb;stroke-linecap:round;stroke-opacity:0.533333;stroke-width:1.034523;"/>
    <path clip-path="url(#p4aa72c305f)" d="M 288.77484 138.183387 
L 284.324746 137.739919 
L 287.349577 134.445925 
L 288.77484 138.183387 
z
" style="fill:#89a4cb;fill-opacity:0.533333;stroke:#89a4cb;stroke-linecap:round;stroke-opacity:0.533333;stroke-width:1.034523;"/>
   </g>
   <g id="patch_15">
    <path clip-path="url(#p4aa72c305f)" d="M 268.866672 144.770129 
Q 252.056481 153.91976 235.835489 162.748696 
" style="fill:none;stroke:#89a4cb;stroke-linecap:round;stroke-opacity:0.533333;stroke-width:0.6;"/>
    <path clip-path="url(#p4aa72c305f)" d="M 240.304917 162.59309 
L 235.835489 162.748696 
L 238.39266 159.07979 
L 240.304917 162.59309 
z
" style="fill:#89a4cb;fill-opacity:0.533333;stroke:#89a4cb;stroke-linecap:round;stroke-opacity:0.533333;stroke-width:0.6;"/>
   </g>
   <g id="patch_16">
    <path clip-path="url(#p4aa72c305f)" d="M 61.952401 117.021035 
Q 73.354877 118.544863 83.72544 119.930786 
" style="fill:none;stroke:#89a4cb;stroke-linecap:round;stroke-opacity:0.533333;stroke-width:0.931176;"/>
    <path clip-path="url(#p4aa72c305f)" d="M 80.025613 117.41856 
L 83.72544 119.930786 
L 79.495763 121.383312 
L 80.025613 117.41856 
z
" style="fill:#89a4cb;fill-opacity:0.533333;stroke:#89a4cb;stroke-linecap:round;stroke-opacity:0.533333;stroke-width:0.931176;"/>
   </g>
   <g id="patch_17">
    <path clip-path="url(#p4aa72c305f)" d="M 170.176555 76.896228 
Q 151.058237 80.971393 134.28164 84.547409 
" style="fill:none;stroke:#89a4cb;stroke-linecap:round;stroke-opacity:0.533333;stroke-width:2.141553;"/>
    <path clip-path="url(#p4aa72c305f)" d="M 138.610697 85.669579 
L 134.28164 84.547409 
L 137.77681 81.757466 
L 138.610697 85.669579 
z
" style="fill:#89a4cb;fill-opacity:0.533333;stroke:#89a4cb;stroke-linecap:round;stroke-opacity:0.533333;stroke-width:2.141553;"/>
   </g>
   <g id="patch_18">
    <path clip-path="url(#p4aa72c305f)" d="M 120.645108 87.604549 
Q 92.085082 94.454979 64.177374 101.148944 
" style="fill:none;stroke:#89a4cb;stroke-linecap:round;stroke-opacity:0.533333;stroke-width:0.6;"/>
    <path clip-path="url(#p4aa72c305f)" d="M 68.533536 102.1608 
L 64.177374 101.148944 
L 67.600556 98.271128 
L 68.533536 102.1608 
z
" style="fill:#89a4cb;fill-opacity:0.533333;stroke:#89a4cb;stroke-linecap:round;stroke-opacity:0.533333;stroke-width:0.6;"/>
   </g>
   <g id="patch_19">
    <path clip-path="url(#p4aa72c305f)" d="M 377.072254 230.005676 
Q 361.039761 240.669211 345.677843 250.886733 
" style="fill:none;stroke:#89a4cb;stroke-linecap:round;stroke-opacity:0.533333;stroke-width:0.720331;"/>
    <path clip-path="url(#p4aa72c305f)" d="M 350.116036 250.336788 
L 345.677843 250.886733 
L 347.900802 247.006211 
L 350.116036 250.336788 
z
" style="fill:#89a4cb;fill-opacity:0.533333;stroke:#89a4cb;stroke-linecap:round;stroke-opacity:0.533333;stroke-width:0.720331;"/>
   </g>
   <g id="patch_20">
    <path clip-path="url(#p4aa72c305f)" d="M 266.241634 164.067977 
Q 251.159339 165.01237 236.746553 165.914841 
" style="fill:none;stroke:#89a4cb;stroke-linecap:round;stroke-opacity:0.533333;stroke-width:0.6;"/>
    <path clip-path="url(#p4aa72c305f)" d="M 240.863722 167.660957 
L 236.746553 165.914841 
L 240.613748 163.668776 
L 240.863722 167.660957 
z
" style="fill:#89a4cb;fill-opacity:0.533333;stroke:#89a4cb;stroke-linecap:round;stroke-opacity:0.533333;stroke-width:0.6;"/>
   </g>
   <g id="patch_21">
    <path clip-path="url(#p4aa72c305f)" d="M 223.290122 170.133961 
Q 216.325489 174.587377 209.926014 178.679413 
" style="fill:none;stroke:#89a4cb;stroke-linecap:round;stroke-opacity:0.533333;stroke-width:0.6;"/>
    <path clip-path="url(#p4aa72c305f)" d="M 214.373396 178.20953 
L 209.926014 178.679413 
L 212.218537 174.839577 
L 214.373396 178.20953 
z
" style="fill:#89a4cb;fill-opacity:0.533333;stroke:#89a4cb;stroke-linecap:round;stroke-opacity:0.533333;stroke-width:0.6;"/>
   </g>
   <g id="patch_22">
    <path clip-path="url(#p4aa72c305f)" d="M 51.369921 131.80187 
Q 68.154946 127.559182 84.289605 123.480885 
" style="fill:none;stroke:#89a4cb;stroke-linecap:round;stroke-opacity:0.533333;stroke-width:0.6;"/>
    <path clip-path="url(#p4aa72c305f)" d="M 79.921455 122.522104 
L 84.289605 123.480885 
L 80.90169 126.400137 
L 79.921455 122.522104 
z
" style="fill:#89a4cb;fill-opacity:0.533333;stroke:#89a4cb;stroke-linecap:round;stroke-opacity:0.533333;stroke-width:0.6;"/>
   </g>
   <g id="patch_23">
    <path clip-path="url(#p4aa72c305f)" d="M 121.19812 123.024102 
Q 111.532082 122.395245 103.172325 121.851372 
" style="fill:none;stroke:#89a4cb;stroke-linecap:round;stroke-opacity:0.533333;stroke-width:1.170844;"/>
    <path clip-path="url(#p4aa72c305f)" d="M 107.034044 124.106838 
L 103.172325 121.851372 
L 107.293729 120.115276 
L 107.034044 124.106838 
z
" style="fill:#89a4cb;fill-opacity:0.533333;stroke:#89a4cb;stroke-linecap:round;stroke-opacity:0.533333;stroke-width:1.170844;"/>
   </g>
   <g id="patch_24">
    <path clip-path="url(#p4aa72c305f)" d="M 341.802551 122.671119 
Q 312.637466 130.764605 284.118773 138.678713 
" style="fill:none;stroke:#89a4cb;stroke-linecap:round;stroke-opacity:0.533333;stroke-width:0.6;"/>
    <path clip-path="url(#p4aa72c305f)" d="M 288.507916 139.536281 
L 284.118773 138.678713 
L 287.438314 135.681939 
L 288.507916 139.536281 
z
" style="fill:#89a4cb;fill-opacity:0.533333;stroke:#89a4cb;stroke-linecap:round;stroke-opacity:0.533333;stroke-width:0.6;"/>
   </g>
   <g id="patch_25">
    <path clip-path="url(#p4aa72c305f)" d="M 209.359966 179.041363 
Q 216.326106 174.586982 222.727088 170.493983 
" style="fill:none;stroke:#89a4cb;stroke-linecap:round;stroke-opacity:0.533333;stroke-width:0.6;"/>
    <path clip-path="url(#p4aa72c305f)" d="M 218.279706 170.963866 
L 222.727088 170.493983 
L 220.434565 174.333818 
L 218.279706 170.963866 
z
" style="fill:#89a4cb;fill-opacity:0.533333;stroke:#89a4cb;stroke-linecap:round;stroke-opacity:0.533333;stroke-width:0.6;"/>
   </g>
   <g id="patch_26">
    <path clip-path="url(#p4aa72c305f)" d="M 367.11501 263.718316 
Q 356.593993 260.833477 347.470666 258.331882 
" style="fill:none;stroke:#89a4cb;stroke-linecap:round;stroke-opacity:0.533333;stroke-width:1.296276;"/>
    <path clip-path="url(#p4aa72c305f)" d="M 350.799404 261.318436 
L 347.470666 258.331882 
L 351.857152 257.460824 
L 350.799404 261.318436 
z
" style="fill:#89a4cb;fill-opacity:0.533333;stroke:#89a4cb;stroke-linecap:round;stroke-opacity:0.533333;stroke-width:1.296276;"/>
   </g>
   <g id="patch_27">
    <path clip-path="url(#p4aa72c305f)" d="M 105.257624 83.436462 
Q 84.229934 91.855869 65.693269 99.27788 
" style="fill:none;stroke:#89a4cb;stroke-linecap:round;stroke-opacity:0.533333;stroke-width:2.4;"/>
    <path clip-path="url(#p4aa72c305f)" d="M 70.150084 99.647749 
L 65.693269 99.27788 
L 68.663253 95.93435 
L 70.150084 99.647749 
z
" style="fill:#89a4cb;fill-opacity:0.533333;stroke:#89a4cb;stroke-linecap:round;stroke-opacity:0.533333;stroke-width:2.4;"/>
   </g>
   <g id="patch_28">
    <path clip-path="url(#p4aa72c305f)" d="M 62.972543 106.314844 
Q 74.266427 111.864297 84.790761 117.035617 
" style="fill:none;stroke:#89a4cb;stroke-linecap:round;stroke-opacity:0.533333;stroke-width:0.766911;"/>
    <path clip-path="url(#p4aa72c305f)" d="M 82.082752 113.476588 
L 84.790761 117.035617 
L 80.318732 117.066606 
L 82.082752 113.476588 
z
" style="fill:#89a4cb;fill-opacity:0.533333;stroke:#89a4cb;stroke-linecap:round;stroke-opacity:0.533333;stroke-width:0.766911;"/>
   </g>
   <g id="patch_29">
    <path clip-path="url(#p4aa72c305f)" d="M 126.962041 72.428953 
Q 95.041731 86.256497 63.955064 99.722917 
" style="fill:none;stroke:#89a4cb;stroke-linecap:round;stroke-opacity:0.533333;stroke-width:0.812588;"/>
    <path clip-path="url(#p4aa72c305f)" d="M 68.420472 99.968139 
L 63.955064 99.722917 
L 66.830487 96.297724 
L 68.420472 99.968139 
z
" style="fill:#89a4cb;fill-opacity:0.533333;stroke:#89a4cb;stroke-linecap:round;stroke-opacity:0.533333;stroke-width:0.812588;"/>
   </g>
   <g id="patch_30">
    <path clip-path="url(#p4aa72c305f)" d="M 392.478781 212.672264 
Q 368.541343 231.722953 345.128789 250.355912 
" style="fill:none;stroke:#89a4cb;stroke-linecap:round;stroke-opacity:0.533333;stroke-width:0.6;"/>
    <path clip-path="url(#p4aa72c305f)" d="M 349.504014 249.429951 
L 345.128789 250.355912 
L 347.013155 246.300155 
L 349.504014 249.429951 
z
" style="fill:#89a4cb;fill-opacity:0.533333;stroke:#89a4cb;stroke-linecap:round;stroke-opacity:0.533333;stroke-width:0.6;"/>
   </g>
   <g id="patch_31">
    <path clip-path="url(#p4aa72c305f)" d="M 207.181907 75.780532 
Q 192.024615 85.466222 177.43259 94.790699 
" style="fill:none;stroke:#89a4cb;stroke-linecap:round;stroke-opacity:0.533333;stroke-width:0.6;"/>
    <path clip-path="url(#p4aa72c305f)" d="M 181.880113 94.322146 
L 177.43259 94.790699 
L 179.726261 90.95155 
L 181.880113 94.322146 
z
" style="fill:#89a4cb;fill-opacity:0.533333;stroke:#89a4cb;stroke-linecap:round;stroke-opacity:0.533333;stroke-width:0.6;"/>
   </g>
   <g id="patch_32">
    <path clip-path="url(#p4aa72c305f)" d="M 322.901645 155.022716 
Q 300.007195 158.914922 277.907012 162.672098 
" style="fill:none;stroke:#89a4cb;stroke-linecap:round;stroke-opacity:0.533333;stroke-width:0.720607;"/>
    <path clip-path="url(#p4aa72c305f)" d="M 282.185635 163.9734 
L 277.907012 162.672098 
L 281.515228 160.029981 
L 282.185635 163.9734 
z
" style="fill:#89a4cb;fill-opacity:0.533333;stroke:#89a4cb;stroke-linecap:round;stroke-opacity:0.533333;stroke-width:0.720607;"/>
   </g>
   <g id="patch_33">
    <path clip-path="url(#p4aa72c305f)" d="M 391.695517 146.048622 
Q 362.68275 149.736176 334.33545 153.33915 
" style="fill:none;stroke:#89a4cb;stroke-linecap:round;stroke-opacity:0.533333;stroke-width:0.6;"/>
    <path clip-path="url(#p4aa72c305f)" d="M 338.555701 154.818841 
L 334.33545 153.33915 
L 338.051354 150.850764 
L 338.555701 154.818841 
z
" style="fill:#89a4cb;fill-opacity:0.533333;stroke:#89a4cb;stroke-linecap:round;stroke-opacity:0.533333;stroke-width:0.6;"/>
   </g>
   <g id="patch_34">
    <path clip-path="url(#p4aa72c305f)" d="M 325.567856 232.161755 
Q 325.288186 247.439342 325.020795 262.046221 
" style="fill:none;stroke:#89a4cb;stroke-linecap:round;stroke-opacity:0.533333;stroke-width:0.6;"/>
    <path clip-path="url(#p4aa72c305f)" d="M 327.093671 258.083497 
L 325.020795 262.046221 
L 323.094341 258.010285 
L 327.093671 258.083497 
z
" style="fill:#89a4cb;fill-opacity:0.533333;stroke:#89a4cb;stroke-linecap:round;stroke-opacity:0.533333;stroke-width:0.6;"/>
   </g>
   <g id="PathCollection_1">
    <path clip-path="url(#p4aa72c305f)" d="M 139.276972 37.005177 
C 140.553511 37.005177 141.777939 36.498002 142.680589 35.595353 
C 143.583239 34.692703 144.090413 33.468275 144.090413 32.191736 
C 144.090413 30.915196 143.583239 29.690768 142.680589 28.788118 
C 141.777939 27.885469 140.553511 27.378294 139.276972 27.378294 
C 138.000432 27.378294 136.776005 27.885469 135.873355 28.788118 
C 134.970705 29.690768 134.463531 30.915196 134.463531 32.191736 
C 134.463531 33.468275 134.970705 34.692703 135.873355 35.595353 
C 136.776005 36.498002 138.000432 37.005177 139.276972 37.005177 
z
" style="fill:#0d6efd;stroke:#0d6efd;"/>
    <path clip-path="url(#p4aa72c305f)" d="M 85.265476 74.073563 
C 87.157102 74.073563 88.971508 73.322012 90.30909 71.98443 
C 91.646672 70.646848 92.398223 68.832443 92.398223 66.940816 
C 92.398223 65.049189 91.646672 63.234784 90.30909 61.897202 
C 88.971508 60.55962 87.157102 59.808069 85.265476 59.808069 
C 83.373849 59.808069 81.559444 60.55962 80.221862 61.897202 
C 78.88428 63.234784 78.132729 65.049189 78.132729 66.940816 
C 78.132729 68.832443 78.88428 70.646848 80.221862 71.98443 
C 81.559444 73.322012 83.373849 74.073563 85.265476 74.073563 
z
" style="fill:#0d6efd;stroke:#0d6efd;"/>
    <path clip-path="url(#p4aa72c305f)" d="M 366.523495 212.613161 
C 367.468515 212.613161 368.374956 212.237701 369.043186 211.569471 
C 369.711416 210.901241 370.086877 209.994799 370.086877 209.049779 
C 370.086877 208.104759 369.711416 207.198318 369.043186 206.530088 
C 368.374956 205.861858 367.468515 205.486398 366.523495 205.486398 
C 365.578475 205.486398 364.672034 205.861858 364.003804 206.530088 
C 363.335574 207.198318 362.960113 208.104759 362.960113 209.049779 
C 362.960113 209.994799 363.335574 210.901241 364.003804 211.569471 
C 364.672034 212.237701 365.578475 212.613161 366.523495 212.613161 
z
" style="fill:#0d6efd;stroke:#0d6efd;"/>
    <path clip-path="url(#p4aa72c305f)" d="M 338.275066 263.896328 
C 340.419461 263.896328 342.476316 263.044351 343.992632 261.528035 
C 345.508948 260.011718 346.360925 257.954864 346.360925 255.810469 
C 346.360925 253.666075 345.508948 251.60922 343.992632 250.092904 
C 342.476316 248.576588 340.419461 247.724611 338.275066 247.724611 
C 336.130672 247.724611 334.073817 248.576588 332.557501 250.092904 
C 331.041185 251.60922 330.189208 253.666075 330.189208 255.810469 
C 330.189208 257.954864 331.041185 260.011718 332.557501 261.528035 
C 334.073817 263.044351 336.130672 263.896328 338.275066 263.896328 
z
" style="fill:#0d6efd;stroke:#0d6efd;"/>
    <path clip-path="url(#p4aa72c305f)" d="M 369.206541 91.657942 
C 370.821407 91.657942 372.37035 91.016348 373.512232 89.874466 
C 374.654115 88.732583 375.295708 87.18364 375.295708 85.568774 
C 375.295708 83.953908 374.654115 82.404965 373.512232 81.263082 
C 372.37035 80.121199 370.821407 79.479606 369.206541 79.479606 
C 367.591675 79.479606 366.042732 80.121199 364.900849 81.263082 
C 363.758966 82.404965 363.117373 83.953908 363.117373 85.568774 
C 363.117373 87.18364 363.758966 88.732583 364.900849 89.874466 
C 366.042732 91.016348 367.591675 91.657942 369.206541 91.657942 
z
" style="fill:#0d6efd;stroke:#0d6efd;"/>
    <path clip-path="url(#p4aa72c305f)" d="M 316.971019 116.249978 
C 318.631986 116.249978 320.225148 115.590069 321.399628 114.415588 
C 322.574109 113.241107 323.234018 111.647946 323.234018 109.986979 
C 323.234018 108.326012 322.574109 106.732851 321.399628 105.55837 
C 320.225148 104.383889 318.631986 103.72398 316.971019 103.72398 
C 315.310053 103.72398 313.716891 104.383889 312.54241 105.55837 
C 311.367929 106.732851 310.70802 108.326012 310.70802 109.986979 
C 310.70802 111.647946 311.367929 113.241107 312.54241 114.415588 
C 313.716891 115.590069 315.310053 116.249978 316.971019 116.249978 
z
" style="fill:#0d6efd;stroke:#0d6efd;"/>
    <path clip-path="url(#p4aa72c305f)" d="M 171.539701 104.8803 
C 173.216839 104.8803 174.825512 104.213966 176.011427 103.028051 
C 177.197343 101.842135 177.863677 100.233463 177.863677 98.556325 
C 177.863677 96.879187 177.197343 95.270515 176.011427 94.0846 
C 174.825512 92.898684 173.216839 92.23235 171.539701 92.23235 
C 169.862564 92.23235 168.253891 92.898684 167.067976 94.0846 
C 165.88206 95.270515 165.215726 96.879187 165.215726 98.556325 
C 165.215726 100.233463 165.88206 101.842135 167.067976 103.028051 
C 168.253891 104.213966 169.862564 104.8803 171.539701 104.8803 
z
" style="fill:#0d6efd;stroke:#0d6efd;"/>
    <path clip-path="url(#p4aa72c305f)" d="M 93.281961 129.810587 
C 95.563415 129.810587 97.751734 128.904156 99.364965 127.290924 
C 100.978197 125.677693 101.884628 123.489374 101.884628 121.20792 
C 101.884628 118.926466 100.978197 116.738148 99.364965 115.124916 
C 97.751734 113.511684 95.563415 112.605253 93.281961 112.605253 
C 91.000507 112.605253 88.812188 113.511684 87.198957 115.124916 
C 85.585725 116.738148 84.679294 118.926466 84.679294 121.20792 
C 84.679294 123.489374 85.585725 125.677693 87.198957 127.290924 
C 88.812188 128.904156 91.000507 129.810587 93.281961 129.810587 
z
" style="fill:#0d6efd;stroke:#0d6efd;"/>
    <path clip-path="url(#p4aa72c305f)" d="M 324.871382 277.703022 
C 326.859015 277.703022 328.765507 276.913328 330.170976 275.507859 
C 331.576445 274.10239 332.36614 272.195898 332.36614 270.208264 
C 332.36614 268.220631 331.576445 266.314139 330.170976 264.90867 
C 328.765507 263.503201 326.859015 262.713506 324.871382 262.713506 
C 322.883749 262.713506 320.977256 263.503201 319.571787 264.90867 
C 318.166319 266.314139 317.376624 268.220631 317.376624 270.208264 
C 317.376624 272.195898 318.166319 274.10239 319.571787 275.507859 
C 320.977256 276.913328 322.883749 277.703022 324.871382 277.703022 
z
" style="fill:#0d6efd;stroke:#0d6efd;"/>
    <path clip-path="url(#p4aa72c305f)" d="M 149.074855 110.975516 
C 150.528503 110.975516 151.922809 110.397975 152.950693 109.370091 
C 153.978578 108.342207 154.556118 106.947901 154.556118 105.494253 
C 154.556118 104.040605 153.978578 102.646299 152.950693 101.618415 
C 151.922809 100.590531 150.528503 100.01299 149.074855 100.01299 
C 147.621207 100.01299 146.226901 100.590531 145.199017 101.618415 
C 144.171133 102.646299 143.593592 104.040605 143.593592 105.494253 
C 143.593592 106.947901 144.171133 108.342207 145.199017 109.370091 
C 146.226901 110.397975 147.621207 110.975516 149.074855 110.975516 
z
" style="fill:#0d6efd;stroke:#0d6efd;"/>
    <path clip-path="url(#p4aa72c305f)" d="M 401.712397 235.211004 
C 402.932159 235.211004 404.102128 234.726387 404.964631 233.863885 
C 405.827133 233.001382 406.31175 231.831413 406.31175 230.611651 
C 406.31175 229.391888 405.827133 228.221919 404.964631 227.359417 
C 404.102128 226.496914 402.932159 226.012297 401.712397 226.012297 
C 400.492634 226.012297 399.322665 226.496914 398.460163 227.359417 
C 397.59766 228.221919 397.113043 229.391888 397.113043 230.611651 
C 397.113043 231.831413 397.59766 233.001382 398.460163 233.863885 
C 399.322665 234.726387 400.492634 235.211004 401.712397 235.211004 
z
" style="fill:#0d6efd;stroke:#0d6efd;"/>
    <path clip-path="url(#p4aa72c305f)" d="M 359.911041 240.942963 
C 360.830558 240.942963 361.712537 240.577635 362.362734 239.927439 
C 363.012931 239.277242 363.378259 238.395262 363.378259 237.475746 
C 363.378259 236.556229 363.012931 235.674249 362.362734 235.024053 
C 361.712537 234.373856 360.830558 234.008528 359.911041 234.008528 
C 358.991524 234.008528 358.109545 234.373856 357.459348 235.024053 
C 356.809151 235.674249 356.443824 236.556229 356.443824 237.475746 
C 356.443824 238.395262 356.809151 239.277242 357.459348 239.927439 
C 358.109545 240.577635 358.991524 240.942963 359.911041 240.942963 
z
" style="fill:#0d6efd;stroke:#0d6efd;"/>
    <path clip-path="url(#p4aa72c305f)" d="M 321.227598 128.956687 
C 322.630387 128.956687 323.97591 128.399353 324.967831 127.407432 
C 325.959752 126.41551 326.517086 125.069988 326.517086 123.667199 
C 326.517086 122.264411 325.959752 120.918888 324.967831 119.926967 
C 323.97591 118.935045 322.630387 118.377712 321.227598 118.377712 
C 319.82481 118.377712 318.479287 118.935045 317.487366 119.926967 
C 316.495445 120.918888 315.938111 122.264411 315.938111 123.667199 
C 315.938111 125.069988 316.495445 126.41551 317.487366 127.407432 
C 318.479287 128.399353 319.82481 128.956687 321.227598 128.956687 
z
" style="fill:#0d6efd;stroke:#0d6efd;"/>
    <path clip-path="url(#p4aa72c305f)" d="M 275.834337 148.907485 
C 277.937343 148.907485 279.954497 148.071952 281.441547 146.584903 
C 282.928596 145.097854 283.764129 143.080699 283.764129 140.977694 
C 283.764129 138.874688 282.928596 136.857533 281.441547 135.370484 
C 279.954497 133.883435 277.937343 133.047902 275.834337 133.047902 
C 273.731332 133.047902 271.714177 133.883435 270.227128 135.370484 
C 268.740079 136.857533 267.904546 138.874688 267.904546 140.977694 
C 267.904546 143.080699 268.740079 145.097854 270.227128 146.584903 
C 271.714177 148.071952 273.731332 148.907485 275.834337 148.907485 
z
" style="fill:#0d6efd;stroke:#0d6efd;"/>
    <path clip-path="url(#p4aa72c305f)" d="M 57.491729 120.927018 
C 58.685702 120.927018 59.830933 120.452648 60.6752 119.608381 
C 61.519466 118.764115 61.993836 117.618883 61.993836 116.42491 
C 61.993836 115.230937 61.519466 114.085705 60.6752 113.241439 
C 59.830933 112.397173 58.685702 111.922802 57.491729 111.922802 
C 56.297756 111.922802 55.152524 112.397173 54.308258 113.241439 
C 53.463991 114.085705 52.989621 115.230937 52.989621 116.42491 
C 52.989621 117.618883 53.463991 118.764115 54.308258 119.608381 
C 55.152524 120.452648 56.297756 120.927018 57.491729 120.927018 
z
" style="fill:#0d6efd;stroke:#0d6efd;"/>
    <path clip-path="url(#p4aa72c305f)" d="M 173.443936 79.543471 
C 174.330696 79.543471 175.181256 79.191157 175.80829 78.564123 
C 176.435324 77.937089 176.787637 77.086529 176.787637 76.199769 
C 176.787637 75.313009 176.435324 74.462449 175.80829 73.835415 
C 175.181256 73.208381 174.330696 72.856068 173.443936 72.856068 
C 172.557176 72.856068 171.706616 73.208381 171.079582 73.835415 
C 170.452548 74.462449 170.100234 75.313009 170.100234 76.199769 
C 170.100234 77.086529 170.452548 77.937089 171.079582 78.564123 
C 171.706616 79.191157 172.557176 79.543471 173.443936 79.543471 
z
" style="fill:#0d6efd;stroke:#0d6efd;"/>
    <path clip-path="url(#p4aa72c305f)" d="M 126.278506 92.044288 
C 127.81429 92.044288 129.287378 91.434115 130.373341 90.348152 
C 131.459304 89.262189 132.069477 87.789101 132.069477 86.253317 
C 132.069477 84.717534 131.459304 83.244446 130.373341 82.158483 
C 129.287378 81.07252 127.81429 80.462347 126.278506 80.462347 
C 124.742723 80.462347 123.269634 81.07252 122.183672 82.158483 
C 121.097709 83.244446 120.487536 84.717534 120.487536 86.253317 
C 120.487536 87.789101 121.097709 89.262189 122.183672 90.348152 
C 123.269634 91.434115 124.742723 92.044288 126.278506 92.044288 
z
" style="fill:#0d6efd;stroke:#0d6efd;"/>
    <path clip-path="url(#p4aa72c305f)" d="M 379.856352 231.497617 
C 380.743112 231.497617 381.593672 231.145304 382.220706 230.51827 
C 382.84774 229.891236 383.200054 229.040676 383.200054 228.153916 
C 383.200054 227.267156 382.84774 226.416596 382.220706 225.789562 
C 381.593672 225.162528 380.743112 224.810214 379.856352 224.810214 
C 378.969592 224.810214 378.119032 225.162528 377.491998 225.789562 
C 376.864964 226.416596 376.512651 227.267156 376.512651 228.153916 
C 376.512651 229.040676 376.864964 229.891236 377.491998 230.51827 
C 378.119032 231.145304 378.969592 231.497617 379.856352 231.497617 
z
" style="fill:#0d6efd;stroke:#0d6efd;"/>
    <path clip-path="url(#p4aa72c305f)" d="M 271.710562 169.205441 
C 273.16385 169.205441 274.557811 168.628043 275.585441 167.600413 
C 276.61307 166.572784 277.190468 165.178823 277.190468 163.725535 
C 277.190468 162.272247 276.61307 160.878286 275.585441 159.850657 
C 274.557811 158.823027 273.16385 158.245629 271.710562 158.245629 
C 270.257274 158.245629 268.863314 158.823027 267.835684 159.850657 
C 266.808054 160.878286 266.230657 162.272247 266.230657 163.725535 
C 266.230657 165.178823 266.808054 166.572784 267.835684 167.600413 
C 268.863314 168.628043 270.257274 169.205441 271.710562 169.205441 
z
" style="fill:#0d6efd;stroke:#0d6efd;"/>
    <path clip-path="url(#p4aa72c305f)" d="M 229.143853 173.33834 
C 230.986338 173.33834 232.753607 172.606313 234.056441 171.303479 
C 235.359274 170.000646 236.091301 168.233376 236.091301 166.390891 
C 236.091301 164.548407 235.359274 162.781137 234.056441 161.478304 
C 232.753607 160.17547 230.986338 159.443443 229.143853 159.443443 
C 227.301368 159.443443 225.534099 160.17547 224.231265 161.478304 
C 222.928432 162.781137 222.196405 164.548407 222.196405 166.390891 
C 222.196405 168.233376 222.928432 170.000646 224.231265 171.303479 
C 225.534099 172.606313 227.301368 173.33834 229.143853 173.33834 
z
" style="fill:#0d6efd;stroke:#0d6efd;"/>
    <path clip-path="url(#p4aa72c305f)" d="M 44.687603 140.380371 
C 46.514703 140.380371 48.267216 139.654457 49.559171 138.362502 
C 50.851125 137.070547 51.57704 135.318035 51.57704 133.490935 
C 51.57704 131.663835 50.851125 129.911322 49.559171 128.619368 
C 48.267216 127.327413 46.514703 126.601498 44.687603 126.601498 
C 42.860503 126.601498 41.107991 127.327413 39.816036 128.619368 
C 38.524081 129.911322 37.798167 131.663835 37.798167 133.490935 
C 37.798167 135.318035 38.524081 137.070547 39.816036 138.362502 
C 41.107991 139.654457 42.860503 140.380371 44.687603 140.380371 
z
" style="fill:#0d6efd;stroke:#0d6efd;"/>
    <path clip-path="url(#p4aa72c305f)" d="M 127.207072 129.435124 
C 128.803618 129.435124 130.334989 128.80081 131.463918 127.671881 
C 132.592846 126.542952 133.227161 125.011581 133.227161 123.415035 
C 133.227161 121.818489 132.592846 120.287118 131.463918 119.15819 
C 130.334989 118.029261 128.803618 117.394946 127.207072 117.394946 
C 125.610526 117.394946 124.079155 118.029261 122.950226 119.15819 
C 121.821298 120.287118 121.186983 121.818489 121.186983 123.415035 
C 121.186983 125.011581 121.821298 126.542952 122.950226 127.671881 
C 124.079155 128.80081 125.610526 129.435124 127.207072 129.435124 
z
" style="fill:#0d6efd;stroke:#0d6efd;"/>
    <path clip-path="url(#p4aa72c305f)" d="M 348.251302 127.575977 
C 350.026685 127.575977 351.729591 126.87061 352.984976 125.615225 
C 354.24036 124.359841 354.945727 122.656934 354.945727 120.881552 
C 354.945727 119.10617 354.24036 117.403264 352.984976 116.147879 
C 351.729591 114.892494 350.026685 114.187128 348.251302 114.187128 
C 346.47592 114.187128 344.773014 114.892494 343.517629 116.147879 
C 342.262245 117.403264 341.556878 119.10617 341.556878 120.881552 
C 341.556878 122.656934 342.262245 124.359841 343.517629 125.615225 
C 344.773014 126.87061 346.47592 127.575977 348.251302 127.575977 
z
" style="fill:#0d6efd;stroke:#0d6efd;"/>
    <path clip-path="url(#p4aa72c305f)" d="M 202.982496 190.69071 
C 204.99045 190.69071 206.916434 189.892941 208.336272 188.473103 
C 209.75611 187.053265 210.553879 185.127282 210.553879 183.119327 
C 210.553879 181.111373 209.75611 179.18539 208.336272 177.765552 
C 206.916434 176.345714 204.99045 175.547945 202.982496 175.547945 
C 200.974542 175.547945 199.048558 176.345714 197.62872 177.765552 
C 196.208882 179.18539 195.411114 181.111373 195.411114 183.119327 
C 195.411114 185.127282 196.208882 187.053265 197.62872 188.473103 
C 199.048558 189.892941 200.974542 190.69071 202.982496 190.69071 
z
" style="fill:#0d6efd;stroke:#0d6efd;"/>
    <path clip-path="url(#p4aa72c305f)" d="M 371.762921 269.811533 
C 373.040874 269.811533 374.266657 269.303797 375.170306 268.400148 
C 376.073956 267.496499 376.581692 266.270716 376.581692 264.992763 
C 376.581692 263.71481 376.073956 262.489026 375.170306 261.585377 
C 374.266657 260.681728 373.040874 260.173992 371.762921 260.173992 
C 370.484968 260.173992 369.259185 260.681728 368.355536 261.585377 
C 367.451887 262.489026 366.944151 263.71481 366.944151 264.992763 
C 366.944151 266.270716 367.451887 267.496499 368.355536 268.400148 
C 369.259185 269.303797 370.484968 269.811533 371.762921 269.811533 
z
" style="fill:#0d6efd;stroke:#0d6efd;"/>
    <path clip-path="url(#p4aa72c305f)" d="M 108.449966 85.599355 
C 109.362555 85.599355 110.23789 85.23678 110.883188 84.591482 
C 111.528486 83.946184 111.891062 83.070849 111.891062 82.15826 
C 111.891062 81.245671 111.528486 80.370336 110.883188 79.725038 
C 110.23789 79.07974 109.362555 78.717164 108.449966 78.717164 
C 107.537377 78.717164 106.662042 79.07974 106.016744 79.725038 
C 105.371446 80.370336 105.008871 81.245671 105.008871 82.15826 
C 105.008871 83.070849 105.371446 83.946184 106.016744 84.591482 
C 106.662042 85.23678 107.537377 85.599355 108.449966 85.599355 
z
" style="fill:#0d6efd;stroke:#0d6efd;"/>
    <path clip-path="url(#p4aa72c305f)" d="M 56.303071 110.468024 
C 58.273621 110.468024 60.163728 109.685116 61.557118 108.291726 
C 62.950507 106.898337 63.733415 105.00823 63.733415 103.03768 
C 63.733415 101.06713 62.950507 99.177023 61.557118 97.783634 
C 60.163728 96.390244 58.273621 95.607336 56.303071 95.607336 
C 54.332521 95.607336 52.442414 96.390244 51.049025 97.783634 
C 49.655636 99.177023 48.872728 101.06713 48.872728 103.03768 
C 48.872728 105.00823 49.655636 106.898337 51.049025 108.291726 
C 52.442414 109.685116 54.332521 110.468024 56.303071 110.468024 
z
" style="fill:#0d6efd;stroke:#0d6efd;"/>
    <path clip-path="url(#p4aa72c305f)" d="M 131.886694 75.661749 
C 133.309802 75.661749 134.674814 75.096342 135.681103 74.090053 
C 136.687392 73.083764 137.252799 71.718752 137.252799 70.295644 
C 137.252799 68.872537 136.687392 67.507524 135.681103 66.501235 
C 134.674814 65.494946 133.309802 64.92954 131.886694 64.92954 
C 130.463587 64.92954 129.098574 65.494946 128.092285 66.501235 
C 127.085996 67.507524 126.52059 68.872537 126.52059 70.295644 
C 126.52059 71.718752 127.085996 73.083764 128.092285 74.090053 
C 129.098574 75.096342 130.463587 75.661749 131.886694 75.661749 
z
" style="fill:#0d6efd;stroke:#0d6efd;"/>
    <path clip-path="url(#p4aa72c305f)" d="M 397.468138 215.075487 
C 399.158548 215.075487 400.77995 214.40388 401.97525 213.20858 
C 403.17055 212.01328 403.842157 210.391877 403.842157 208.701468 
C 403.842157 207.011058 403.17055 205.389656 401.97525 204.194355 
C 400.77995 202.999055 399.158548 202.327448 397.468138 202.327448 
C 395.777728 202.327448 394.156326 202.999055 392.961026 204.194355 
C 391.765726 205.389656 391.094119 207.011058 391.094119 208.701468 
C 391.094119 210.391877 391.765726 212.01328 392.961026 213.20858 
C 394.156326 214.40388 395.777728 215.075487 397.468138 215.075487 
z
" style="fill:#0d6efd;stroke:#0d6efd;"/>
    <path clip-path="url(#p4aa72c305f)" d="M 211.927135 78.379038 
C 213.42043 78.379038 214.852765 77.785745 215.908685 76.729826 
C 216.964604 75.673906 217.557897 74.241571 217.557897 72.748275 
C 217.557897 71.25498 216.964604 69.822645 215.908685 68.766725 
C 214.852765 67.710806 213.42043 67.117513 211.927135 67.117513 
C 210.433839 67.117513 209.001504 67.710806 207.945584 68.766725 
C 206.889665 69.822645 206.296372 71.25498 206.296372 72.748275 
C 206.296372 74.241571 206.889665 75.673906 207.945584 76.729826 
C 209.001504 77.785745 210.433839 78.379038 211.927135 78.379038 
z
" style="fill:#0d6efd;stroke:#0d6efd;"/>
    <path clip-path="url(#p4aa72c305f)" d="M 328.269649 159.555392 
C 329.713752 159.555392 331.098903 158.981644 332.120038 157.960509 
C 333.141173 156.939374 333.714921 155.554223 333.714921 154.11012 
C 333.714921 152.666016 333.141173 151.280866 332.120038 150.25973 
C 331.098903 149.238595 329.713752 148.664847 328.269649 148.664847 
C 326.825545 148.664847 325.440395 149.238595 324.419259 150.25973 
C 323.398124 151.280866 322.824376 152.666016 322.824376 154.11012 
C 322.824376 155.554223 323.398124 156.939374 324.419259 157.960509 
C 325.440395 158.981644 326.825545 159.555392 328.269649 159.555392 
z
" style="fill:#0d6efd;stroke:#0d6efd;"/>
    <path clip-path="url(#p4aa72c305f)" d="M 395.901893 149.758202 
C 397.027472 149.758202 398.107102 149.311005 398.903007 148.5151 
C 399.698911 147.719196 400.146108 146.639566 400.146108 145.513987 
C 400.146108 144.388408 399.698911 143.308778 398.903007 142.512873 
C 398.107102 141.716968 397.027472 141.269771 395.901893 141.269771 
C 394.776314 141.269771 393.696684 141.716968 392.900779 142.512873 
C 392.104875 143.308778 391.657677 144.388408 391.657677 145.513987 
C 391.657677 146.639566 392.104875 147.719196 392.900779 148.5151 
C 393.696684 149.311005 394.776314 149.758202 395.901893 149.758202 
z
" style="fill:#0d6efd;stroke:#0d6efd;"/>
    <path clip-path="url(#p4aa72c305f)" d="M 325.629036 232.163345 
C 326.515796 232.163345 327.366356 231.811032 327.99339 231.183998 
C 328.620424 230.556964 328.972737 229.706404 328.972737 228.819644 
C 328.972737 227.932884 328.620424 227.082324 327.99339 226.45529 
C 327.366356 225.828256 326.515796 225.475942 325.629036 225.475942 
C 324.742276 225.475942 323.891716 225.828256 323.264682 226.45529 
C 322.637648 227.082324 322.285334 227.932884 322.285334 228.819644 
C 322.285334 229.706404 322.637648 230.556964 323.264682 231.183998 
C 323.891716 231.811032 324.742276 232.163345 325.629036 232.163345 
z
" style="fill:#0d6efd;stroke:#0d6efd;"/>
   </g>
   <g id="text_1">
    <g clip-path="url(#p4aa72c305f)">
     <!-- й -->
     <g style="fill:#ffffff;" transform="translate(137.321894 34.001345)scale(0.07 -0.07)">
      <defs>
       <path d="M 422 3319 
L 984 3319 
L 984 788 
L 2544 3319 
L 3150 3319 
L 3150 0 
L 2588 0 
L 2588 2516 
L 1028 0 
L 422 0 
L 422 3319 
z
M 2374 4575 
L 2759 4575 
Q 2712 4184 2473 3975 
Q 2234 3766 1837 3766 
Q 1437 3766 1198 3973 
Q 959 4181 912 4575 
L 1296 4575 
Q 1340 4363 1469 4258 
Q 1599 4153 1818 4153 
Q 2071 4153 2201 4254 
Q 2331 4356 2374 4575 
z
" id="ArialMT-439" transform="scale(0.015625)"/>
      </defs>
      <use xlink:href="#ArialMT-439"/>
     </g>
    </g>
   </g>
   <g id="text_2">
    <g clip-path="url(#p4aa72c305f)">
     <!-- с -->
     <g style="fill:#ffffff;" transform="translate(83.515476 68.750425)scale(0.07 -0.07)">
      <defs>
       <path d="M 2588 1216 
L 3141 1144 
Q 3050 572 2676 248 
Q 2303 -75 1759 -75 
Q 1078 -75 664 370 
Q 250 816 250 1647 
Q 250 2184 428 2587 
Q 606 2991 970 3192 
Q 1334 3394 1763 3394 
Q 2303 3394 2647 3120 
Q 2991 2847 3088 2344 
L 2541 2259 
Q 2463 2594 2264 2762 
Q 2066 2931 1784 2931 
Q 1359 2931 1093 2626 
Q 828 2322 828 1663 
Q 828 994 1084 691 
Q 1341 388 1753 388 
Q 2084 388 2306 591 
Q 2528 794 2588 1216 
z
" id="ArialMT-441" transform="scale(0.015625)"/>
      </defs>
      <use xlink:href="#ArialMT-441"/>
     </g>
    </g>
   </g>
   <g id="text_3">
    <g clip-path="url(#p4aa72c305f)">
     <!-- ц -->
     <g style="fill:#ffffff;" transform="translate(364.518651 210.859389)scale(0.07 -0.07)">
      <defs>
       <path d="M 431 3319 
L 994 3319 
L 994 463 
L 2550 463 
L 2550 3319 
L 3113 3319 
L 3113 463 
L 3475 463 
L 3475 -941 
L 3013 -941 
L 3013 0 
L 431 0 
L 431 3319 
z
" id="ArialMT-446" transform="scale(0.015625)"/>
      </defs>
      <use xlink:href="#ArialMT-446"/>
     </g>
    </g>
   </g>
   <g id="text_4">
    <g clip-path="url(#p4aa72c305f)">
     <!-- е -->
     <g style="fill:#ffffff;" transform="translate(336.328738 257.620079)scale(0.07 -0.07)">
      <defs>
       <path d="M 2694 1069 
L 3275 997 
Q 3138 488 2766 206 
Q 2394 -75 1816 -75 
Q 1088 -75 661 373 
Q 234 822 234 1631 
Q 234 2469 665 2931 
Q 1097 3394 1784 3394 
Q 2450 3394 2872 2941 
Q 3294 2488 3294 1666 
Q 3294 1616 3291 1516 
L 816 1516 
Q 847 969 1125 678 
Q 1403 388 1819 388 
Q 2128 388 2347 550 
Q 2566 713 2694 1069 
z
M 847 1978 
L 2700 1978 
Q 2663 2397 2488 2606 
Q 2219 2931 1791 2931 
Q 1403 2931 1139 2672 
Q 875 2413 847 1978 
z
" id="ArialMT-435" transform="scale(0.015625)"/>
      </defs>
      <use xlink:href="#ArialMT-435"/>
     </g>
    </g>
   </g>
   <g id="text_5">
    <g clip-path="url(#p4aa72c305f)">
     <!-- у -->
     <g style="fill:#ffffff;" transform="translate(367.456541 87.296352)scale(0.07 -0.07)">
      <defs>
       <path d="M 397 -1278 
L 334 -750 
Q 519 -800 656 -800 
Q 844 -800 956 -737 
Q 1069 -675 1141 -563 
Q 1194 -478 1313 -144 
Q 1328 -97 1363 -6 
L 103 3319 
L 709 3319 
L 1400 1397 
Q 1534 1031 1641 628 
Q 1738 1016 1872 1384 
L 2581 3319 
L 3144 3319 
L 1881 -56 
Q 1678 -603 1566 -809 
Q 1416 -1088 1222 -1217 
Q 1028 -1347 759 -1347 
Q 597 -1347 397 -1278 
z
" id="ArialMT-443" transform="scale(0.015625)"/>
      </defs>
      <use xlink:href="#ArialMT-443"/>
     </g>
    </g>
   </g>
   <g id="text_6">
    <g clip-path="url(#p4aa72c305f)">
     <!-- д -->
     <g style="fill:#ffffff;" transform="translate(314.928988 111.796588)scale(0.07 -0.07)">
      <defs>
       <path d="M 866 3319 
L 3178 3319 
L 3178 463 
L 3538 463 
L 3538 -941 
L 3075 -941 
L 3075 0 
L 463 0 
L 463 -941 
L 0 -941 
L 0 463 
L 297 463 
Q 891 1269 866 3319 
z
M 1334 2853 
Q 1272 1238 834 463 
L 2619 463 
L 2619 2853 
L 1334 2853 
z
" id="ArialMT-434" transform="scale(0.015625)"/>
      </defs>
      <use xlink:href="#ArialMT-434"/>
     </g>
    </g>
   </g>
   <g id="text_7">
    <g clip-path="url(#p4aa72c305f)">
     <!-- к -->
     <g style="fill:#ffffff;" transform="translate(170.008451 100.365935)scale(0.07 -0.07)">
      <defs>
       <path d="M 419 3319 
L 981 3319 
L 981 1884 
Q 1250 1884 1358 1987 
Q 1466 2091 1675 2588 
Q 1841 2981 1944 3106 
Q 2047 3231 2181 3275 
Q 2316 3319 2613 3319 
L 2725 3319 
L 2725 2853 
L 2569 2856 
Q 2347 2856 2284 2791 
Q 2219 2722 2084 2381 
Q 1956 2056 1850 1931 
Q 1744 1806 1522 1703 
Q 1884 1606 2234 1028 
L 2850 0 
L 2231 0 
L 1631 1028 
Q 1447 1338 1309 1436 
Q 1172 1534 981 1534 
L 981 0 
L 419 0 
L 419 3319 
z
" id="ArialMT-43a" transform="scale(0.015625)"/>
      </defs>
      <use xlink:href="#ArialMT-43a"/>
     </g>
    </g>
   </g>
   <g id="text_8">
    <g clip-path="url(#p4aa72c305f)">
     <!-- о -->
     <g style="fill:#ffffff;" transform="translate(91.335633 123.01753)scale(0.07 -0.07)">
      <defs>
       <path d="M 213 1659 
Q 213 2581 725 3025 
Q 1153 3394 1769 3394 
Q 2453 3394 2887 2945 
Q 3322 2497 3322 1706 
Q 3322 1066 3130 698 
Q 2938 331 2570 128 
Q 2203 -75 1769 -75 
Q 1072 -75 642 372 
Q 213 819 213 1659 
z
M 791 1659 
Q 791 1022 1069 705 
Q 1347 388 1769 388 
Q 2188 388 2466 706 
Q 2744 1025 2744 1678 
Q 2744 2294 2464 2611 
Q 2184 2928 1769 2928 
Q 1347 2928 1069 2612 
Q 791 2297 791 1659 
z
" id="ArialMT-43e" transform="scale(0.015625)"/>
      </defs>
      <use xlink:href="#ArialMT-43e"/>
     </g>
    </g>
   </g>
   <g id="text_9">
    <g clip-path="url(#p4aa72c305f)">
     <!-- н -->
     <g style="fill:#ffffff;" transform="translate(322.938725 272.017874)scale(0.07 -0.07)">
      <defs>
       <path d="M 425 3319 
L 988 3319 
L 988 1938 
L 2547 1938 
L 2547 3319 
L 3109 3319 
L 3109 0 
L 2547 0 
L 2547 1472 
L 988 1472 
L 988 0 
L 425 0 
L 425 3319 
z
" id="ArialMT-43d" transform="scale(0.015625)"/>
      </defs>
      <use xlink:href="#ArialMT-43d"/>
     </g>
    </g>
   </g>
   <g id="text_10">
    <g clip-path="url(#p4aa72c305f)">
     <!-- г -->
     <g style="fill:#ffffff;" transform="translate(147.798449 107.303862)scale(0.07 -0.07)">
      <defs>
       <path d="M 425 3319 
L 2334 3319 
L 2334 2853 
L 988 2853 
L 988 0 
L 425 0 
L 425 3319 
z
" id="ArialMT-433" transform="scale(0.015625)"/>
      </defs>
      <use xlink:href="#ArialMT-433"/>
     </g>
    </g>
   </g>
   <g id="text_11">
    <g clip-path="url(#p4aa72c305f)">
     <!-- ш -->
     <g style="fill:#ffffff;" transform="translate(398.90474 232.42126)scale(0.07 -0.07)">
      <defs>
       <path d="M 441 3319 
L 1003 3319 
L 1003 466 
L 2284 466 
L 2284 3319 
L 2847 3319 
L 2847 466 
L 4131 466 
L 4131 3319 
L 4691 3319 
L 4691 0 
L 441 0 
L 441 3319 
z
" id="ArialMT-448" transform="scale(0.015625)"/>
      </defs>
      <use xlink:href="#ArialMT-448"/>
     </g>
    </g>
   </g>
   <g id="text_12">
    <g clip-path="url(#p4aa72c305f)">
     <!-- щ -->
     <g style="fill:#ffffff;" transform="translate(357.031197 239.285355)scale(0.07 -0.07)">
      <defs>
       <path d="M 441 3319 
L 1003 3319 
L 1003 463 
L 2284 463 
L 2284 3319 
L 2847 3319 
L 2847 463 
L 4131 463 
L 4131 3319 
L 4691 3319 
L 4691 463 
L 5063 463 
L 5063 -941 
L 4597 -941 
L 4597 0 
L 441 0 
L 441 3319 
z
" id="ArialMT-449" transform="scale(0.015625)"/>
      </defs>
      <use xlink:href="#ArialMT-449"/>
     </g>
    </g>
   </g>
   <g id="text_13">
    <g clip-path="url(#p4aa72c305f)">
     <!-- з -->
     <g style="fill:#ffffff;" transform="translate(319.623067 125.476809)scale(0.07 -0.07)">
      <defs>
       <path d="M 1156 1500 
L 1156 1941 
Q 1513 1944 1642 1969 
Q 1772 1994 1887 2119 
Q 2003 2244 2003 2431 
Q 2003 2659 1851 2795 
Q 1700 2931 1459 2931 
Q 984 2931 794 2372 
L 259 2459 
Q 509 3394 1466 3394 
Q 1997 3394 2298 3103 
Q 2600 2813 2600 2409 
Q 2600 2003 2206 1763 
Q 2456 1628 2581 1420 
Q 2706 1213 2706 928 
Q 2706 481 2381 203 
Q 2056 -75 1472 -75 
Q 338 -75 156 934 
L 684 1047 
Q 756 728 976 553 
Q 1197 378 1481 378 
Q 1766 378 1955 539 
Q 2144 700 2144 950 
Q 2144 1144 2025 1287 
Q 1906 1431 1772 1467 
Q 1638 1503 1284 1503 
Q 1256 1503 1156 1500 
z
" id="ArialMT-437" transform="scale(0.015625)"/>
      </defs>
      <use xlink:href="#ArialMT-437"/>
     </g>
    </g>
   </g>
   <g id="text_14">
    <g clip-path="url(#p4aa72c305f)">
     <!-- а -->
     <g style="fill:#ffffff;" transform="translate(273.888009 142.787303)scale(0.07 -0.07)">
      <defs>
       <path d="M 2588 409 
Q 2275 144 1986 34 
Q 1697 -75 1366 -75 
Q 819 -75 525 192 
Q 231 459 231 875 
Q 231 1119 342 1320 
Q 453 1522 633 1644 
Q 813 1766 1038 1828 
Q 1203 1872 1538 1913 
Q 2219 1994 2541 2106 
Q 2544 2222 2544 2253 
Q 2544 2597 2384 2738 
Q 2169 2928 1744 2928 
Q 1347 2928 1158 2789 
Q 969 2650 878 2297 
L 328 2372 
Q 403 2725 575 2942 
Q 747 3159 1072 3276 
Q 1397 3394 1825 3394 
Q 2250 3394 2515 3294 
Q 2781 3194 2906 3042 
Q 3031 2891 3081 2659 
Q 3109 2516 3109 2141 
L 3109 1391 
Q 3109 606 3145 398 
Q 3181 191 3288 0 
L 2700 0 
Q 2613 175 2588 409 
z
M 2541 1666 
Q 2234 1541 1622 1453 
Q 1275 1403 1131 1340 
Q 988 1278 909 1158 
Q 831 1038 831 891 
Q 831 666 1001 516 
Q 1172 366 1500 366 
Q 1825 366 2078 508 
Q 2331 650 2450 897 
Q 2541 1088 2541 1459 
L 2541 1666 
z
" id="ArialMT-430" transform="scale(0.015625)"/>
      </defs>
      <use xlink:href="#ArialMT-430"/>
     </g>
    </g>
   </g>
   <g id="text_15">
    <g clip-path="url(#p4aa72c305f)">
     <!-- х -->
     <g style="fill:#ffffff;" transform="translate(55.741729 118.23452)scale(0.07 -0.07)">
      <defs>
       <path d="M 47 0 
L 1259 1725 
L 138 3319 
L 841 3319 
L 1350 2541 
Q 1494 2319 1581 2169 
Q 1719 2375 1834 2534 
L 2394 3319 
L 3066 3319 
L 1919 1756 
L 3153 0 
L 2463 0 
L 1781 1031 
L 1600 1309 
L 728 0 
L 47 0 
z
" id="ArialMT-445" transform="scale(0.015625)"/>
      </defs>
      <use xlink:href="#ArialMT-445"/>
     </g>
    </g>
   </g>
   <g id="text_16">
    <g clip-path="url(#p4aa72c305f)">
     <!-- ъ -->
     <g style="fill:#ffffff;" transform="translate(171.256436 78.009378)scale(0.07 -0.07)">
      <defs>
       <path d="M 125 3319 
L 1609 3319 
L 1609 2022 
L 2325 2022 
Q 3084 2022 3428 1726 
Q 3772 1431 3772 1003 
Q 3772 559 3439 279 
Q 3106 0 2456 0 
L 1047 0 
L 1047 2853 
L 125 2853 
L 125 3319 
z
M 1609 456 
L 2200 456 
Q 2738 456 2963 586 
Q 3188 716 3188 1003 
Q 3188 1266 2995 1409 
Q 2803 1553 2275 1553 
L 1609 1553 
L 1609 456 
z
" id="ArialMT-44a" transform="scale(0.015625)"/>
      </defs>
      <use xlink:href="#ArialMT-44a"/>
     </g>
    </g>
   </g>
   <g id="text_17">
    <g clip-path="url(#p4aa72c305f)">
     <!-- я -->
     <g style="fill:#ffffff;" transform="translate(124.383037 88.062927)scale(0.07 -0.07)">
      <defs>
       <path d="M 3034 3319 
L 3034 0 
L 2475 0 
L 2475 1294 
L 2150 1294 
Q 1853 1294 1708 1217 
Q 1563 1141 1284 725 
L 794 0 
L 97 0 
L 703 894 
Q 981 1303 1256 1356 
Q 775 1422 542 1703 
Q 309 1984 309 2350 
Q 309 2781 614 3050 
Q 919 3319 1497 3319 
L 3034 3319 
z
M 2475 2853 
L 1675 2853 
Q 1172 2853 1026 2697 
Q 881 2541 881 2331 
Q 881 2034 1095 1895 
Q 1309 1756 1853 1756 
L 2475 1756 
L 2475 2853 
z
" id="ArialMT-44f" transform="scale(0.015625)"/>
      </defs>
      <use xlink:href="#ArialMT-44f"/>
     </g>
    </g>
   </g>
   <g id="text_18">
    <g clip-path="url(#p4aa72c305f)">
     <!-- ф -->
     <g style="fill:#ffffff;" transform="translate(376.976508 229.963525)scale(0.07 -0.07)">
      <defs>
       <path d="M 2353 4581 
L 2916 4581 
L 2916 2997 
Q 3091 3197 3300 3295 
Q 3509 3394 3750 3394 
Q 4341 3394 4686 2901 
Q 5031 2409 5031 1663 
Q 5031 884 4659 404 
Q 4288 -75 3734 -75 
Q 3553 -75 3365 -18 
Q 3178 38 2916 288 
L 2916 -1272 
L 2353 -1272 
L 2353 288 
Q 2184 106 1979 15 
Q 1775 -75 1538 -75 
Q 1016 -75 625 383 
Q 234 841 234 1694 
Q 234 2416 587 2905 
Q 941 3394 1538 3394 
Q 1788 3394 1991 3295 
Q 2194 3197 2353 2997 
L 2353 4581 
z
M 2913 1647 
Q 2913 897 3119 639 
Q 3325 381 3634 381 
Q 3978 381 4220 698 
Q 4463 1016 4463 1684 
Q 4463 2316 4239 2625 
Q 4016 2934 3666 2934 
Q 3291 2934 3102 2612 
Q 2913 2291 2913 1647 
z
M 806 1709 
Q 806 1006 1042 697 
Q 1278 388 1628 388 
Q 1994 388 2175 695 
Q 2356 1003 2356 1619 
Q 2356 2275 2165 2603 
Q 1975 2931 1591 2931 
Q 1244 2931 1025 2611 
Q 806 2291 806 1709 
z
" id="ArialMT-444" transform="scale(0.015625)"/>
      </defs>
      <use xlink:href="#ArialMT-444"/>
     </g>
    </g>
   </g>
   <g id="text_19">
    <g clip-path="url(#p4aa72c305f)">
     <!-- ы -->
     <g style="fill:#ffffff;" transform="translate(269.194937 165.535144)scale(0.07 -0.07)">
      <defs>
       <path d="M 3581 3319 
L 4144 3319 
L 4144 0 
L 3581 0 
L 3581 3319 
z
M 434 3319 
L 997 3319 
L 997 2022 
L 1709 2022 
Q 2406 2022 2782 1751 
Q 3159 1481 3159 1006 
Q 3159 591 2845 295 
Q 2531 0 1841 0 
L 434 0 
L 434 3319 
z
M 997 463 
L 1588 463 
Q 2122 463 2350 594 
Q 2578 725 2578 1003 
Q 2578 1219 2409 1387 
Q 2241 1556 1663 1556 
L 997 1556 
L 997 463 
z
" id="ArialMT-44b" transform="scale(0.015625)"/>
      </defs>
      <use xlink:href="#ArialMT-44b"/>
     </g>
    </g>
   </g>
   <g id="text_20">
    <g clip-path="url(#p4aa72c305f)">
     <!-- л -->
     <g style="fill:#ffffff;" transform="translate(227.101822 168.200501)scale(0.07 -0.07)">
      <defs>
       <path d="M 697 3319 
L 3309 3319 
L 3309 0 
L 2750 0 
L 2750 2853 
L 1259 2853 
L 1259 1200 
Q 1259 622 1221 437 
Q 1184 253 1015 115 
Q 847 -22 528 -22 
Q 331 -22 75 3 
L 75 472 
L 322 472 
Q 497 472 572 508 
Q 647 544 672 622 
Q 697 700 697 1131 
L 697 3319 
z
" id="ArialMT-43b" transform="scale(0.015625)"/>
      </defs>
      <use xlink:href="#ArialMT-43b"/>
     </g>
    </g>
   </g>
   <g id="text_21">
    <g clip-path="url(#p4aa72c305f)">
     <!-- в -->
     <g style="fill:#ffffff;" transform="translate(42.828228 135.300544)scale(0.07 -0.07)">
      <defs>
       <path d="M 425 3319 
L 1722 3319 
Q 2200 3319 2433 3239 
Q 2666 3159 2833 2946 
Q 3000 2734 3000 2438 
Q 3000 2200 2901 2023 
Q 2803 1847 2606 1728 
Q 2841 1650 2995 1436 
Q 3150 1222 3150 928 
Q 3119 456 2812 228 
Q 2506 0 1922 0 
L 425 0 
L 425 3319 
z
M 988 1922 
L 1588 1922 
Q 1947 1922 2081 1959 
Q 2216 1997 2322 2111 
Q 2428 2225 2428 2384 
Q 2428 2647 2242 2750 
Q 2056 2853 1606 2853 
L 988 2853 
L 988 1922 
z
M 988 463 
L 1728 463 
Q 2206 463 2384 573 
Q 2563 684 2572 956 
Q 2572 1116 2469 1252 
Q 2366 1388 2200 1423 
Q 2034 1459 1669 1459 
L 988 1459 
L 988 463 
z
" id="ArialMT-432" transform="scale(0.015625)"/>
      </defs>
      <use xlink:href="#ArialMT-432"/>
     </g>
    </g>
   </g>
   <g id="text_22">
    <g clip-path="url(#p4aa72c305f)">
     <!-- п -->
     <g style="fill:#ffffff;" transform="translate(125.311603 125.224645)scale(0.07 -0.07)">
      <defs>
       <path d="M 425 3319 
L 3044 3319 
L 3044 0 
L 2481 0 
L 2481 2853 
L 988 2853 
L 988 0 
L 425 0 
L 425 3319 
z
" id="ArialMT-43f" transform="scale(0.015625)"/>
      </defs>
      <use xlink:href="#ArialMT-43f"/>
     </g>
    </g>
   </g>
   <g id="text_23">
    <g clip-path="url(#p4aa72c305f)">
     <!-- р -->
     <g style="fill:#ffffff;" transform="translate(346.304974 122.691162)scale(0.07 -0.07)">
      <defs>
       <path d="M 422 -1272 
L 422 3319 
L 934 3319 
L 934 2888 
Q 1116 3141 1344 3267 
Q 1572 3394 1897 3394 
Q 2322 3394 2647 3175 
Q 2972 2956 3137 2557 
Q 3303 2159 3303 1684 
Q 3303 1175 3120 767 
Q 2938 359 2589 142 
Q 2241 -75 1856 -75 
Q 1575 -75 1351 44 
Q 1128 163 984 344 
L 984 -1272 
L 422 -1272 
z
M 931 1641 
Q 931 1000 1190 694 
Q 1450 388 1819 388 
Q 2194 388 2461 705 
Q 2728 1022 2728 1688 
Q 2728 2322 2467 2637 
Q 2206 2953 1844 2953 
Q 1484 2953 1207 2617 
Q 931 2281 931 1641 
z
" id="ArialMT-440" transform="scale(0.015625)"/>
      </defs>
      <use xlink:href="#ArialMT-440"/>
     </g>
    </g>
   </g>
   <g id="text_24">
    <g clip-path="url(#p4aa72c305f)">
     <!-- и -->
     <g style="fill:#ffffff;" transform="translate(201.027418 184.928937)scale(0.07 -0.07)">
      <defs>
       <path d="M 422 3319 
L 984 3319 
L 984 788 
L 2544 3319 
L 3150 3319 
L 3150 0 
L 2588 0 
L 2588 2516 
L 1028 0 
L 422 0 
L 422 3319 
z
" id="ArialMT-438" transform="scale(0.015625)"/>
      </defs>
      <use xlink:href="#ArialMT-438"/>
     </g>
    </g>
   </g>
   <g id="text_25">
    <g clip-path="url(#p4aa72c305f)">
     <!-- ж -->
     <g style="fill:#ffffff;" transform="translate(369.421749 266.802372)scale(0.07 -0.07)">
      <defs>
       <path d="M 2428 3319 
L 2428 1884 
Q 2697 1884 2806 1987 
Q 2916 2091 3125 2588 
Q 3322 3059 3478 3191 
Q 3631 3319 3966 3319 
L 4172 3319 
L 4172 2853 
L 4019 2856 
Q 3794 2856 3731 2791 
Q 3666 2722 3531 2381 
Q 3406 2056 3300 1931 
Q 3194 1806 2969 1703 
Q 3334 1606 3681 1028 
L 4300 0 
L 3681 0 
L 3078 1028 
Q 2894 1341 2756 1437 
Q 2619 1534 2428 1534 
L 2428 0 
L 1853 0 
L 1853 1534 
Q 1666 1534 1528 1439 
Q 1391 1344 1206 1028 
L 603 0 
L -16 0 
L 600 1028 
Q 950 1606 1316 1703 
Q 1066 1819 966 1955 
Q 866 2091 666 2603 
Q 597 2775 519 2816 
Q 438 2856 278 2856 
Q 238 2856 113 2853 
L 113 3319 
L 191 3319 
Q 516 3319 648 3280 
Q 781 3241 886 3114 
Q 991 2988 1159 2588 
Q 1366 2097 1473 1990 
Q 1581 1884 1853 1884 
L 1853 3319 
L 2428 3319 
z
" id="ArialMT-436" transform="scale(0.015625)"/>
      </defs>
      <use xlink:href="#ArialMT-436"/>
     </g>
    </g>
   </g>
   <g id="text_26">
    <g clip-path="url(#p4aa72c305f)">
     <!-- э -->
     <g style="fill:#ffffff;" transform="translate(106.663872 83.967869)scale(0.07 -0.07)">
      <defs>
       <path d="M 1263 1931 
L 1263 1469 
L 2434 1469 
Q 2381 928 2154 658 
Q 1928 388 1525 388 
Q 813 388 684 1213 
L 134 1141 
Q 222 594 589 259 
Q 956 -75 1550 -75 
Q 2256 -116 2643 373 
Q 3031 863 3013 1659 
Q 3013 2469 2609 2931 
Q 2206 3394 1509 3394 
Q 953 3394 609 3098 
Q 266 2803 191 2338 
L 738 2250 
Q 875 2928 1528 2928 
Q 1903 2928 2142 2651 
Q 2381 2375 2434 1931 
L 1263 1931 
z
" id="ArialMT-44d" transform="scale(0.015625)"/>
      </defs>
      <use xlink:href="#ArialMT-44d"/>
     </g>
    </g>
   </g>
   <g id="text_27">
    <g clip-path="url(#p4aa72c305f)">
     <!-- т -->
     <g style="fill:#ffffff;" transform="translate(54.700181 104.847289)scale(0.07 -0.07)">
      <defs>
       <path d="M 119 3319 
L 2816 3319 
L 2816 2853 
L 1747 2853 
L 1747 0 
L 1188 0 
L 1188 2853 
L 119 2853 
L 119 3319 
z
" id="ArialMT-442" transform="scale(0.015625)"/>
      </defs>
      <use xlink:href="#ArialMT-442"/>
     </g>
    </g>
   </g>
   <g id="text_28">
    <g clip-path="url(#p4aa72c305f)">
     <!-- ч -->
     <g style="fill:#ffffff;" transform="translate(130.063413 72.105254)scale(0.07 -0.07)">
      <defs>
       <path d="M 216 3319 
L 778 3319 
L 778 2691 
Q 778 2284 826 2101 
Q 875 1919 1059 1783 
Q 1244 1647 1522 1647 
Q 1841 1647 2347 1816 
L 2347 3319 
L 2909 3319 
L 2909 0 
L 2347 0 
L 2347 1338 
Q 1828 1175 1378 1175 
Q 1000 1175 711 1367 
Q 422 1559 319 1837 
Q 216 2116 216 2450 
L 216 3319 
z
" id="ArialMT-447" transform="scale(0.015625)"/>
      </defs>
      <use xlink:href="#ArialMT-447"/>
     </g>
    </g>
   </g>
   <g id="text_29">
    <g clip-path="url(#p4aa72c305f)">
     <!-- м -->
     <g style="fill:#ffffff;" transform="translate(395.061888 210.511077)scale(0.07 -0.07)">
      <defs>
       <path d="M 438 3319 
L 1313 3319 
L 2184 663 
L 3153 3319 
L 3963 3319 
L 3963 0 
L 3400 0 
L 3400 2672 
L 2419 0 
L 1916 0 
L 988 2800 
L 988 0 
L 438 0 
L 438 3319 
z
" id="ArialMT-43c" transform="scale(0.015625)"/>
      </defs>
      <use xlink:href="#ArialMT-43c"/>
     </g>
    </g>
   </g>
   <g id="text_30">
    <g clip-path="url(#p4aa72c305f)">
     <!-- ь -->
     <g style="fill:#ffffff;" transform="translate(210.103853 74.557885)scale(0.07 -0.07)">
      <defs>
       <path d="M 413 3319 
L 975 3319 
L 975 2022 
L 1688 2022 
Q 2384 2022 2761 1751 
Q 3138 1481 3138 1006 
Q 3138 591 2823 295 
Q 2509 0 1819 0 
L 413 0 
L 413 3319 
z
M 975 463 
L 1566 463 
Q 2100 463 2328 594 
Q 2556 725 2556 1003 
Q 2556 1219 2387 1387 
Q 2219 1556 1641 1556 
L 975 1556 
L 975 463 
z
" id="ArialMT-44c" transform="scale(0.015625)"/>
      </defs>
      <use xlink:href="#ArialMT-44c"/>
     </g>
    </g>
   </g>
   <g id="text_31">
    <g clip-path="url(#p4aa72c305f)">
     <!-- б -->
     <g style="fill:#ffffff;" transform="translate(326.264805 155.919729)scale(0.07 -0.07)">
      <defs>
       <path d="M 2853 4691 
L 3350 4684 
Q 3316 4350 3202 4219 
Q 3088 4088 2908 4050 
Q 2728 4013 2203 4013 
Q 1506 4013 1253 3878 
Q 1000 3744 889 3448 
Q 778 3153 766 2688 
Q 978 3003 1262 3161 
Q 1547 3319 1903 3319 
Q 2556 3319 2984 2870 
Q 3413 2422 3413 1656 
Q 3413 1075 3197 703 
Q 2981 331 2686 128 
Q 2391 -75 1881 -75 
Q 1291 -75 962 195 
Q 634 466 459 887 
Q 284 1309 284 2356 
Q 284 3672 729 4128 
Q 1175 4584 2100 4584 
Q 2675 4584 2753 4603 
Q 2831 4622 2853 4691 
z
M 2825 1672 
Q 2825 2191 2579 2522 
Q 2334 2853 1888 2853 
Q 1422 2853 1169 2503 
Q 916 2153 916 1569 
Q 916 991 1195 684 
Q 1475 378 1884 378 
Q 2303 378 2564 733 
Q 2825 1088 2825 1672 
z
" id="ArialMT-431" transform="scale(0.015625)"/>
      </defs>
      <use xlink:href="#ArialMT-431"/>
     </g>
    </g>
   </g>
   <g id="text_32">
    <g clip-path="url(#p4aa72c305f)">
     <!-- ю -->
     <g style="fill:#ffffff;" transform="translate(393.276893 147.323596)scale(0.07 -0.07)">
      <defs>
       <path d="M 428 3319 
L 991 3319 
L 991 1931 
L 1672 1931 
Q 1747 2644 2117 3019 
Q 2488 3394 3078 3394 
Q 3581 3394 3872 3191 
Q 4163 2988 4352 2631 
Q 4541 2275 4541 1672 
Q 4541 813 4150 369 
Q 3759 -75 3091 -75 
Q 2469 -75 2094 337 
Q 1719 750 1672 1469 
L 991 1469 
L 991 0 
L 428 0 
L 428 3319 
z
M 3109 2916 
Q 2697 2916 2467 2598 
Q 2238 2281 2238 1709 
Q 2238 1025 2469 706 
Q 2700 388 3088 388 
Q 3472 388 3717 683 
Q 3963 978 3963 1634 
Q 3963 2275 3750 2595 
Q 3538 2916 3109 2916 
z
" id="ArialMT-44e" transform="scale(0.015625)"/>
      </defs>
      <use xlink:href="#ArialMT-44e"/>
     </g>
    </g>
   </g>
   <g id="text_33">
    <g clip-path="url(#p4aa72c305f)">
     <!-- ё -->
     <g style="fill:#ffffff;" transform="translate(323.682708 230.629253)scale(0.07 -0.07)">
      <defs>
       <path d="M 2694 1069 
L 3275 997 
Q 3138 488 2766 206 
Q 2394 -75 1816 -75 
Q 1088 -75 661 373 
Q 234 822 234 1631 
Q 234 2469 665 2931 
Q 1097 3394 1784 3394 
Q 2450 3394 2872 2941 
Q 3294 2488 3294 1666 
Q 3294 1616 3291 1516 
L 816 1516 
Q 847 969 1125 678 
Q 1403 388 1819 388 
Q 2128 388 2347 550 
Q 2566 713 2694 1069 
z
M 847 1978 
L 2700 1978 
Q 2663 2397 2488 2606 
Q 2219 2931 1791 2931 
Q 1403 2931 1139 2672 
Q 875 2413 847 1978 
z
M 887 3969 
L 887 4609 
L 1474 4609 
L 1474 3969 
L 887 3969 
z
M 2052 3969 
L 2052 4609 
L 2640 4609 
L 2640 3969 
L 2052 3969 
z
" id="ArialMT-451" transform="scale(0.015625)"/>
      </defs>
      <use xlink:href="#ArialMT-451"/>
     </g>
    </g>
   </g>
  </g>
 </g>
 <defs>
  <clipPath id="p4aa72c305f">
   <rect height="288" width="432" x="7.2" y="7.2"/>
  </clipPath>
 </defs>
</svg>
