<?xml version="1.0" encoding="utf-8" standalone="no"?>
<!DOCTYPE svg PUBLIC "-//W3C//DTD SVG 1.1//EN"
  "http://www.w3.org/Graphics/SVG/1.1/DTD/svg11.dtd">
<svg height="302.4pt" version="1.1" viewBox="0 0 446.4 302.4" width="446.4pt" xmlns="http://www.w3.org/2000/svg" xmlns:xlink="http://www.w3.org/1999/xlink">
 <metadata>
  <rdf:RDF xmlns:cc="http://creativecommons.org/ns#" xmlns:dc="http://purl.org/dc/elements/1.1/" xmlns:rdf="http://www.w3.org/1999/02/22-rdf-syntax-ns#">
   <cc:Work>
    <dc:type rdf:resource="http://purl.org/dc/dcmitype/StillImage"/>
    <dc:date>2023-07-23T23:00:40.561893</dc:date>
    <dc:format>image/svg+xml</dc:format>
    <dc:creator>
     <cc:Agent>
      <dc:title>Matplotlib v3.4.3, https://matplotlib.org/</dc:title>
     </cc:Agent>
    </dc:creator>
   </cc:Work>
  </rdf:RDF>
 </metadata>
 <defs>
  <style type="text/css">*{stroke-linecap:butt;stroke-linejoin:round;}</style>
 </defs>
 <g id="figure_1">
  <g id="patch_1">
   <path d="M 0 302.4 
L 446.4 302.4 
L 446.4 0 
L 0 0 
z
" style="fill:#ffffff;"/>
  </g>
  <g id="axes_1">
   <g id="patch_2">
    <path clip-path="url(#p0367ed264c)" d="M 72.316975 54.571285 
Q 72.843385 83.886733 73.357751 112.531469 
" style="fill:none;stroke:#89a4cb;stroke-linecap:round;stroke-opacity:0.533333;stroke-width:0.6;"/>
    <path clip-path="url(#p0367ed264c)" d="M 75.285613 108.496206 
L 73.357751 112.531469 
L 71.286258 108.568021 
L 75.285613 108.496206 
z
" style="fill:#89a4cb;fill-opacity:0.533333;stroke:#89a4cb;stroke-linecap:round;stroke-opacity:0.533333;stroke-width:0.6;"/>
   </g>
   <g id="patch_3">
    <path clip-path="url(#p0367ed264c)" d="M 72.959385 123.171315 
Q 70.070849 151.879424 67.267417 179.741715 
" style="fill:none;stroke:#89a4cb;stroke-linecap:round;stroke-opacity:0.533333;stroke-width:0.760342;"/>
    <path clip-path="url(#p0367ed264c)" d="M 69.657817 175.962035 
L 67.267417 179.741715 
L 65.677912 175.561587 
L 69.657817 175.962035 
z
" style="fill:#89a4cb;fill-opacity:0.533333;stroke:#89a4cb;stroke-linecap:round;stroke-opacity:0.533333;stroke-width:0.760342;"/>
   </g>
   <g id="patch_4">
    <path clip-path="url(#p0367ed264c)" d="M 347.173113 74.559655 
Q 339.891671 86.644951 333.097675 97.921212 
" style="fill:none;stroke:#89a4cb;stroke-linecap:round;stroke-opacity:0.533333;stroke-width:0.844816;"/>
    <path clip-path="url(#p0367ed264c)" d="M 336.875054 95.527175 
L 333.097675 97.921212 
L 333.448873 93.462887 
L 336.875054 95.527175 
z
" style="fill:#89a4cb;fill-opacity:0.533333;stroke:#89a4cb;stroke-linecap:round;stroke-opacity:0.533333;stroke-width:0.844816;"/>
   </g>
   <g id="patch_5">
    <path clip-path="url(#p0367ed264c)" d="M 331.237371 107.867518 
Q 334.041131 119.140828 336.682985 129.76315 
" style="fill:none;stroke:#89a4cb;stroke-linecap:round;stroke-opacity:0.533333;stroke-width:0.6;"/>
    <path clip-path="url(#p0367ed264c)" d="M 337.658438 125.398692 
L 336.682985 129.76315 
L 333.776691 126.364113 
L 337.658438 125.398692 
z
" style="fill:#89a4cb;fill-opacity:0.533333;stroke:#89a4cb;stroke-linecap:round;stroke-opacity:0.533333;stroke-width:0.6;"/>
   </g>
   <g id="patch_6">
    <path clip-path="url(#p0367ed264c)" d="M 377.269936 36.998093 
Q 370.935772 59.17643 364.78583 80.709738 
" style="fill:none;stroke:#89a4cb;stroke-linecap:round;stroke-opacity:0.533333;stroke-width:0.6;"/>
    <path clip-path="url(#p0367ed264c)" d="M 367.807418 77.412769 
L 364.78583 80.709738 
L 363.961208 76.314286 
L 367.807418 77.412769 
z
" style="fill:#89a4cb;fill-opacity:0.533333;stroke:#89a4cb;stroke-linecap:round;stroke-opacity:0.533333;stroke-width:0.6;"/>
   </g>
   <g id="patch_7">
    <path clip-path="url(#p0367ed264c)" d="M 358.765969 88.429552 
Q 346.627183 94.589874 335.086594 100.446616 
" style="fill:none;stroke:#89a4cb;stroke-linecap:round;stroke-opacity:0.533333;stroke-width:0.6;"/>
    <path clip-path="url(#p0367ed264c)" d="M 339.55865 100.419897 
L 335.086594 100.446616 
L 337.748452 96.85294 
L 339.55865 100.419897 
z
" style="fill:#89a4cb;fill-opacity:0.533333;stroke:#89a4cb;stroke-linecap:round;stroke-opacity:0.533333;stroke-width:0.6;"/>
   </g>
   <g id="patch_8">
    <path clip-path="url(#p0367ed264c)" d="M 90.367938 206.364005 
Q 85.81712 226.494396 81.498794 245.596368 
" style="fill:none;stroke:#89a4cb;stroke-linecap:round;stroke-opacity:0.533333;stroke-width:0.943057;"/>
    <path clip-path="url(#p0367ed264c)" d="M 84.331578 242.135828 
L 81.498794 245.596368 
L 80.430032 241.253818 
L 84.331578 242.135828 
z
" style="fill:#89a4cb;fill-opacity:0.533333;stroke:#89a4cb;stroke-linecap:round;stroke-opacity:0.533333;stroke-width:0.943057;"/>
   </g>
   <g id="patch_9">
    <path clip-path="url(#p0367ed264c)" d="M 83.161773 255.502047 
Q 87.175496 260.853516 90.786719 265.668335 
" style="fill:none;stroke:#89a4cb;stroke-linecap:round;stroke-opacity:0.533333;stroke-width:0.6;"/>
    <path clip-path="url(#p0367ed264c)" d="M 89.986655 261.268346 
L 90.786719 265.668335 
L 86.78669 263.668393 
L 89.986655 261.268346 
z
" style="fill:#89a4cb;fill-opacity:0.533333;stroke:#89a4cb;stroke-linecap:round;stroke-opacity:0.533333;stroke-width:0.6;"/>
   </g>
   <g id="patch_10">
    <path clip-path="url(#p0367ed264c)" d="M 339.751321 139.968196 
Q 345.476473 155.805062 350.973563 171.011066 
" style="fill:none;stroke:#89a4cb;stroke-linecap:round;stroke-opacity:0.533333;stroke-width:0.6;"/>
    <path clip-path="url(#p0367ed264c)" d="M 351.494534 166.569378 
L 350.973563 171.011066 
L 347.732795 167.929276 
L 351.494534 166.569378 
z
" style="fill:#89a4cb;fill-opacity:0.533333;stroke:#89a4cb;stroke-linecap:round;stroke-opacity:0.533333;stroke-width:0.6;"/>
   </g>
   <g id="patch_11">
    <path clip-path="url(#p0367ed264c)" d="M 356.257331 180.051455 
Q 366.890609 191.798053 377.0737 203.047328 
" style="fill:none;stroke:#89a4cb;stroke-linecap:round;stroke-opacity:0.533333;stroke-width:0.6;"/>
    <path clip-path="url(#p0367ed264c)" d="M 375.872028 198.739662 
L 377.0737 203.047328 
L 372.906564 201.424065 
L 375.872028 198.739662 
z
" style="fill:#89a4cb;fill-opacity:0.533333;stroke:#89a4cb;stroke-linecap:round;stroke-opacity:0.533333;stroke-width:0.6;"/>
   </g>
   <g id="patch_12">
    <path clip-path="url(#p0367ed264c)" d="M 118.429084 142.189537 
Q 100.122369 194.486602 82.364315 245.2163 
" style="fill:none;stroke:#89a4cb;stroke-linecap:round;stroke-opacity:0.533333;stroke-width:1.485305;"/>
    <path clip-path="url(#p0367ed264c)" d="M 85.573578 242.101717 
L 82.364315 245.2163 
L 81.798207 240.780139 
L 85.573578 242.101717 
z
" style="fill:#89a4cb;fill-opacity:0.533333;stroke:#89a4cb;stroke-linecap:round;stroke-opacity:0.533333;stroke-width:1.485305;"/>
   </g>
   <g id="patch_13">
    <path clip-path="url(#p0367ed264c)" d="M 335.304482 63.677206 
Q 332.999779 80.864924 330.818701 97.13069 
" style="fill:none;stroke:#89a4cb;stroke-linecap:round;stroke-opacity:0.533333;stroke-width:0.831999;"/>
    <path clip-path="url(#p0367ed264c)" d="M 333.332562 93.431974 
L 330.818701 97.13069 
L 329.368044 92.900372 
L 333.332562 93.431974 
z
" style="fill:#89a4cb;fill-opacity:0.533333;stroke:#89a4cb;stroke-linecap:round;stroke-opacity:0.533333;stroke-width:0.831999;"/>
   </g>
   <g id="patch_14">
    <path clip-path="url(#p0367ed264c)" d="M 325.983456 82.409159 
Q 327.524854 90.257509 328.769016 96.592417 
" style="fill:none;stroke:#89a4cb;stroke-linecap:round;stroke-opacity:0.533333;stroke-width:1.379524;"/>
    <path clip-path="url(#p0367ed264c)" d="M 329.96066 92.281966 
L 328.769016 96.592417 
L 326.035642 93.052831 
L 329.96066 92.281966 
z
" style="fill:#89a4cb;fill-opacity:0.533333;stroke:#89a4cb;stroke-linecap:round;stroke-opacity:0.533333;stroke-width:1.379524;"/>
   </g>
   <g id="patch_15">
    <path clip-path="url(#p0367ed264c)" d="M 309.350706 126.684363 
Q 329.476776 149.633625 348.894869 171.775597 
" style="fill:none;stroke:#89a4cb;stroke-linecap:round;stroke-opacity:0.533333;stroke-width:0.960395;"/>
    <path clip-path="url(#p0367ed264c)" d="M 347.761154 167.44955 
L 348.894869 171.775597 
L 344.753802 170.086941 
L 347.761154 167.44955 
z
" style="fill:#89a4cb;fill-opacity:0.533333;stroke:#89a4cb;stroke-linecap:round;stroke-opacity:0.533333;stroke-width:0.960395;"/>
   </g>
   <g id="patch_16">
    <path clip-path="url(#p0367ed264c)" d="M 106.45193 210.745597 
Q 94.662616 229.023998 83.289791 246.656666 
" style="fill:none;stroke:#89a4cb;stroke-linecap:round;stroke-opacity:0.533333;stroke-width:0.687274;"/>
    <path clip-path="url(#p0367ed264c)" d="M 87.13861 244.379257 
L 83.289791 246.656666 
L 83.777155 242.211166 
L 87.13861 244.379257 
z
" style="fill:#89a4cb;fill-opacity:0.533333;stroke:#89a4cb;stroke-linecap:round;stroke-opacity:0.533333;stroke-width:0.687274;"/>
   </g>
   <g id="patch_17">
    <path clip-path="url(#p0367ed264c)" d="M 46.334266 107.095617 
Q 49.606955 116.4739 52.061046 123.506391 
" style="fill:none;stroke:#89a4cb;stroke-linecap:round;stroke-opacity:0.533333;stroke-width:2.222222;"/>
    <path clip-path="url(#p0367ed264c)" d="M 52.631454 119.070781 
L 52.061046 123.506391 
L 48.854803 120.388699 
L 52.631454 119.070781 
z
" style="fill:#89a4cb;fill-opacity:0.533333;stroke:#89a4cb;stroke-linecap:round;stroke-opacity:0.533333;stroke-width:2.222222;"/>
   </g>
   <g id="patch_18">
    <path clip-path="url(#p0367ed264c)" d="M 55.606158 135.455822 
Q 60.604059 158.068194 65.457185 180.025553 
" style="fill:none;stroke:#89a4cb;stroke-linecap:round;stroke-opacity:0.533333;stroke-width:0.6;"/>
    <path clip-path="url(#p0367ed264c)" d="M 66.546787 175.688184 
L 65.457185 180.025553 
L 62.641052 176.55145 
L 66.546787 175.688184 
z
" style="fill:#89a4cb;fill-opacity:0.533333;stroke:#89a4cb;stroke-linecap:round;stroke-opacity:0.533333;stroke-width:0.6;"/>
   </g>
   <g id="patch_19">
    <path clip-path="url(#p0367ed264c)" d="M 401.380594 163.028993 
Q 400.314826 179.053562 399.301303 194.292604 
" style="fill:none;stroke:#89a4cb;stroke-linecap:round;stroke-opacity:0.533333;stroke-width:0.704148;"/>
    <path clip-path="url(#p0367ed264c)" d="M 401.562341 190.434145 
L 399.301303 194.292604 
L 397.571159 190.168698 
L 401.562341 190.434145 
z
" style="fill:#89a4cb;fill-opacity:0.533333;stroke:#89a4cb;stroke-linecap:round;stroke-opacity:0.533333;stroke-width:0.704148;"/>
   </g>
   <g id="patch_20">
    <path clip-path="url(#p0367ed264c)" d="M 394.271915 201.916416 
Q 389.899417 203.65926 386.150063 205.153724 
" style="fill:none;stroke:#89a4cb;stroke-linecap:round;stroke-opacity:0.533333;stroke-width:0.6;"/>
    <path clip-path="url(#p0367ed264c)" d="M 390.606297 205.530525 
L 386.150063 205.153724 
L 389.125244 201.814817 
L 390.606297 205.530525 
z
" style="fill:#89a4cb;fill-opacity:0.533333;stroke:#89a4cb;stroke-linecap:round;stroke-opacity:0.533333;stroke-width:0.6;"/>
   </g>
   <g id="patch_21">
    <path clip-path="url(#p0367ed264c)" d="M 333.101755 157.810122 
Q 355.25498 180.734838 376.94205 203.177165 
" style="fill:none;stroke:#89a4cb;stroke-linecap:round;stroke-opacity:0.533333;stroke-width:0.6;"/>
    <path clip-path="url(#p0367ed264c)" d="M 375.600644 198.910946 
L 376.94205 203.177165 
L 372.724231 201.690558 
L 375.600644 198.910946 
z
" style="fill:#89a4cb;fill-opacity:0.533333;stroke:#89a4cb;stroke-linecap:round;stroke-opacity:0.533333;stroke-width:0.6;"/>
   </g>
   <g id="patch_22">
    <path clip-path="url(#p0367ed264c)" d="M 385.526941 205.402096 
Q 389.899438 203.659252 393.648792 202.164787 
" style="fill:none;stroke:#89a4cb;stroke-linecap:round;stroke-opacity:0.533333;stroke-width:0.6;"/>
    <path clip-path="url(#p0367ed264c)" d="M 389.192558 201.787987 
L 393.648792 202.164787 
L 390.673611 205.503694 
L 389.192558 201.787987 
z
" style="fill:#89a4cb;fill-opacity:0.533333;stroke:#89a4cb;stroke-linecap:round;stroke-opacity:0.533333;stroke-width:0.6;"/>
   </g>
   <g id="patch_23">
    <path clip-path="url(#p0367ed264c)" d="M 91.193241 266.210347 
Q 87.179518 260.858878 83.568295 256.044059 
" style="fill:none;stroke:#89a4cb;stroke-linecap:round;stroke-opacity:0.533333;stroke-width:0.6;"/>
    <path clip-path="url(#p0367ed264c)" d="M 84.368358 260.444048 
L 83.568295 256.044059 
L 87.568324 258.044001 
L 84.368358 260.444048 
z
" style="fill:#89a4cb;fill-opacity:0.533333;stroke:#89a4cb;stroke-linecap:round;stroke-opacity:0.533333;stroke-width:0.6;"/>
   </g>
   <g id="patch_24">
    <path clip-path="url(#p0367ed264c)" d="M 99.334518 187.653932 
Q 90.467921 217.184259 81.974805 245.470703 
" style="fill:none;stroke:#89a4cb;stroke-linecap:round;stroke-opacity:0.533333;stroke-width:1.16163;"/>
    <path clip-path="url(#p0367ed264c)" d="M 85.040607 242.214808 
L 81.974805 245.470703 
L 81.20957 241.064524 
L 85.040607 242.214808 
z
" style="fill:#89a4cb;fill-opacity:0.533333;stroke:#89a4cb;stroke-linecap:round;stroke-opacity:0.533333;stroke-width:1.16163;"/>
   </g>
   <g id="patch_25">
    <path clip-path="url(#p0367ed264c)" d="M 327.005556 187.51829 
Q 337.657008 182.922277 347.652587 178.609268 
" style="fill:none;stroke:#89a4cb;stroke-linecap:round;stroke-opacity:0.533333;stroke-width:0.638912;"/>
    <path clip-path="url(#p0367ed264c)" d="M 343.187534 178.357658 
L 347.652587 178.609268 
L 344.772268 182.030344 
L 343.187534 178.357658 
z
" style="fill:#89a4cb;fill-opacity:0.533333;stroke:#89a4cb;stroke-linecap:round;stroke-opacity:0.533333;stroke-width:0.638912;"/>
   </g>
   <g id="patch_26">
    <path clip-path="url(#p0367ed264c)" d="M 309.115358 62.145816 
Q 318.433363 80.353128 327.098135 97.284029 
" style="fill:none;stroke:#89a4cb;stroke-linecap:round;stroke-opacity:0.533333;stroke-width:1.282478;"/>
    <path clip-path="url(#p0367ed264c)" d="M 327.056215 92.81209 
L 327.098135 97.284029 
L 323.495431 94.634401 
L 327.056215 92.81209 
z
" style="fill:#89a4cb;fill-opacity:0.533333;stroke:#89a4cb;stroke-linecap:round;stroke-opacity:0.533333;stroke-width:1.282478;"/>
   </g>
   <g id="patch_27">
    <path clip-path="url(#p0367ed264c)" d="M 90.652697 105.901759 
Q 79.387306 143.339862 68.895089 178.20849 
" style="fill:none;stroke:#89a4cb;stroke-linecap:round;stroke-opacity:0.533333;stroke-width:2.4;"/>
    <path clip-path="url(#p0367ed264c)" d="M 71.962841 174.954432 
L 68.895089 178.20849 
L 68.132494 173.801853 
L 71.962841 174.954432 
z
" style="fill:#89a4cb;fill-opacity:0.533333;stroke:#89a4cb;stroke-linecap:round;stroke-opacity:0.533333;stroke-width:2.4;"/>
   </g>
   <g id="patch_28">
    <path clip-path="url(#p0367ed264c)" d="M 67.682929 190.462805 
Q 73.422244 218.533841 78.993269 245.781773 
" style="fill:none;stroke:#89a4cb;stroke-linecap:round;stroke-opacity:0.533333;stroke-width:0.751438;"/>
    <path clip-path="url(#p0367ed264c)" d="M 80.151482 241.462219 
L 78.993269 245.781773 
L 76.232554 242.263471 
L 80.151482 241.462219 
z
" style="fill:#89a4cb;fill-opacity:0.533333;stroke:#89a4cb;stroke-linecap:round;stroke-opacity:0.533333;stroke-width:0.751438;"/>
   </g>
   <g id="patch_29">
    <path clip-path="url(#p0367ed264c)" d="M 67.896919 187.309362 
Q 67.289214 186.437106 67.248749 186.379026 
" style="fill:none;stroke:#89a4cb;stroke-linecap:round;stroke-opacity:0.533333;stroke-width:0.887534;"/>
    <path clip-path="url(#p0367ed264c)" d="M 67.894335 190.804319 
L 67.248749 186.379026 
L 71.176335 188.517733 
L 67.894335 190.804319 
z
" style="fill:#89a4cb;fill-opacity:0.533333;stroke:#89a4cb;stroke-linecap:round;stroke-opacity:0.533333;stroke-width:0.887534;"/>
   </g>
   <g id="patch_30">
    <path clip-path="url(#p0367ed264c)" d="M 332.682463 43.448704 
Q 331.467356 70.734982 330.282093 97.351104 
" style="fill:none;stroke:#89a4cb;stroke-linecap:round;stroke-opacity:0.533333;stroke-width:0.6;"/>
    <path clip-path="url(#p0367ed264c)" d="M 332.458063 93.444039 
L 330.282093 97.351104 
L 328.462024 93.266089 
L 332.458063 93.444039 
z
" style="fill:#89a4cb;fill-opacity:0.533333;stroke:#89a4cb;stroke-linecap:round;stroke-opacity:0.533333;stroke-width:0.6;"/>
   </g>
   <g id="patch_31">
    <path clip-path="url(#p0367ed264c)" d="M 307.101623 101.588503 
Q 320.885117 116.587119 334.214699 131.091808 
" style="fill:none;stroke:#89a4cb;stroke-linecap:round;stroke-opacity:0.533333;stroke-width:0.6;"/>
    <path clip-path="url(#p0367ed264c)" d="M 332.980701 126.793291 
L 334.214699 131.091808 
L 330.035487 129.499897 
L 332.980701 126.793291 
z
" style="fill:#89a4cb;fill-opacity:0.533333;stroke:#89a4cb;stroke-linecap:round;stroke-opacity:0.533333;stroke-width:0.6;"/>
   </g>
   <g id="patch_32">
    <path clip-path="url(#p0367ed264c)" d="M 305.689876 163.406419 
Q 315.324861 159.706005 324.190146 156.301201 
" style="fill:none;stroke:#89a4cb;stroke-linecap:round;stroke-opacity:0.533333;stroke-width:0.737467;"/>
    <path clip-path="url(#p0367ed264c)" d="M 319.739014 155.868273 
L 324.190146 156.301201 
L 321.173125 159.60235 
L 319.739014 155.868273 
z
" style="fill:#89a4cb;fill-opacity:0.533333;stroke:#89a4cb;stroke-linecap:round;stroke-opacity:0.533333;stroke-width:0.737467;"/>
   </g>
   <g id="patch_33">
    <path clip-path="url(#p0367ed264c)" d="M 275.329225 178.143251 
Q 285.943847 172.795545 295.959384 167.749661 
" style="fill:none;stroke:#89a4cb;stroke-linecap:round;stroke-opacity:0.533333;stroke-width:0.6;"/>
    <path clip-path="url(#p0367ed264c)" d="M 291.487269 167.763256 
L 295.959384 167.749661 
L 293.286991 171.33551 
L 291.487269 167.763256 
z
" style="fill:#89a4cb;fill-opacity:0.533333;stroke:#89a4cb;stroke-linecap:round;stroke-opacity:0.533333;stroke-width:0.6;"/>
   </g>
   <g id="patch_34">
    <path clip-path="url(#p0367ed264c)" d="M 272.942587 74.359209 
Q 288.090633 96.577551 302.766325 118.103069 
" style="fill:none;stroke:#89a4cb;stroke-linecap:round;stroke-opacity:0.533333;stroke-width:0.75;"/>
    <path clip-path="url(#p0367ed264c)" d="M 302.165544 113.67147 
L 302.766325 118.103069 
L 298.860578 115.924734 
L 302.165544 113.67147 
z
" style="fill:#89a4cb;fill-opacity:0.533333;stroke:#89a4cb;stroke-linecap:round;stroke-opacity:0.533333;stroke-width:0.75;"/>
   </g>
   <g id="PathCollection_1">
    <defs>
     <path d="M 0 5 
C 1.326016 5 2.597899 4.473168 3.535534 3.535534 
C 4.473168 2.597899 5 1.326016 5 0 
C 5 -1.326016 4.473168 -2.597899 3.535534 -3.535534 
C 2.597899 -4.473168 1.326016 -5 0 -5 
C -1.326016 -5 -2.597899 -4.473168 -3.535534 -3.535534 
C -4.473168 -2.597899 -5 -1.326016 -5 0 
C -5 1.326016 -4.473168 2.597899 -3.535534 3.535534 
C -2.597899 4.473168 -1.326016 5 0 5 
z
" id="m8c8b74528d" style="stroke:#0d6efd;"/>
    </defs>
    <g clip-path="url(#p0367ed264c)">
     <use style="fill:#0d6efd;stroke:#0d6efd;" x="72.227245" xlink:href="#m8c8b74528d" y="49.574279"/>
     <use style="fill:#0d6efd;stroke:#0d6efd;" x="73.459546" xlink:href="#m8c8b74528d" y="118.20039"/>
     <use style="fill:#0d6efd;stroke:#0d6efd;" x="349.751446" xlink:href="#m8c8b74528d" y="70.280294"/>
     <use style="fill:#0d6efd;stroke:#0d6efd;" x="330.029967" xlink:href="#m8c8b74528d" y="103.012808"/>
     <use style="fill:#0d6efd;stroke:#0d6efd;" x="378.642638" xlink:href="#m8c8b74528d" y="32.191736"/>
     <use style="fill:#0d6efd;stroke:#0d6efd;" x="363.227728" xlink:href="#m8c8b74528d" y="86.16525"/>
     <use style="fill:#0d6efd;stroke:#0d6efd;" x="91.470047" xlink:href="#m8c8b74528d" y="201.488859"/>
     <use style="fill:#0d6efd;stroke:#0d6efd;" x="80.163244" xlink:href="#m8c8b74528d" y="251.50413"/>
     <use style="fill:#0d6efd;stroke:#0d6efd;" x="338.05191" xlink:href="#m8c8b74528d" y="135.267298"/>
     <use style="fill:#0d6efd;stroke:#0d6efd;" x="352.901592" xlink:href="#m8c8b74528d" y="176.344365"/>
     <use style="fill:#0d6efd;stroke:#0d6efd;" x="120.082222" xlink:href="#m8c8b74528d" y="137.466991"/>
     <use style="fill:#0d6efd;stroke:#0d6efd;" x="335.968916" xlink:href="#m8c8b74528d" y="58.722071"/>
     <use style="fill:#0d6efd;stroke:#0d6efd;" x="325.020292" xlink:href="#m8c8b74528d" y="77.505011"/>
     <use style="fill:#0d6efd;stroke:#0d6efd;" x="306.053866" xlink:href="#m8c8b74528d" y="122.925058"/>
     <use style="fill:#0d6efd;stroke:#0d6efd;" x="109.161685" xlink:href="#m8c8b74528d" y="206.544337"/>
     <use style="fill:#0d6efd;stroke:#0d6efd;" x="44.687603" xlink:href="#m8c8b74528d" y="102.37691"/>
     <use style="fill:#0d6efd;stroke:#0d6efd;" x="54.52674" xlink:href="#m8c8b74528d" y="130.57213"/>
     <use style="fill:#0d6efd;stroke:#0d6efd;" x="401.712397" xlink:href="#m8c8b74528d" y="158.040104"/>
     <use style="fill:#0d6efd;stroke:#0d6efd;" x="398.917407" xlink:href="#m8c8b74528d" y="200.064757"/>
     <use style="fill:#0d6efd;stroke:#0d6efd;" x="329.626129" xlink:href="#m8c8b74528d" y="154.213456"/>
     <use style="fill:#0d6efd;stroke:#0d6efd;" x="380.881449" xlink:href="#m8c8b74528d" y="207.253754"/>
     <use style="fill:#0d6efd;stroke:#0d6efd;" x="94.191769" xlink:href="#m8c8b74528d" y="270.208264"/>
     <use style="fill:#0d6efd;stroke:#0d6efd;" x="100.77227" xlink:href="#m8c8b74528d" y="182.865481"/>
     <use style="fill:#0d6efd;stroke:#0d6efd;" x="322.417279" xlink:href="#m8c8b74528d" y="189.498093"/>
     <use style="fill:#0d6efd;stroke:#0d6efd;" x="306.837753" xlink:href="#m8c8b74528d" y="57.695393"/>
     <use style="fill:#0d6efd;stroke:#0d6efd;" x="92.092783" xlink:href="#m8c8b74528d" y="101.115943"/>
     <use style="fill:#0d6efd;stroke:#0d6efd;" x="66.681508" xlink:href="#m8c8b74528d" y="185.564849"/>
     <use style="fill:#0d6efd;stroke:#0d6efd;" x="70.755422" xlink:href="#m8c8b74528d" y="191.41225"/>
     <use style="fill:#0d6efd;stroke:#0d6efd;" x="332.904776" xlink:href="#m8c8b74528d" y="38.456463"/>
     <use style="fill:#0d6efd;stroke:#0d6efd;" x="303.717188" xlink:href="#m8c8b74528d" y="97.905704"/>
     <use style="fill:#0d6efd;stroke:#0d6efd;" x="301.021347" xlink:href="#m8c8b74528d" y="165.199416"/>
     <use style="fill:#0d6efd;stroke:#0d6efd;" x="270.863751" xlink:href="#m8c8b74528d" y="180.392982"/>
     <use style="fill:#0d6efd;stroke:#0d6efd;" x="270.124652" xlink:href="#m8c8b74528d" y="70.226014"/>
    </g>
   </g>
   <g id="text_1">
    <g clip-path="url(#p0367ed264c)">
     <!-- й -->
     <g style="fill:#ffffff;" transform="translate(70.272167 51.383888)scale(0.07 -0.07)">
      <defs>
       <path d="M 422 3319 
L 984 3319 
L 984 788 
L 2544 3319 
L 3150 3319 
L 3150 0 
L 2588 0 
L 2588 2516 
L 1028 0 
L 422 0 
L 422 3319 
z
M 2374 4575 
L 2759 4575 
Q 2712 4184 2473 3975 
Q 2234 3766 1837 3766 
Q 1437 3766 1198 3973 
Q 959 4181 912 4575 
L 1296 4575 
Q 1340 4363 1469 4258 
Q 1599 4153 1818 4153 
Q 2071 4153 2201 4254 
Q 2331 4356 2374 4575 
z
" id="ArialMT-439" transform="scale(0.015625)"/>
      </defs>
      <use xlink:href="#ArialMT-439"/>
     </g>
    </g>
   </g>
   <g id="text_2">
    <g clip-path="url(#p0367ed264c)">
     <!-- с -->
     <g style="fill:#ffffff;" transform="translate(71.709546 120.01)scale(0.07 -0.07)">
      <defs>
       <path d="M 2588 1216 
L 3141 1144 
Q 3050 572 2676 248 
Q 2303 -75 1759 -75 
Q 1078 -75 664 370 
Q 250 816 250 1647 
Q 250 2184 428 2587 
Q 606 2991 970 3192 
Q 1334 3394 1763 3394 
Q 2303 3394 2647 3120 
Q 2991 2847 3088 2344 
L 2541 2259 
Q 2463 2594 2264 2762 
Q 2066 2931 1784 2931 
Q 1359 2931 1093 2626 
Q 828 2322 828 1663 
Q 828 994 1084 691 
Q 1341 388 1753 388 
Q 2084 388 2306 591 
Q 2528 794 2588 1216 
z
" id="ArialMT-441" transform="scale(0.015625)"/>
      </defs>
      <use xlink:href="#ArialMT-441"/>
     </g>
    </g>
   </g>
   <g id="text_3">
    <g clip-path="url(#p0367ed264c)">
     <!-- ц -->
     <g style="fill:#ffffff;" transform="translate(347.746602 72.089903)scale(0.07 -0.07)">
      <defs>
       <path d="M 431 3319 
L 994 3319 
L 994 463 
L 2550 463 
L 2550 3319 
L 3113 3319 
L 3113 463 
L 3475 463 
L 3475 -941 
L 3013 -941 
L 3013 0 
L 431 0 
L 431 3319 
z
" id="ArialMT-446" transform="scale(0.015625)"/>
      </defs>
      <use xlink:href="#ArialMT-446"/>
     </g>
    </g>
   </g>
   <g id="text_4">
    <g clip-path="url(#p0367ed264c)">
     <!-- е -->
     <g style="fill:#ffffff;" transform="translate(328.083639 104.822417)scale(0.07 -0.07)">
      <defs>
       <path d="M 2694 1069 
L 3275 997 
Q 3138 488 2766 206 
Q 2394 -75 1816 -75 
Q 1088 -75 661 373 
Q 234 822 234 1631 
Q 234 2469 665 2931 
Q 1097 3394 1784 3394 
Q 2450 3394 2872 2941 
Q 3294 2488 3294 1666 
Q 3294 1616 3291 1516 
L 816 1516 
Q 847 969 1125 678 
Q 1403 388 1819 388 
Q 2128 388 2347 550 
Q 2566 713 2694 1069 
z
M 847 1978 
L 2700 1978 
Q 2663 2397 2488 2606 
Q 2219 2931 1791 2931 
Q 1403 2931 1139 2672 
Q 875 2413 847 1978 
z
" id="ArialMT-435" transform="scale(0.015625)"/>
      </defs>
      <use xlink:href="#ArialMT-435"/>
     </g>
    </g>
   </g>
   <g id="text_5">
    <g clip-path="url(#p0367ed264c)">
     <!-- у -->
     <g style="fill:#ffffff;" transform="translate(376.892638 33.919314)scale(0.07 -0.07)">
      <defs>
       <path d="M 397 -1278 
L 334 -750 
Q 519 -800 656 -800 
Q 844 -800 956 -737 
Q 1069 -675 1141 -563 
Q 1194 -478 1313 -144 
Q 1328 -97 1363 -6 
L 103 3319 
L 709 3319 
L 1400 1397 
Q 1534 1031 1641 628 
Q 1738 1016 1872 1384 
L 2581 3319 
L 3144 3319 
L 1881 -56 
Q 1678 -603 1566 -809 
Q 1416 -1088 1222 -1217 
Q 1028 -1347 759 -1347 
Q 597 -1347 397 -1278 
z
" id="ArialMT-443" transform="scale(0.015625)"/>
      </defs>
      <use xlink:href="#ArialMT-443"/>
     </g>
    </g>
   </g>
   <g id="text_6">
    <g clip-path="url(#p0367ed264c)">
     <!-- д -->
     <g style="fill:#ffffff;" transform="translate(361.185697 87.974859)scale(0.07 -0.07)">
      <defs>
       <path d="M 866 3319 
L 3178 3319 
L 3178 463 
L 3538 463 
L 3538 -941 
L 3075 -941 
L 3075 0 
L 463 0 
L 463 -941 
L 0 -941 
L 0 463 
L 297 463 
Q 891 1269 866 3319 
z
M 1334 2853 
Q 1272 1238 834 463 
L 2619 463 
L 2619 2853 
L 1334 2853 
z
" id="ArialMT-434" transform="scale(0.015625)"/>
      </defs>
      <use xlink:href="#ArialMT-434"/>
     </g>
    </g>
   </g>
   <g id="text_7">
    <g clip-path="url(#p0367ed264c)">
     <!-- к -->
     <g style="fill:#ffffff;" transform="translate(89.938797 203.298469)scale(0.07 -0.07)">
      <defs>
       <path d="M 419 3319 
L 981 3319 
L 981 1884 
Q 1250 1884 1358 1987 
Q 1466 2091 1675 2588 
Q 1841 2981 1944 3106 
Q 2047 3231 2181 3275 
Q 2316 3319 2613 3319 
L 2725 3319 
L 2725 2853 
L 2569 2856 
Q 2347 2856 2284 2791 
Q 2219 2722 2084 2381 
Q 1956 2056 1850 1931 
Q 1744 1806 1522 1703 
Q 1884 1606 2234 1028 
L 2850 0 
L 2231 0 
L 1631 1028 
Q 1447 1338 1309 1436 
Q 1172 1534 981 1534 
L 981 0 
L 419 0 
L 419 3319 
z
" id="ArialMT-43a" transform="scale(0.015625)"/>
      </defs>
      <use xlink:href="#ArialMT-43a"/>
     </g>
    </g>
   </g>
   <g id="text_8">
    <g clip-path="url(#p0367ed264c)">
     <!-- о -->
     <g style="fill:#ffffff;" transform="translate(78.216916 253.313739)scale(0.07 -0.07)">
      <defs>
       <path d="M 213 1659 
Q 213 2581 725 3025 
Q 1153 3394 1769 3394 
Q 2453 3394 2887 2945 
Q 3322 2497 3322 1706 
Q 3322 1066 3130 698 
Q 2938 331 2570 128 
Q 2203 -75 1769 -75 
Q 1072 -75 642 372 
Q 213 819 213 1659 
z
M 791 1659 
Q 791 1022 1069 705 
Q 1347 388 1769 388 
Q 2188 388 2466 706 
Q 2744 1025 2744 1678 
Q 2744 2294 2464 2611 
Q 2184 2928 1769 2928 
Q 1347 2928 1069 2612 
Q 791 2297 791 1659 
z
" id="ArialMT-43e" transform="scale(0.015625)"/>
      </defs>
      <use xlink:href="#ArialMT-43e"/>
     </g>
    </g>
   </g>
   <g id="text_9">
    <g clip-path="url(#p0367ed264c)">
     <!-- н -->
     <g style="fill:#ffffff;" transform="translate(336.119253 137.076908)scale(0.07 -0.07)">
      <defs>
       <path d="M 425 3319 
L 988 3319 
L 988 1938 
L 2547 1938 
L 2547 3319 
L 3109 3319 
L 3109 0 
L 2547 0 
L 2547 1472 
L 988 1472 
L 988 0 
L 425 0 
L 425 3319 
z
" id="ArialMT-43d" transform="scale(0.015625)"/>
      </defs>
      <use xlink:href="#ArialMT-43d"/>
     </g>
    </g>
   </g>
   <g id="text_10">
    <g clip-path="url(#p0367ed264c)">
     <!-- а -->
     <g style="fill:#ffffff;" transform="translate(350.955264 178.153975)scale(0.07 -0.07)">
      <defs>
       <path d="M 2588 409 
Q 2275 144 1986 34 
Q 1697 -75 1366 -75 
Q 819 -75 525 192 
Q 231 459 231 875 
Q 231 1119 342 1320 
Q 453 1522 633 1644 
Q 813 1766 1038 1828 
Q 1203 1872 1538 1913 
Q 2219 1994 2541 2106 
Q 2544 2222 2544 2253 
Q 2544 2597 2384 2738 
Q 2169 2928 1744 2928 
Q 1347 2928 1158 2789 
Q 969 2650 878 2297 
L 328 2372 
Q 403 2725 575 2942 
Q 747 3159 1072 3276 
Q 1397 3394 1825 3394 
Q 2250 3394 2515 3294 
Q 2781 3194 2906 3042 
Q 3031 2891 3081 2659 
Q 3109 2516 3109 2141 
L 3109 1391 
Q 3109 606 3145 398 
Q 3181 191 3288 0 
L 2700 0 
Q 2613 175 2588 409 
z
M 2541 1666 
Q 2234 1541 1622 1453 
Q 1275 1403 1131 1340 
Q 988 1278 909 1158 
Q 831 1038 831 891 
Q 831 666 1001 516 
Q 1172 366 1500 366 
Q 1825 366 2078 508 
Q 2331 650 2450 897 
Q 2541 1088 2541 1459 
L 2541 1666 
z
" id="ArialMT-430" transform="scale(0.015625)"/>
      </defs>
      <use xlink:href="#ArialMT-430"/>
     </g>
    </g>
   </g>
   <g id="text_11">
    <g clip-path="url(#p0367ed264c)">
     <!-- г -->
     <g style="fill:#ffffff;" transform="translate(118.805816 139.2766)scale(0.07 -0.07)">
      <defs>
       <path d="M 425 3319 
L 2334 3319 
L 2334 2853 
L 988 2853 
L 988 0 
L 425 0 
L 425 3319 
z
" id="ArialMT-433" transform="scale(0.015625)"/>
      </defs>
      <use xlink:href="#ArialMT-433"/>
     </g>
    </g>
   </g>
   <g id="text_12">
    <g clip-path="url(#p0367ed264c)">
     <!-- ш -->
     <g style="fill:#ffffff;" transform="translate(333.16126 60.531681)scale(0.07 -0.07)">
      <defs>
       <path d="M 441 3319 
L 1003 3319 
L 1003 466 
L 2284 466 
L 2284 3319 
L 2847 3319 
L 2847 466 
L 4131 466 
L 4131 3319 
L 4691 3319 
L 4691 0 
L 441 0 
L 441 3319 
z
" id="ArialMT-448" transform="scale(0.015625)"/>
      </defs>
      <use xlink:href="#ArialMT-448"/>
     </g>
    </g>
   </g>
   <g id="text_13">
    <g clip-path="url(#p0367ed264c)">
     <!-- щ -->
     <g style="fill:#ffffff;" transform="translate(322.140448 79.314621)scale(0.07 -0.07)">
      <defs>
       <path d="M 441 3319 
L 1003 3319 
L 1003 463 
L 2284 463 
L 2284 3319 
L 2847 3319 
L 2847 463 
L 4131 463 
L 4131 3319 
L 4691 3319 
L 4691 463 
L 5063 463 
L 5063 -941 
L 4597 -941 
L 4597 0 
L 441 0 
L 441 3319 
z
" id="ArialMT-449" transform="scale(0.015625)"/>
      </defs>
      <use xlink:href="#ArialMT-449"/>
     </g>
    </g>
   </g>
   <g id="text_14">
    <g clip-path="url(#p0367ed264c)">
     <!-- з -->
     <g style="fill:#ffffff;" transform="translate(304.449335 124.734667)scale(0.07 -0.07)">
      <defs>
       <path d="M 1156 1500 
L 1156 1941 
Q 1513 1944 1642 1969 
Q 1772 1994 1887 2119 
Q 2003 2244 2003 2431 
Q 2003 2659 1851 2795 
Q 1700 2931 1459 2931 
Q 984 2931 794 2372 
L 259 2459 
Q 509 3394 1466 3394 
Q 1997 3394 2298 3103 
Q 2600 2813 2600 2409 
Q 2600 2003 2206 1763 
Q 2456 1628 2581 1420 
Q 2706 1213 2706 928 
Q 2706 481 2381 203 
Q 2056 -75 1472 -75 
Q 338 -75 156 934 
L 684 1047 
Q 756 728 976 553 
Q 1197 378 1481 378 
Q 1766 378 1955 539 
Q 2144 700 2144 950 
Q 2144 1144 2025 1287 
Q 1906 1431 1772 1467 
Q 1638 1503 1284 1503 
Q 1256 1503 1156 1500 
z
" id="ArialMT-437" transform="scale(0.015625)"/>
      </defs>
      <use xlink:href="#ArialMT-437"/>
     </g>
    </g>
   </g>
   <g id="text_15">
    <g clip-path="url(#p0367ed264c)">
     <!-- х -->
     <g style="fill:#ffffff;" transform="translate(107.411685 208.353946)scale(0.07 -0.07)">
      <defs>
       <path d="M 47 0 
L 1259 1725 
L 138 3319 
L 841 3319 
L 1350 2541 
Q 1494 2319 1581 2169 
Q 1719 2375 1834 2534 
L 2394 3319 
L 3066 3319 
L 1919 1756 
L 3153 0 
L 2463 0 
L 1781 1031 
L 1600 1309 
L 728 0 
L 47 0 
z
" id="ArialMT-445" transform="scale(0.015625)"/>
      </defs>
      <use xlink:href="#ArialMT-445"/>
     </g>
    </g>
   </g>
   <g id="text_16">
    <g clip-path="url(#p0367ed264c)">
     <!-- ъ -->
     <g style="fill:#ffffff;" transform="translate(42.500103 104.18652)scale(0.07 -0.07)">
      <defs>
       <path d="M 125 3319 
L 1609 3319 
L 1609 2022 
L 2325 2022 
Q 3084 2022 3428 1726 
Q 3772 1431 3772 1003 
Q 3772 559 3439 279 
Q 3106 0 2456 0 
L 1047 0 
L 1047 2853 
L 125 2853 
L 125 3319 
z
M 1609 456 
L 2200 456 
Q 2738 456 2963 586 
Q 3188 716 3188 1003 
Q 3188 1266 2995 1409 
Q 2803 1553 2275 1553 
L 1609 1553 
L 1609 456 
z
" id="ArialMT-44a" transform="scale(0.015625)"/>
      </defs>
      <use xlink:href="#ArialMT-44a"/>
     </g>
    </g>
   </g>
   <g id="text_17">
    <g clip-path="url(#p0367ed264c)">
     <!-- я -->
     <g style="fill:#ffffff;" transform="translate(52.631272 132.38174)scale(0.07 -0.07)">
      <defs>
       <path d="M 3034 3319 
L 3034 0 
L 2475 0 
L 2475 1294 
L 2150 1294 
Q 1853 1294 1708 1217 
Q 1563 1141 1284 725 
L 794 0 
L 97 0 
L 703 894 
Q 981 1303 1256 1356 
Q 775 1422 542 1703 
Q 309 1984 309 2350 
Q 309 2781 614 3050 
Q 919 3319 1497 3319 
L 3034 3319 
z
M 2475 2853 
L 1675 2853 
Q 1172 2853 1026 2697 
Q 881 2541 881 2331 
Q 881 2034 1095 1895 
Q 1309 1756 1853 1756 
L 2475 1756 
L 2475 2853 
z
" id="ArialMT-44f" transform="scale(0.015625)"/>
      </defs>
      <use xlink:href="#ArialMT-44f"/>
     </g>
    </g>
   </g>
   <g id="text_18">
    <g clip-path="url(#p0367ed264c)">
     <!-- ф -->
     <g style="fill:#ffffff;" transform="translate(398.832553 159.849713)scale(0.07 -0.07)">
      <defs>
       <path d="M 2353 4581 
L 2916 4581 
L 2916 2997 
Q 3091 3197 3300 3295 
Q 3509 3394 3750 3394 
Q 4341 3394 4686 2901 
Q 5031 2409 5031 1663 
Q 5031 884 4659 404 
Q 4288 -75 3734 -75 
Q 3553 -75 3365 -18 
Q 3178 38 2916 288 
L 2916 -1272 
L 2353 -1272 
L 2353 288 
Q 2184 106 1979 15 
Q 1775 -75 1538 -75 
Q 1016 -75 625 383 
Q 234 841 234 1694 
Q 234 2416 587 2905 
Q 941 3394 1538 3394 
Q 1788 3394 1991 3295 
Q 2194 3197 2353 2997 
L 2353 4581 
z
M 2913 1647 
Q 2913 897 3119 639 
Q 3325 381 3634 381 
Q 3978 381 4220 698 
Q 4463 1016 4463 1684 
Q 4463 2316 4239 2625 
Q 4016 2934 3666 2934 
Q 3291 2934 3102 2612 
Q 2913 2291 2913 1647 
z
M 806 1709 
Q 806 1006 1042 697 
Q 1278 388 1628 388 
Q 1994 388 2175 695 
Q 2356 1003 2356 1619 
Q 2356 2275 2165 2603 
Q 1975 2931 1591 2931 
Q 1244 2931 1025 2611 
Q 806 2291 806 1709 
z
" id="ArialMT-444" transform="scale(0.015625)"/>
      </defs>
      <use xlink:href="#ArialMT-444"/>
     </g>
    </g>
   </g>
   <g id="text_19">
    <g clip-path="url(#p0367ed264c)">
     <!-- и -->
     <g style="fill:#ffffff;" transform="translate(396.962329 201.874367)scale(0.07 -0.07)">
      <defs>
       <path d="M 422 3319 
L 984 3319 
L 984 788 
L 2544 3319 
L 3150 3319 
L 3150 0 
L 2588 0 
L 2588 2516 
L 1028 0 
L 422 0 
L 422 3319 
z
" id="ArialMT-438" transform="scale(0.015625)"/>
      </defs>
      <use xlink:href="#ArialMT-438"/>
     </g>
    </g>
   </g>
   <g id="text_20">
    <g clip-path="url(#p0367ed264c)">
     <!-- ы -->
     <g style="fill:#ffffff;" transform="translate(327.110504 156.023065)scale(0.07 -0.07)">
      <defs>
       <path d="M 3581 3319 
L 4144 3319 
L 4144 0 
L 3581 0 
L 3581 3319 
z
M 434 3319 
L 997 3319 
L 997 2022 
L 1709 2022 
Q 2406 2022 2782 1751 
Q 3159 1481 3159 1006 
Q 3159 591 2845 295 
Q 2531 0 1841 0 
L 434 0 
L 434 3319 
z
M 997 463 
L 1588 463 
Q 2122 463 2350 594 
Q 2578 725 2578 1003 
Q 2578 1219 2409 1387 
Q 2241 1556 1663 1556 
L 997 1556 
L 997 463 
z
" id="ArialMT-44b" transform="scale(0.015625)"/>
      </defs>
      <use xlink:href="#ArialMT-44b"/>
     </g>
    </g>
   </g>
   <g id="text_21">
    <g clip-path="url(#p0367ed264c)">
     <!-- л -->
     <g style="fill:#ffffff;" transform="translate(378.839417 209.063363)scale(0.07 -0.07)">
      <defs>
       <path d="M 697 3319 
L 3309 3319 
L 3309 0 
L 2750 0 
L 2750 2853 
L 1259 2853 
L 1259 1200 
Q 1259 622 1221 437 
Q 1184 253 1015 115 
Q 847 -22 528 -22 
Q 331 -22 75 3 
L 75 472 
L 322 472 
Q 497 472 572 508 
Q 647 544 672 622 
Q 697 700 697 1131 
L 697 3319 
z
" id="ArialMT-43b" transform="scale(0.015625)"/>
      </defs>
      <use xlink:href="#ArialMT-43b"/>
     </g>
    </g>
   </g>
   <g id="text_22">
    <g clip-path="url(#p0367ed264c)">
     <!-- в -->
     <g style="fill:#ffffff;" transform="translate(92.332394 272.017874)scale(0.07 -0.07)">
      <defs>
       <path d="M 425 3319 
L 1722 3319 
Q 2200 3319 2433 3239 
Q 2666 3159 2833 2946 
Q 3000 2734 3000 2438 
Q 3000 2200 2901 2023 
Q 2803 1847 2606 1728 
Q 2841 1650 2995 1436 
Q 3150 1222 3150 928 
Q 3119 456 2812 228 
Q 2506 0 1922 0 
L 425 0 
L 425 3319 
z
M 988 1922 
L 1588 1922 
Q 1947 1922 2081 1959 
Q 2216 1997 2322 2111 
Q 2428 2225 2428 2384 
Q 2428 2647 2242 2750 
Q 2056 2853 1606 2853 
L 988 2853 
L 988 1922 
z
M 988 463 
L 1728 463 
Q 2206 463 2384 573 
Q 2563 684 2572 956 
Q 2572 1116 2469 1252 
Q 2366 1388 2200 1423 
Q 2034 1459 1669 1459 
L 988 1459 
L 988 463 
z
" id="ArialMT-432" transform="scale(0.015625)"/>
      </defs>
      <use xlink:href="#ArialMT-432"/>
     </g>
    </g>
   </g>
   <g id="text_23">
    <g clip-path="url(#p0367ed264c)">
     <!-- п -->
     <g style="fill:#ffffff;" transform="translate(98.876801 184.675091)scale(0.07 -0.07)">
      <defs>
       <path d="M 425 3319 
L 3044 3319 
L 3044 0 
L 2481 0 
L 2481 2853 
L 988 2853 
L 988 0 
L 425 0 
L 425 3319 
z
" id="ArialMT-43f" transform="scale(0.015625)"/>
      </defs>
      <use xlink:href="#ArialMT-43f"/>
     </g>
    </g>
   </g>
   <g id="text_24">
    <g clip-path="url(#p0367ed264c)">
     <!-- р -->
     <g style="fill:#ffffff;" transform="translate(320.470951 191.307702)scale(0.07 -0.07)">
      <defs>
       <path d="M 422 -1272 
L 422 3319 
L 934 3319 
L 934 2888 
Q 1116 3141 1344 3267 
Q 1572 3394 1897 3394 
Q 2322 3394 2647 3175 
Q 2972 2956 3137 2557 
Q 3303 2159 3303 1684 
Q 3303 1175 3120 767 
Q 2938 359 2589 142 
Q 2241 -75 1856 -75 
Q 1575 -75 1351 44 
Q 1128 163 984 344 
L 984 -1272 
L 422 -1272 
z
M 931 1641 
Q 931 1000 1190 694 
Q 1450 388 1819 388 
Q 2194 388 2461 705 
Q 2728 1022 2728 1688 
Q 2728 2322 2467 2637 
Q 2206 2953 1844 2953 
Q 1484 2953 1207 2617 
Q 931 2281 931 1641 
z
" id="ArialMT-440" transform="scale(0.015625)"/>
      </defs>
      <use xlink:href="#ArialMT-440"/>
     </g>
    </g>
   </g>
   <g id="text_25">
    <g clip-path="url(#p0367ed264c)">
     <!-- ж -->
     <g style="fill:#ffffff;" transform="translate(304.496582 59.505003)scale(0.07 -0.07)">
      <defs>
       <path d="M 2428 3319 
L 2428 1884 
Q 2697 1884 2806 1987 
Q 2916 2091 3125 2588 
Q 3322 3059 3478 3191 
Q 3631 3319 3966 3319 
L 4172 3319 
L 4172 2853 
L 4019 2856 
Q 3794 2856 3731 2791 
Q 3666 2722 3531 2381 
Q 3406 2056 3300 1931 
Q 3194 1806 2969 1703 
Q 3334 1606 3681 1028 
L 4300 0 
L 3681 0 
L 3078 1028 
Q 2894 1341 2756 1437 
Q 2619 1534 2428 1534 
L 2428 0 
L 1853 0 
L 1853 1534 
Q 1666 1534 1528 1439 
Q 1391 1344 1206 1028 
L 603 0 
L -16 0 
L 600 1028 
Q 950 1606 1316 1703 
Q 1066 1819 966 1955 
Q 866 2091 666 2603 
Q 597 2775 519 2816 
Q 438 2856 278 2856 
Q 238 2856 113 2853 
L 113 3319 
L 191 3319 
Q 516 3319 648 3280 
Q 781 3241 886 3114 
Q 991 2988 1159 2588 
Q 1366 2097 1473 1990 
Q 1581 1884 1853 1884 
L 1853 3319 
L 2428 3319 
z
" id="ArialMT-436" transform="scale(0.015625)"/>
      </defs>
      <use xlink:href="#ArialMT-436"/>
     </g>
    </g>
   </g>
   <g id="text_26">
    <g clip-path="url(#p0367ed264c)">
     <!-- э -->
     <g style="fill:#ffffff;" transform="translate(90.306689 102.925552)scale(0.07 -0.07)">
      <defs>
       <path d="M 1263 1931 
L 1263 1469 
L 2434 1469 
Q 2381 928 2154 658 
Q 1928 388 1525 388 
Q 813 388 684 1213 
L 134 1141 
Q 222 594 589 259 
Q 956 -75 1550 -75 
Q 2256 -116 2643 373 
Q 3031 863 3013 1659 
Q 3013 2469 2609 2931 
Q 2206 3394 1509 3394 
Q 953 3394 609 3098 
Q 266 2803 191 2338 
L 738 2250 
Q 875 2928 1528 2928 
Q 1903 2928 2142 2651 
Q 2381 2375 2434 1931 
L 1263 1931 
z
" id="ArialMT-44d" transform="scale(0.015625)"/>
      </defs>
      <use xlink:href="#ArialMT-44d"/>
     </g>
    </g>
   </g>
   <g id="text_27">
    <g clip-path="url(#p0367ed264c)">
     <!-- т -->
     <g style="fill:#ffffff;" transform="translate(65.078618 187.374459)scale(0.07 -0.07)">
      <defs>
       <path d="M 119 3319 
L 2816 3319 
L 2816 2853 
L 1747 2853 
L 1747 0 
L 1188 0 
L 1188 2853 
L 119 2853 
L 119 3319 
z
" id="ArialMT-442" transform="scale(0.015625)"/>
      </defs>
      <use xlink:href="#ArialMT-442"/>
     </g>
    </g>
   </g>
   <g id="text_28">
    <g clip-path="url(#p0367ed264c)">
     <!-- ч -->
     <g style="fill:#ffffff;" transform="translate(68.93214 193.22186)scale(0.07 -0.07)">
      <defs>
       <path d="M 216 3319 
L 778 3319 
L 778 2691 
Q 778 2284 826 2101 
Q 875 1919 1059 1783 
Q 1244 1647 1522 1647 
Q 1841 1647 2347 1816 
L 2347 3319 
L 2909 3319 
L 2909 0 
L 2347 0 
L 2347 1338 
Q 1828 1175 1378 1175 
Q 1000 1175 711 1367 
Q 422 1559 319 1837 
Q 216 2116 216 2450 
L 216 3319 
z
" id="ArialMT-447" transform="scale(0.015625)"/>
      </defs>
      <use xlink:href="#ArialMT-447"/>
     </g>
    </g>
   </g>
   <g id="text_29">
    <g clip-path="url(#p0367ed264c)">
     <!-- м -->
     <g style="fill:#ffffff;" transform="translate(330.498526 40.266072)scale(0.07 -0.07)">
      <defs>
       <path d="M 438 3319 
L 1313 3319 
L 2184 663 
L 3153 3319 
L 3963 3319 
L 3963 0 
L 3400 0 
L 3400 2672 
L 2419 0 
L 1916 0 
L 988 2800 
L 988 0 
L 438 0 
L 438 3319 
z
" id="ArialMT-43c" transform="scale(0.015625)"/>
      </defs>
      <use xlink:href="#ArialMT-43c"/>
     </g>
    </g>
   </g>
   <g id="text_30">
    <g clip-path="url(#p0367ed264c)">
     <!-- ь -->
     <g style="fill:#ffffff;" transform="translate(301.893907 99.715313)scale(0.07 -0.07)">
      <defs>
       <path d="M 413 3319 
L 975 3319 
L 975 2022 
L 1688 2022 
Q 2384 2022 2761 1751 
Q 3138 1481 3138 1006 
Q 3138 591 2823 295 
Q 2509 0 1819 0 
L 413 0 
L 413 3319 
z
M 975 463 
L 1566 463 
Q 2100 463 2328 594 
Q 2556 725 2556 1003 
Q 2556 1219 2387 1387 
Q 2219 1556 1641 1556 
L 975 1556 
L 975 463 
z
" id="ArialMT-44c" transform="scale(0.015625)"/>
      </defs>
      <use xlink:href="#ArialMT-44c"/>
     </g>
    </g>
   </g>
   <g id="text_31">
    <g clip-path="url(#p0367ed264c)">
     <!-- б -->
     <g style="fill:#ffffff;" transform="translate(299.016503 167.009026)scale(0.07 -0.07)">
      <defs>
       <path d="M 2853 4691 
L 3350 4684 
Q 3316 4350 3202 4219 
Q 3088 4088 2908 4050 
Q 2728 4013 2203 4013 
Q 1506 4013 1253 3878 
Q 1000 3744 889 3448 
Q 778 3153 766 2688 
Q 978 3003 1262 3161 
Q 1547 3319 1903 3319 
Q 2556 3319 2984 2870 
Q 3413 2422 3413 1656 
Q 3413 1075 3197 703 
Q 2981 331 2686 128 
Q 2391 -75 1881 -75 
Q 1291 -75 962 195 
Q 634 466 459 887 
Q 284 1309 284 2356 
Q 284 3672 729 4128 
Q 1175 4584 2100 4584 
Q 2675 4584 2753 4603 
Q 2831 4622 2853 4691 
z
M 2825 1672 
Q 2825 2191 2579 2522 
Q 2334 2853 1888 2853 
Q 1422 2853 1169 2503 
Q 916 2153 916 1569 
Q 916 991 1195 684 
Q 1475 378 1884 378 
Q 2303 378 2564 733 
Q 2825 1088 2825 1672 
z
" id="ArialMT-431" transform="scale(0.015625)"/>
      </defs>
      <use xlink:href="#ArialMT-431"/>
     </g>
    </g>
   </g>
   <g id="text_32">
    <g clip-path="url(#p0367ed264c)">
     <!-- ю -->
     <g style="fill:#ffffff;" transform="translate(268.238751 182.202591)scale(0.07 -0.07)">
      <defs>
       <path d="M 428 3319 
L 991 3319 
L 991 1931 
L 1672 1931 
Q 1747 2644 2117 3019 
Q 2488 3394 3078 3394 
Q 3581 3394 3872 3191 
Q 4163 2988 4352 2631 
Q 4541 2275 4541 1672 
Q 4541 813 4150 369 
Q 3759 -75 3091 -75 
Q 2469 -75 2094 337 
Q 1719 750 1672 1469 
L 991 1469 
L 991 0 
L 428 0 
L 428 3319 
z
M 3109 2916 
Q 2697 2916 2467 2598 
Q 2238 2281 2238 1709 
Q 2238 1025 2469 706 
Q 2700 388 3088 388 
Q 3472 388 3717 683 
Q 3963 978 3963 1634 
Q 3963 2275 3750 2595 
Q 3538 2916 3109 2916 
z
" id="ArialMT-44e" transform="scale(0.015625)"/>
      </defs>
      <use xlink:href="#ArialMT-44e"/>
     </g>
    </g>
   </g>
   <g id="text_33">
    <g clip-path="url(#p0367ed264c)">
     <!-- ё -->
     <g style="fill:#ffffff;" transform="translate(268.178324 72.035623)scale(0.07 -0.07)">
      <defs>
       <path d="M 2694 1069 
L 3275 997 
Q 3138 488 2766 206 
Q 2394 -75 1816 -75 
Q 1088 -75 661 373 
Q 234 822 234 1631 
Q 234 2469 665 2931 
Q 1097 3394 1784 3394 
Q 2450 3394 2872 2941 
Q 3294 2488 3294 1666 
Q 3294 1616 3291 1516 
L 816 1516 
Q 847 969 1125 678 
Q 1403 388 1819 388 
Q 2128 388 2347 550 
Q 2566 713 2694 1069 
z
M 847 1978 
L 2700 1978 
Q 2663 2397 2488 2606 
Q 2219 2931 1791 2931 
Q 1403 2931 1139 2672 
Q 875 2413 847 1978 
z
M 887 3969 
L 887 4609 
L 1474 4609 
L 1474 3969 
L 887 3969 
z
M 2052 3969 
L 2052 4609 
L 2640 4609 
L 2640 3969 
L 2052 3969 
z
" id="ArialMT-451" transform="scale(0.015625)"/>
      </defs>
      <use xlink:href="#ArialMT-451"/>
     </g>
    </g>
   </g>
  </g>
 </g>
 <defs>
  <clipPath id="p0367ed264c">
   <rect height="288" width="432" x="7.2" y="7.2"/>
  </clipPath>
 </defs>
</svg>
